<svg width="145" height="162" viewBox="0 0 145 162" fill="none" xmlns="http://www.w3.org/2000/svg">
<path d="M33.888 4.6V9.808L27.912 4.18V13H29.568V7.792L35.544 13.42V4.6H33.888ZM36.853 10.24C36.853 10.808 36.985 11.312 37.249 11.752C37.521 12.184 37.885 12.52 38.341 12.76C38.805 13 39.329 13.12 39.913 13.12C40.497 13.12 41.017 13 41.473 12.76C41.937 12.52 42.301 12.184 42.565 11.752C42.837 11.312 42.973 10.808 42.973 10.24C42.973 9.664 42.837 9.16 42.565 8.728C42.301 8.296 41.937 7.96 41.473 7.72C41.017 7.48 40.497 7.36 39.913 7.36C39.329 7.36 38.805 7.48 38.341 7.72C37.885 7.96 37.521 8.296 37.249 8.728C36.985 9.16 36.853 9.664 36.853 10.24ZM38.437 10.24C38.437 9.928 38.501 9.652 38.629 9.412C38.765 9.172 38.945 8.988 39.169 8.86C39.393 8.732 39.641 8.668 39.913 8.668C40.185 8.668 40.433 8.732 40.657 8.86C40.881 8.988 41.057 9.172 41.185 9.412C41.321 9.652 41.389 9.928 41.389 10.24C41.389 10.552 41.321 10.828 41.185 11.068C41.057 11.3 40.881 11.484 40.657 11.62C40.433 11.748 40.185 11.812 39.913 11.812C39.641 11.812 39.393 11.748 39.169 11.62C38.945 11.484 38.765 11.3 38.629 11.068C38.501 10.828 38.437 10.552 38.437 10.24ZM45.6631 7.48H44.1391V13H45.6631V7.48ZM47.2831 9.1L47.9911 7.78C47.8791 7.636 47.7311 7.528 47.5471 7.456C47.3711 7.384 47.1831 7.348 46.9831 7.348C46.6951 7.348 46.4151 7.452 46.1431 7.66C45.8711 7.86 45.6511 8.132 45.4831 8.476C45.3151 8.812 45.2311 9.2 45.2311 9.64L45.6631 10.072C45.6631 9.808 45.6951 9.584 45.7591 9.4C45.8311 9.208 45.9351 9.06 46.0711 8.956C46.2071 8.852 46.3711 8.8 46.5631 8.8C46.7231 8.8 46.8551 8.828 46.9591 8.884C47.0711 8.932 47.1791 9.004 47.2831 9.1ZM48.1069 7.48V8.788H51.5149V7.48H48.1069ZM49.0549 5.56V13H50.5549V5.56H49.0549ZM53.9022 3.64H52.3422V13H53.9022V3.64ZM55.9062 9.64V13H57.4662V9.412C57.4662 8.956 57.3982 8.572 57.2622 8.26C57.1262 7.94 56.9182 7.7 56.6382 7.54C56.3582 7.38 56.0022 7.3 55.5702 7.3C55.1382 7.3 54.7742 7.404 54.4782 7.612C54.1822 7.82 53.9582 8.1 53.8062 8.452C53.6622 8.804 53.5902 9.2 53.5902 9.64H53.9022C53.9022 9.408 53.9462 9.208 54.0342 9.04C54.1222 8.872 54.2502 8.744 54.4182 8.656C54.5862 8.56 54.7782 8.512 54.9942 8.512C55.3222 8.512 55.5542 8.608 55.6902 8.8C55.8342 8.992 55.9062 9.272 55.9062 9.64ZM63.8441 13H68.0801V11.548H63.8441V13ZM63.8441 6.052H68.0801V4.6H63.8441V6.052ZM63.8441 9.256H67.8401V7.828H63.8441V9.256ZM62.7401 4.6V13H64.3961V4.6H62.7401ZM70.7314 11.284C70.7314 11.124 70.7674 10.992 70.8394 10.888C70.9114 10.776 71.0234 10.692 71.1754 10.636C71.3274 10.572 71.5234 10.54 71.7634 10.54C72.0594 10.54 72.3394 10.58 72.6034 10.66C72.8754 10.74 73.1194 10.86 73.3354 11.02V10.3C73.2554 10.204 73.1234 10.104 72.9394 10C72.7554 9.896 72.5274 9.808 72.2554 9.736C71.9914 9.664 71.6834 9.628 71.3314 9.628C70.6434 9.628 70.1114 9.784 69.7354 10.096C69.3594 10.408 69.1714 10.832 69.1714 11.368C69.1714 11.744 69.2594 12.064 69.4354 12.328C69.6194 12.584 69.8594 12.78 70.1554 12.916C70.4514 13.052 70.7714 13.12 71.1154 13.12C71.4514 13.12 71.7714 13.06 72.0754 12.94C72.3874 12.82 72.6394 12.64 72.8314 12.4C73.0314 12.16 73.1314 11.864 73.1314 11.512L72.9394 10.792C72.9394 11.056 72.8794 11.284 72.7594 11.476C72.6394 11.66 72.4834 11.804 72.2914 11.908C72.0994 12.004 71.8834 12.052 71.6434 12.052C71.4754 12.052 71.3194 12.024 71.1754 11.968C71.0394 11.904 70.9314 11.816 70.8514 11.704C70.7714 11.584 70.7314 11.444 70.7314 11.284ZM70.1314 9.04C70.2114 8.984 70.3354 8.916 70.5034 8.836C70.6714 8.756 70.8714 8.688 71.1034 8.632C71.3354 8.576 71.5794 8.548 71.8354 8.548C72.0034 8.548 72.1554 8.564 72.2914 8.596C72.4274 8.628 72.5434 8.68 72.6394 8.752C72.7434 8.824 72.8194 8.916 72.8674 9.028C72.9154 9.132 72.9394 9.26 72.9394 9.412V13H74.4394V9.088C74.4394 8.712 74.3354 8.396 74.1274 8.14C73.9194 7.876 73.6314 7.676 73.2634 7.54C72.8954 7.404 72.4754 7.336 72.0034 7.336C71.4914 7.336 71.0274 7.408 70.6114 7.552C70.1954 7.688 69.8434 7.832 69.5554 7.984L70.1314 9.04ZM76.1612 11.092L75.4052 12.064C75.6132 12.264 75.8452 12.452 76.1012 12.628C76.3652 12.796 76.6572 12.932 76.9772 13.036C77.3052 13.14 77.6652 13.192 78.0572 13.192C78.6892 13.192 79.1852 13.04 79.5452 12.736C79.9052 12.424 80.0852 11.992 80.0852 11.44C80.0852 11.104 80.0092 10.832 79.8572 10.624C79.7052 10.416 79.5012 10.244 79.2452 10.108C78.9972 9.964 78.7252 9.836 78.4292 9.724C78.1892 9.62 77.9732 9.532 77.7812 9.46C77.5972 9.388 77.4532 9.308 77.3492 9.22C77.2532 9.124 77.2052 9.016 77.2052 8.896C77.2052 8.76 77.2532 8.66 77.3492 8.596C77.4532 8.524 77.5932 8.488 77.7692 8.488C78.0332 8.488 78.3012 8.556 78.5732 8.692C78.8532 8.828 79.0932 9.004 79.2932 9.22L79.9772 8.26C79.8012 8.084 79.5972 7.932 79.3652 7.804C79.1332 7.668 78.8812 7.56 78.6092 7.48C78.3372 7.4 78.0452 7.36 77.7332 7.36C77.3652 7.36 77.0292 7.42 76.7252 7.54C76.4292 7.652 76.1932 7.824 76.0172 8.056C75.8412 8.28 75.7532 8.556 75.7532 8.884C75.7532 9.228 75.8292 9.512 75.9812 9.736C76.1412 9.952 76.3412 10.128 76.5812 10.264C76.8212 10.392 77.0692 10.504 77.3252 10.6C77.5972 10.688 77.8212 10.772 77.9972 10.852C78.1732 10.932 78.3052 11.024 78.3932 11.128C78.4892 11.224 78.5372 11.344 78.5372 11.488C78.5372 11.648 78.4812 11.776 78.3692 11.872C78.2572 11.96 78.0972 12.004 77.8892 12.004C77.7292 12.004 77.5572 11.972 77.3732 11.908C77.1972 11.844 77.0092 11.748 76.8092 11.62C76.6092 11.484 76.3932 11.308 76.1612 11.092ZM80.4506 7.48V8.788H83.8586V7.48H80.4506ZM81.3986 5.56V13H82.8986V5.56H81.3986Z" fill="white"/>
<path opacity="0.6" d="M114.216 8.908C114.848 8.908 115.412 8.824 115.908 8.656C116.404 8.488 116.796 8.244 117.084 7.924C117.372 7.596 117.516 7.204 117.516 6.748C117.516 6.324 117.408 5.94 117.192 5.596C116.976 5.252 116.66 4.976 116.244 4.768C115.836 4.56 115.34 4.456 114.756 4.456C114.204 4.456 113.72 4.564 113.304 4.78C112.888 4.996 112.56 5.292 112.32 5.668C112.088 6.036 111.972 6.46 111.972 6.94H113.568C113.568 6.628 113.68 6.372 113.904 6.172C114.136 5.964 114.42 5.86 114.756 5.86C114.996 5.86 115.192 5.9 115.344 5.98C115.496 6.06 115.612 6.176 115.692 6.328C115.772 6.48 115.812 6.656 115.812 6.856C115.812 7.016 115.772 7.172 115.692 7.324C115.62 7.468 115.516 7.6 115.38 7.72C115.244 7.832 115.076 7.92 114.876 7.984C114.684 8.048 114.464 8.08 114.216 8.08V8.908ZM114.684 13.168C115.308 13.168 115.848 13.068 116.304 12.868C116.768 12.66 117.124 12.372 117.372 12.004C117.628 11.636 117.756 11.212 117.756 10.732C117.756 10.308 117.668 9.948 117.492 9.652C117.316 9.348 117.068 9.1 116.748 8.908C116.428 8.708 116.052 8.564 115.62 8.476C115.196 8.388 114.728 8.344 114.216 8.344V9.256C114.512 9.256 114.772 9.288 114.996 9.352C115.228 9.408 115.42 9.492 115.572 9.604C115.732 9.716 115.852 9.856 115.932 10.024C116.012 10.184 116.052 10.36 116.052 10.552C116.052 10.816 115.996 11.036 115.884 11.212C115.772 11.388 115.616 11.524 115.416 11.62C115.224 11.708 114.996 11.752 114.732 11.752C114.476 11.752 114.24 11.704 114.024 11.608C113.808 11.504 113.636 11.356 113.508 11.164C113.38 10.972 113.316 10.74 113.316 10.468H111.612C111.612 10.828 111.684 11.172 111.828 11.5C111.972 11.82 112.176 12.108 112.44 12.364C112.704 12.612 113.024 12.808 113.4 12.952C113.776 13.096 114.204 13.168 114.684 13.168ZM119.532 11.68L118.476 14.788L119.628 15.064L121.08 12.064L119.532 11.68ZM123.964 8.8C123.964 8.376 124.004 7.992 124.084 7.648C124.164 7.296 124.28 6.996 124.432 6.748C124.584 6.492 124.764 6.296 124.972 6.16C125.18 6.024 125.412 5.956 125.668 5.956C125.932 5.956 126.168 6.024 126.376 6.16C126.584 6.296 126.764 6.492 126.916 6.748C127.068 6.996 127.184 7.296 127.264 7.648C127.344 7.992 127.384 8.376 127.384 8.8C127.384 9.224 127.344 9.612 127.264 9.964C127.184 10.308 127.068 10.608 126.916 10.864C126.764 11.112 126.584 11.304 126.376 11.44C126.168 11.576 125.932 11.644 125.668 11.644C125.412 11.644 125.18 11.576 124.972 11.44C124.764 11.304 124.584 11.112 124.432 10.864C124.28 10.608 124.164 10.308 124.084 9.964C124.004 9.612 123.964 9.224 123.964 8.8ZM122.296 8.8C122.296 9.688 122.436 10.456 122.716 11.104C123.004 11.752 123.4 12.256 123.904 12.616C124.416 12.968 125.004 13.144 125.668 13.144C126.356 13.144 126.952 12.968 127.456 12.616C127.96 12.256 128.352 11.752 128.632 11.104C128.912 10.456 129.052 9.688 129.052 8.8C129.052 7.912 128.912 7.144 128.632 6.496C128.352 5.848 127.96 5.348 127.456 4.996C126.952 4.636 126.356 4.456 125.668 4.456C125.004 4.456 124.416 4.636 123.904 4.996C123.4 5.348 123.004 5.848 122.716 6.496C122.436 7.144 122.296 7.912 122.296 8.8ZM131.675 8.8C131.675 8.376 131.715 7.992 131.795 7.648C131.875 7.296 131.991 6.996 132.143 6.748C132.295 6.492 132.475 6.296 132.683 6.16C132.891 6.024 133.123 5.956 133.379 5.956C133.643 5.956 133.879 6.024 134.087 6.16C134.295 6.296 134.475 6.492 134.627 6.748C134.779 6.996 134.895 7.296 134.975 7.648C135.055 7.992 135.095 8.376 135.095 8.8C135.095 9.224 135.055 9.612 134.975 9.964C134.895 10.308 134.779 10.608 134.627 10.864C134.475 11.112 134.295 11.304 134.087 11.44C133.879 11.576 133.643 11.644 133.379 11.644C133.123 11.644 132.891 11.576 132.683 11.44C132.475 11.304 132.295 11.112 132.143 10.864C131.991 10.608 131.875 10.308 131.795 9.964C131.715 9.612 131.675 9.224 131.675 8.8ZM130.007 8.8C130.007 9.688 130.147 10.456 130.427 11.104C130.715 11.752 131.111 12.256 131.615 12.616C132.127 12.968 132.715 13.144 133.379 13.144C134.067 13.144 134.663 12.968 135.167 12.616C135.671 12.256 136.063 11.752 136.343 11.104C136.623 10.456 136.763 9.688 136.763 8.8C136.763 7.912 136.623 7.144 136.343 6.496C136.063 5.848 135.671 5.348 135.167 4.996C134.663 4.636 134.067 4.456 133.379 4.456C132.715 4.456 132.127 4.636 131.615 4.996C131.111 5.348 130.715 5.848 130.427 6.496C130.147 7.144 130.007 7.912 130.007 8.8ZM139.386 8.8C139.386 8.376 139.426 7.992 139.506 7.648C139.586 7.296 139.702 6.996 139.854 6.748C140.006 6.492 140.186 6.296 140.394 6.16C140.602 6.024 140.834 5.956 141.09 5.956C141.354 5.956 141.59 6.024 141.798 6.16C142.006 6.296 142.186 6.492 142.338 6.748C142.49 6.996 142.606 7.296 142.686 7.648C142.766 7.992 142.806 8.376 142.806 8.8C142.806 9.224 142.766 9.612 142.686 9.964C142.606 10.308 142.49 10.608 142.338 10.864C142.186 11.112 142.006 11.304 141.798 11.44C141.59 11.576 141.354 11.644 141.09 11.644C140.834 11.644 140.602 11.576 140.394 11.44C140.186 11.304 140.006 11.112 139.854 10.864C139.702 10.608 139.586 10.308 139.506 9.964C139.426 9.612 139.386 9.224 139.386 8.8ZM137.718 8.8C137.718 9.688 137.858 10.456 138.138 11.104C138.426 11.752 138.822 12.256 139.326 12.616C139.838 12.968 140.426 13.144 141.09 13.144C141.778 13.144 142.374 12.968 142.878 12.616C143.382 12.256 143.774 11.752 144.054 11.104C144.334 10.456 144.474 9.688 144.474 8.8C144.474 7.912 144.334 7.144 144.054 6.496C143.774 5.848 143.382 5.348 142.878 4.996C142.374 4.636 141.778 4.456 141.09 4.456C140.426 4.456 139.838 4.636 139.326 4.996C138.822 5.348 138.426 5.848 138.138 6.496C137.858 7.144 137.718 7.912 137.718 8.8Z" fill="white"/>
<rect y="2" width="22" height="14" rx="2" fill="#449352"/>
<path d="M33.888 33.6V38.808L27.912 33.18V42H29.568V36.792L35.544 42.42V33.6H33.888ZM36.853 39.24C36.853 39.808 36.985 40.312 37.249 40.752C37.521 41.184 37.885 41.52 38.341 41.76C38.805 42 39.329 42.12 39.913 42.12C40.497 42.12 41.017 42 41.473 41.76C41.937 41.52 42.301 41.184 42.565 40.752C42.837 40.312 42.973 39.808 42.973 39.24C42.973 38.664 42.837 38.16 42.565 37.728C42.301 37.296 41.937 36.96 41.473 36.72C41.017 36.48 40.497 36.36 39.913 36.36C39.329 36.36 38.805 36.48 38.341 36.72C37.885 36.96 37.521 37.296 37.249 37.728C36.985 38.16 36.853 38.664 36.853 39.24ZM38.437 39.24C38.437 38.928 38.501 38.652 38.629 38.412C38.765 38.172 38.945 37.988 39.169 37.86C39.393 37.732 39.641 37.668 39.913 37.668C40.185 37.668 40.433 37.732 40.657 37.86C40.881 37.988 41.057 38.172 41.185 38.412C41.321 38.652 41.389 38.928 41.389 39.24C41.389 39.552 41.321 39.828 41.185 40.068C41.057 40.3 40.881 40.484 40.657 40.62C40.433 40.748 40.185 40.812 39.913 40.812C39.641 40.812 39.393 40.748 39.169 40.62C38.945 40.484 38.765 40.3 38.629 40.068C38.501 39.828 38.437 39.552 38.437 39.24ZM45.6631 36.48H44.1391V42H45.6631V36.48ZM47.2831 38.1L47.9911 36.78C47.8791 36.636 47.7311 36.528 47.5471 36.456C47.3711 36.384 47.1831 36.348 46.9831 36.348C46.6951 36.348 46.4151 36.452 46.1431 36.66C45.8711 36.86 45.6511 37.132 45.4831 37.476C45.3151 37.812 45.2311 38.2 45.2311 38.64L45.6631 39.072C45.6631 38.808 45.6951 38.584 45.7591 38.4C45.8311 38.208 45.9351 38.06 46.0711 37.956C46.2071 37.852 46.3711 37.8 46.5631 37.8C46.7231 37.8 46.8551 37.828 46.9591 37.884C47.0711 37.932 47.1791 38.004 47.2831 38.1ZM48.1069 36.48V37.788H51.5149V36.48H48.1069ZM49.0549 34.56V42H50.5549V34.56H49.0549ZM53.9022 32.64H52.3422V42H53.9022V32.64ZM55.9062 38.64V42H57.4662V38.412C57.4662 37.956 57.3982 37.572 57.2622 37.26C57.1262 36.94 56.9182 36.7 56.6382 36.54C56.3582 36.38 56.0022 36.3 55.5702 36.3C55.1382 36.3 54.7742 36.404 54.4782 36.612C54.1822 36.82 53.9582 37.1 53.8062 37.452C53.6622 37.804 53.5902 38.2 53.5902 38.64H53.9022C53.9022 38.408 53.9462 38.208 54.0342 38.04C54.1222 37.872 54.2502 37.744 54.4182 37.656C54.5862 37.56 54.7782 37.512 54.9942 37.512C55.3222 37.512 55.5542 37.608 55.6902 37.8C55.8342 37.992 55.9062 38.272 55.9062 38.64ZM70.4441 38.82L68.0801 33.18L65.7401 38.82L63.9161 33.6H61.9001L65.4281 42.468L68.0801 36.948L70.7201 42.468L74.2601 33.6H72.2441L70.4441 38.82ZM76.7314 42.12C77.3954 42.12 77.9634 41.992 78.4354 41.736C78.9154 41.472 79.2994 41.08 79.5874 40.56L78.2314 40.14C78.0714 40.404 77.8674 40.604 77.6194 40.74C77.3794 40.868 77.0874 40.932 76.7434 40.932C76.4394 40.932 76.1794 40.864 75.9634 40.728C75.7474 40.592 75.5834 40.396 75.4714 40.14C75.3674 39.884 75.3154 39.572 75.3154 39.204C75.3234 38.82 75.3794 38.5 75.4834 38.244C75.5954 37.98 75.7514 37.784 75.9514 37.656C76.1594 37.52 76.4154 37.452 76.7194 37.452C76.9674 37.452 77.1834 37.508 77.3674 37.62C77.5514 37.732 77.6914 37.884 77.7874 38.076C77.8914 38.268 77.9434 38.5 77.9434 38.772C77.9434 38.828 77.9274 38.9 77.8954 38.988C77.8714 39.068 77.8434 39.132 77.8114 39.18L78.2314 38.628H74.6434V39.588H79.5874C79.5954 39.54 79.5994 39.476 79.5994 39.396C79.6074 39.316 79.6114 39.24 79.6114 39.168C79.6114 38.576 79.4994 38.072 79.2754 37.656C79.0514 37.232 78.7234 36.912 78.2914 36.696C77.8674 36.472 77.3514 36.36 76.7434 36.36C76.1354 36.36 75.6074 36.48 75.1594 36.72C74.7114 36.952 74.3634 37.284 74.1154 37.716C73.8754 38.14 73.7554 38.648 73.7554 39.24C73.7554 39.824 73.8754 40.332 74.1154 40.764C74.3634 41.188 74.7114 41.52 75.1594 41.76C75.6074 42 76.1314 42.12 76.7314 42.12ZM81.0596 40.092L80.3036 41.064C80.5116 41.264 80.7436 41.452 80.9996 41.628C81.2636 41.796 81.5556 41.932 81.8756 42.036C82.2036 42.14 82.5636 42.192 82.9556 42.192C83.5876 42.192 84.0836 42.04 84.4436 41.736C84.8036 41.424 84.9836 40.992 84.9836 40.44C84.9836 40.104 84.9076 39.832 84.7556 39.624C84.6036 39.416 84.3996 39.244 84.1436 39.108C83.8956 38.964 83.6236 38.836 83.3276 38.724C83.0876 38.62 82.8716 38.532 82.6796 38.46C82.4956 38.388 82.3516 38.308 82.2476 38.22C82.1516 38.124 82.1036 38.016 82.1036 37.896C82.1036 37.76 82.1516 37.66 82.2476 37.596C82.3516 37.524 82.4916 37.488 82.6676 37.488C82.9316 37.488 83.1996 37.556 83.4716 37.692C83.7516 37.828 83.9916 38.004 84.1916 38.22L84.8756 37.26C84.6996 37.084 84.4956 36.932 84.2636 36.804C84.0316 36.668 83.7796 36.56 83.5076 36.48C83.2356 36.4 82.9436 36.36 82.6316 36.36C82.2636 36.36 81.9276 36.42 81.6236 36.54C81.3276 36.652 81.0916 36.824 80.9156 37.056C80.7396 37.28 80.6516 37.556 80.6516 37.884C80.6516 38.228 80.7276 38.512 80.8796 38.736C81.0396 38.952 81.2396 39.128 81.4796 39.264C81.7196 39.392 81.9676 39.504 82.2236 39.6C82.4956 39.688 82.7196 39.772 82.8956 39.852C83.0716 39.932 83.2036 40.024 83.2916 40.128C83.3876 40.224 83.4356 40.344 83.4356 40.488C83.4356 40.648 83.3796 40.776 83.2676 40.872C83.1556 40.96 82.9956 41.004 82.7876 41.004C82.6276 41.004 82.4556 40.972 82.2716 40.908C82.0956 40.844 81.9076 40.748 81.7076 40.62C81.5076 40.484 81.2916 40.308 81.0596 40.092ZM85.3491 36.48V37.788H88.7571V36.48H85.3491ZM86.2971 34.56V42H87.7971V34.56H86.2971Z" fill="white"/>
<path opacity="0.6" d="M114.216 37.908C114.848 37.908 115.412 37.824 115.908 37.656C116.404 37.488 116.796 37.244 117.084 36.924C117.372 36.596 117.516 36.204 117.516 35.748C117.516 35.324 117.408 34.94 117.192 34.596C116.976 34.252 116.66 33.976 116.244 33.768C115.836 33.56 115.34 33.456 114.756 33.456C114.204 33.456 113.72 33.564 113.304 33.78C112.888 33.996 112.56 34.292 112.32 34.668C112.088 35.036 111.972 35.46 111.972 35.94H113.568C113.568 35.628 113.68 35.372 113.904 35.172C114.136 34.964 114.42 34.86 114.756 34.86C114.996 34.86 115.192 34.9 115.344 34.98C115.496 35.06 115.612 35.176 115.692 35.328C115.772 35.48 115.812 35.656 115.812 35.856C115.812 36.016 115.772 36.172 115.692 36.324C115.62 36.468 115.516 36.6 115.38 36.72C115.244 36.832 115.076 36.92 114.876 36.984C114.684 37.048 114.464 37.08 114.216 37.08V37.908ZM114.684 42.168C115.308 42.168 115.848 42.068 116.304 41.868C116.768 41.66 117.124 41.372 117.372 41.004C117.628 40.636 117.756 40.212 117.756 39.732C117.756 39.308 117.668 38.948 117.492 38.652C117.316 38.348 117.068 38.1 116.748 37.908C116.428 37.708 116.052 37.564 115.62 37.476C115.196 37.388 114.728 37.344 114.216 37.344V38.256C114.512 38.256 114.772 38.288 114.996 38.352C115.228 38.408 115.42 38.492 115.572 38.604C115.732 38.716 115.852 38.856 115.932 39.024C116.012 39.184 116.052 39.36 116.052 39.552C116.052 39.816 115.996 40.036 115.884 40.212C115.772 40.388 115.616 40.524 115.416 40.62C115.224 40.708 114.996 40.752 114.732 40.752C114.476 40.752 114.24 40.704 114.024 40.608C113.808 40.504 113.636 40.356 113.508 40.164C113.38 39.972 113.316 39.74 113.316 39.468H111.612C111.612 39.828 111.684 40.172 111.828 40.5C111.972 40.82 112.176 41.108 112.44 41.364C112.704 41.612 113.024 41.808 113.4 41.952C113.776 42.096 114.204 42.168 114.684 42.168ZM119.532 40.68L118.476 43.788L119.628 44.064L121.08 41.064L119.532 40.68ZM123.964 37.8C123.964 37.376 124.004 36.992 124.084 36.648C124.164 36.296 124.28 35.996 124.432 35.748C124.584 35.492 124.764 35.296 124.972 35.16C125.18 35.024 125.412 34.956 125.668 34.956C125.932 34.956 126.168 35.024 126.376 35.16C126.584 35.296 126.764 35.492 126.916 35.748C127.068 35.996 127.184 36.296 127.264 36.648C127.344 36.992 127.384 37.376 127.384 37.8C127.384 38.224 127.344 38.612 127.264 38.964C127.184 39.308 127.068 39.608 126.916 39.864C126.764 40.112 126.584 40.304 126.376 40.44C126.168 40.576 125.932 40.644 125.668 40.644C125.412 40.644 125.18 40.576 124.972 40.44C124.764 40.304 124.584 40.112 124.432 39.864C124.28 39.608 124.164 39.308 124.084 38.964C124.004 38.612 123.964 38.224 123.964 37.8ZM122.296 37.8C122.296 38.688 122.436 39.456 122.716 40.104C123.004 40.752 123.4 41.256 123.904 41.616C124.416 41.968 125.004 42.144 125.668 42.144C126.356 42.144 126.952 41.968 127.456 41.616C127.96 41.256 128.352 40.752 128.632 40.104C128.912 39.456 129.052 38.688 129.052 37.8C129.052 36.912 128.912 36.144 128.632 35.496C128.352 34.848 127.96 34.348 127.456 33.996C126.952 33.636 126.356 33.456 125.668 33.456C125.004 33.456 124.416 33.636 123.904 33.996C123.4 34.348 123.004 34.848 122.716 35.496C122.436 36.144 122.296 36.912 122.296 37.8ZM131.675 37.8C131.675 37.376 131.715 36.992 131.795 36.648C131.875 36.296 131.991 35.996 132.143 35.748C132.295 35.492 132.475 35.296 132.683 35.16C132.891 35.024 133.123 34.956 133.379 34.956C133.643 34.956 133.879 35.024 134.087 35.16C134.295 35.296 134.475 35.492 134.627 35.748C134.779 35.996 134.895 36.296 134.975 36.648C135.055 36.992 135.095 37.376 135.095 37.8C135.095 38.224 135.055 38.612 134.975 38.964C134.895 39.308 134.779 39.608 134.627 39.864C134.475 40.112 134.295 40.304 134.087 40.44C133.879 40.576 133.643 40.644 133.379 40.644C133.123 40.644 132.891 40.576 132.683 40.44C132.475 40.304 132.295 40.112 132.143 39.864C131.991 39.608 131.875 39.308 131.795 38.964C131.715 38.612 131.675 38.224 131.675 37.8ZM130.007 37.8C130.007 38.688 130.147 39.456 130.427 40.104C130.715 40.752 131.111 41.256 131.615 41.616C132.127 41.968 132.715 42.144 133.379 42.144C134.067 42.144 134.663 41.968 135.167 41.616C135.671 41.256 136.063 40.752 136.343 40.104C136.623 39.456 136.763 38.688 136.763 37.8C136.763 36.912 136.623 36.144 136.343 35.496C136.063 34.848 135.671 34.348 135.167 33.996C134.663 33.636 134.067 33.456 133.379 33.456C132.715 33.456 132.127 33.636 131.615 33.996C131.111 34.348 130.715 34.848 130.427 35.496C130.147 36.144 130.007 36.912 130.007 37.8ZM139.386 37.8C139.386 37.376 139.426 36.992 139.506 36.648C139.586 36.296 139.702 35.996 139.854 35.748C140.006 35.492 140.186 35.296 140.394 35.16C140.602 35.024 140.834 34.956 141.09 34.956C141.354 34.956 141.59 35.024 141.798 35.16C142.006 35.296 142.186 35.492 142.338 35.748C142.49 35.996 142.606 36.296 142.686 36.648C142.766 36.992 142.806 37.376 142.806 37.8C142.806 38.224 142.766 38.612 142.686 38.964C142.606 39.308 142.49 39.608 142.338 39.864C142.186 40.112 142.006 40.304 141.798 40.44C141.59 40.576 141.354 40.644 141.09 40.644C140.834 40.644 140.602 40.576 140.394 40.44C140.186 40.304 140.006 40.112 139.854 39.864C139.702 39.608 139.586 39.308 139.506 38.964C139.426 38.612 139.386 38.224 139.386 37.8ZM137.718 37.8C137.718 38.688 137.858 39.456 138.138 40.104C138.426 40.752 138.822 41.256 139.326 41.616C139.838 41.968 140.426 42.144 141.09 42.144C141.778 42.144 142.374 41.968 142.878 41.616C143.382 41.256 143.774 40.752 144.054 40.104C144.334 39.456 144.474 38.688 144.474 37.8C144.474 36.912 144.334 36.144 144.054 35.496C143.774 34.848 143.382 34.348 142.878 33.996C142.374 33.636 141.778 33.456 141.09 33.456C140.426 33.456 139.838 33.636 139.326 33.996C138.822 34.348 138.426 34.848 138.138 35.496C137.858 36.144 137.718 36.912 137.718 37.8Z" fill="white"/>
<rect y="31" width="22" height="14" rx="2" fill="#6D769D"/>
<path d="M33.888 62.6V67.808L27.912 62.18V71H29.568V65.792L35.544 71.42V62.6H33.888ZM36.853 68.24C36.853 68.808 36.985 69.312 37.249 69.752C37.521 70.184 37.885 70.52 38.341 70.76C38.805 71 39.329 71.12 39.913 71.12C40.497 71.12 41.017 71 41.473 70.76C41.937 70.52 42.301 70.184 42.565 69.752C42.837 69.312 42.973 68.808 42.973 68.24C42.973 67.664 42.837 67.16 42.565 66.728C42.301 66.296 41.937 65.96 41.473 65.72C41.017 65.48 40.497 65.36 39.913 65.36C39.329 65.36 38.805 65.48 38.341 65.72C37.885 65.96 37.521 66.296 37.249 66.728C36.985 67.16 36.853 67.664 36.853 68.24ZM38.437 68.24C38.437 67.928 38.501 67.652 38.629 67.412C38.765 67.172 38.945 66.988 39.169 66.86C39.393 66.732 39.641 66.668 39.913 66.668C40.185 66.668 40.433 66.732 40.657 66.86C40.881 66.988 41.057 67.172 41.185 67.412C41.321 67.652 41.389 67.928 41.389 68.24C41.389 68.552 41.321 68.828 41.185 69.068C41.057 69.3 40.881 69.484 40.657 69.62C40.433 69.748 40.185 69.812 39.913 69.812C39.641 69.812 39.393 69.748 39.169 69.62C38.945 69.484 38.765 69.3 38.629 69.068C38.501 68.828 38.437 68.552 38.437 68.24ZM45.6631 65.48H44.1391V71H45.6631V65.48ZM47.2831 67.1L47.9911 65.78C47.8791 65.636 47.7311 65.528 47.5471 65.456C47.3711 65.384 47.1831 65.348 46.9831 65.348C46.6951 65.348 46.4151 65.452 46.1431 65.66C45.8711 65.86 45.6511 66.132 45.4831 66.476C45.3151 66.812 45.2311 67.2 45.2311 67.64L45.6631 68.072C45.6631 67.808 45.6951 67.584 45.7591 67.4C45.8311 67.208 45.9351 67.06 46.0711 66.956C46.2071 66.852 46.3711 66.8 46.5631 66.8C46.7231 66.8 46.8551 66.828 46.9591 66.884C47.0711 66.932 47.1791 67.004 47.2831 67.1ZM48.1069 65.48V66.788H51.5149V65.48H48.1069ZM49.0549 63.56V71H50.5549V63.56H49.0549ZM53.9022 61.64H52.3422V71H53.9022V61.64ZM55.9062 67.64V71H57.4662V67.412C57.4662 66.956 57.3982 66.572 57.2622 66.26C57.1262 65.94 56.9182 65.7 56.6382 65.54C56.3582 65.38 56.0022 65.3 55.5702 65.3C55.1382 65.3 54.7742 65.404 54.4782 65.612C54.1822 65.82 53.9582 66.1 53.8062 66.452C53.6622 66.804 53.5902 67.2 53.5902 67.64H53.9022C53.9022 67.408 53.9462 67.208 54.0342 67.04C54.1222 66.872 54.2502 66.744 54.4182 66.656C54.5862 66.56 54.7782 66.512 54.9942 66.512C55.3222 66.512 55.5542 66.608 55.6902 66.8C55.8342 66.992 55.9062 67.272 55.9062 67.64ZM64.1201 66.8C64.1201 66.24 64.2441 65.756 64.4921 65.348C64.7481 64.94 65.0801 64.628 65.4881 64.412C65.8961 64.188 66.3401 64.076 66.8201 64.076C67.2201 64.076 67.5761 64.128 67.8881 64.232C68.2001 64.336 68.4801 64.476 68.7281 64.652C68.9841 64.828 69.2041 65.02 69.3881 65.228V63.296C69.0441 63.024 68.6681 62.812 68.2601 62.66C67.8601 62.508 67.3521 62.432 66.7361 62.432C66.0961 62.432 65.5001 62.536 64.9481 62.744C64.4041 62.952 63.9281 63.252 63.5201 63.644C63.1201 64.036 62.8081 64.5 62.5841 65.036C62.3681 65.564 62.2601 66.152 62.2601 66.8C62.2601 67.448 62.3681 68.04 62.5841 68.576C62.8081 69.104 63.1201 69.564 63.5201 69.956C63.9281 70.348 64.4041 70.648 64.9481 70.856C65.5001 71.064 66.0961 71.168 66.7361 71.168C67.3521 71.168 67.8601 71.092 68.2601 70.94C68.6681 70.788 69.0441 70.576 69.3881 70.304V68.372C69.2041 68.58 68.9841 68.772 68.7281 68.948C68.4801 69.124 68.2001 69.264 67.8881 69.368C67.5761 69.472 67.2201 69.524 66.8201 69.524C66.3401 69.524 65.8961 69.416 65.4881 69.2C65.0801 68.976 64.7481 68.66 64.4921 68.252C64.2441 67.836 64.1201 67.352 64.1201 66.8ZM73.5556 71.12C74.2196 71.12 74.7876 70.992 75.2596 70.736C75.7396 70.472 76.1236 70.08 76.4116 69.56L75.0556 69.14C74.8956 69.404 74.6916 69.604 74.4436 69.74C74.2036 69.868 73.9116 69.932 73.5676 69.932C73.2636 69.932 73.0036 69.864 72.7876 69.728C72.5716 69.592 72.4076 69.396 72.2956 69.14C72.1916 68.884 72.1396 68.572 72.1396 68.204C72.1476 67.82 72.2036 67.5 72.3076 67.244C72.4196 66.98 72.5756 66.784 72.7756 66.656C72.9836 66.52 73.2396 66.452 73.5436 66.452C73.7916 66.452 74.0076 66.508 74.1916 66.62C74.3756 66.732 74.5156 66.884 74.6116 67.076C74.7156 67.268 74.7676 67.5 74.7676 67.772C74.7676 67.828 74.7516 67.9 74.7196 67.988C74.6956 68.068 74.6676 68.132 74.6356 68.18L75.0556 67.628H71.4676V68.588H76.4116C76.4196 68.54 76.4236 68.476 76.4236 68.396C76.4316 68.316 76.4356 68.24 76.4356 68.168C76.4356 67.576 76.3236 67.072 76.0996 66.656C75.8756 66.232 75.5476 65.912 75.1156 65.696C74.6916 65.472 74.1756 65.36 73.5676 65.36C72.9596 65.36 72.4316 65.48 71.9836 65.72C71.5356 65.952 71.1876 66.284 70.9396 66.716C70.6996 67.14 70.5796 67.648 70.5796 68.24C70.5796 68.824 70.6996 69.332 70.9396 69.764C71.1876 70.188 71.5356 70.52 71.9836 70.76C72.4316 71 72.9556 71.12 73.5556 71.12ZM81.1718 67.64V71H82.7798V67.472C82.7798 66.808 82.6198 66.292 82.2998 65.924C81.9798 65.548 81.4918 65.36 80.8358 65.36C80.4438 65.36 80.1078 65.444 79.8278 65.612C79.5558 65.772 79.3358 66.008 79.1678 66.32V65.48H77.6078V71H79.1678V67.64C79.1678 67.408 79.2118 67.208 79.2998 67.04C79.3878 66.872 79.5158 66.744 79.6838 66.656C79.8518 66.56 80.0438 66.512 80.2598 66.512C80.5798 66.512 80.8118 66.608 80.9558 66.8C81.0998 66.992 81.1718 67.272 81.1718 67.64ZM83.603 65.48V66.788H87.011V65.48H83.603ZM84.551 63.56V71H86.051V63.56H84.551ZM89.3623 65.48H87.8383V71H89.3623V65.48ZM90.9823 67.1L91.6903 65.78C91.5783 65.636 91.4303 65.528 91.2463 65.456C91.0703 65.384 90.8823 65.348 90.6823 65.348C90.3943 65.348 90.1143 65.452 89.8423 65.66C89.5703 65.86 89.3503 66.132 89.1823 66.476C89.0143 66.812 88.9303 67.2 88.9303 67.64L89.3623 68.072C89.3623 67.808 89.3943 67.584 89.4583 67.4C89.5303 67.208 89.6343 67.06 89.7703 66.956C89.9063 66.852 90.0703 66.8 90.2623 66.8C90.4223 66.8 90.5543 66.828 90.6583 66.884C90.7703 66.932 90.8783 67.004 90.9823 67.1ZM93.6181 69.284C93.6181 69.124 93.6541 68.992 93.7261 68.888C93.7981 68.776 93.9101 68.692 94.0621 68.636C94.2141 68.572 94.4101 68.54 94.6501 68.54C94.9461 68.54 95.2261 68.58 95.4901 68.66C95.7621 68.74 96.0061 68.86 96.2221 69.02V68.3C96.1421 68.204 96.0101 68.104 95.8261 68C95.6421 67.896 95.4141 67.808 95.1421 67.736C94.8781 67.664 94.5701 67.628 94.2181 67.628C93.5301 67.628 92.9981 67.784 92.6221 68.096C92.2461 68.408 92.0581 68.832 92.0581 69.368C92.0581 69.744 92.1461 70.064 92.3221 70.328C92.5061 70.584 92.7461 70.78 93.0421 70.916C93.3381 71.052 93.6581 71.12 94.0021 71.12C94.3381 71.12 94.6581 71.06 94.9621 70.94C95.2741 70.82 95.5261 70.64 95.7181 70.4C95.9181 70.16 96.0181 69.864 96.0181 69.512L95.8261 68.792C95.8261 69.056 95.7661 69.284 95.6461 69.476C95.5261 69.66 95.3701 69.804 95.1781 69.908C94.9861 70.004 94.7701 70.052 94.5301 70.052C94.3621 70.052 94.2061 70.024 94.0621 69.968C93.9261 69.904 93.8181 69.816 93.7381 69.704C93.6581 69.584 93.6181 69.444 93.6181 69.284ZM93.0181 67.04C93.0981 66.984 93.2221 66.916 93.3901 66.836C93.5581 66.756 93.7581 66.688 93.9901 66.632C94.2221 66.576 94.4661 66.548 94.7221 66.548C94.8901 66.548 95.0421 66.564 95.1781 66.596C95.3141 66.628 95.4301 66.68 95.5261 66.752C95.6301 66.824 95.7061 66.916 95.7541 67.028C95.8021 67.132 95.8261 67.26 95.8261 67.412V71H97.3261V67.088C97.3261 66.712 97.2221 66.396 97.0141 66.14C96.8061 65.876 96.5181 65.676 96.1501 65.54C95.7821 65.404 95.3621 65.336 94.8901 65.336C94.3781 65.336 93.9141 65.408 93.4981 65.552C93.0821 65.688 92.7301 65.832 92.4421 65.984L93.0181 67.04ZM98.7719 61.64V71H100.332V61.64H98.7719Z" fill="white"/>
<path opacity="0.6" d="M114.216 66.908C114.848 66.908 115.412 66.824 115.908 66.656C116.404 66.488 116.796 66.244 117.084 65.924C117.372 65.596 117.516 65.204 117.516 64.748C117.516 64.324 117.408 63.94 117.192 63.596C116.976 63.252 116.66 62.976 116.244 62.768C115.836 62.56 115.34 62.456 114.756 62.456C114.204 62.456 113.72 62.564 113.304 62.78C112.888 62.996 112.56 63.292 112.32 63.668C112.088 64.036 111.972 64.46 111.972 64.94H113.568C113.568 64.628 113.68 64.372 113.904 64.172C114.136 63.964 114.42 63.86 114.756 63.86C114.996 63.86 115.192 63.9 115.344 63.98C115.496 64.06 115.612 64.176 115.692 64.328C115.772 64.48 115.812 64.656 115.812 64.856C115.812 65.016 115.772 65.172 115.692 65.324C115.62 65.468 115.516 65.6 115.38 65.72C115.244 65.832 115.076 65.92 114.876 65.984C114.684 66.048 114.464 66.08 114.216 66.08V66.908ZM114.684 71.168C115.308 71.168 115.848 71.068 116.304 70.868C116.768 70.66 117.124 70.372 117.372 70.004C117.628 69.636 117.756 69.212 117.756 68.732C117.756 68.308 117.668 67.948 117.492 67.652C117.316 67.348 117.068 67.1 116.748 66.908C116.428 66.708 116.052 66.564 115.62 66.476C115.196 66.388 114.728 66.344 114.216 66.344V67.256C114.512 67.256 114.772 67.288 114.996 67.352C115.228 67.408 115.42 67.492 115.572 67.604C115.732 67.716 115.852 67.856 115.932 68.024C116.012 68.184 116.052 68.36 116.052 68.552C116.052 68.816 115.996 69.036 115.884 69.212C115.772 69.388 115.616 69.524 115.416 69.62C115.224 69.708 114.996 69.752 114.732 69.752C114.476 69.752 114.24 69.704 114.024 69.608C113.808 69.504 113.636 69.356 113.508 69.164C113.38 68.972 113.316 68.74 113.316 68.468H111.612C111.612 68.828 111.684 69.172 111.828 69.5C111.972 69.82 112.176 70.108 112.44 70.364C112.704 70.612 113.024 70.808 113.4 70.952C113.776 71.096 114.204 71.168 114.684 71.168ZM119.532 69.68L118.476 72.788L119.628 73.064L121.08 70.064L119.532 69.68ZM123.964 66.8C123.964 66.376 124.004 65.992 124.084 65.648C124.164 65.296 124.28 64.996 124.432 64.748C124.584 64.492 124.764 64.296 124.972 64.16C125.18 64.024 125.412 63.956 125.668 63.956C125.932 63.956 126.168 64.024 126.376 64.16C126.584 64.296 126.764 64.492 126.916 64.748C127.068 64.996 127.184 65.296 127.264 65.648C127.344 65.992 127.384 66.376 127.384 66.8C127.384 67.224 127.344 67.612 127.264 67.964C127.184 68.308 127.068 68.608 126.916 68.864C126.764 69.112 126.584 69.304 126.376 69.44C126.168 69.576 125.932 69.644 125.668 69.644C125.412 69.644 125.18 69.576 124.972 69.44C124.764 69.304 124.584 69.112 124.432 68.864C124.28 68.608 124.164 68.308 124.084 67.964C124.004 67.612 123.964 67.224 123.964 66.8ZM122.296 66.8C122.296 67.688 122.436 68.456 122.716 69.104C123.004 69.752 123.4 70.256 123.904 70.616C124.416 70.968 125.004 71.144 125.668 71.144C126.356 71.144 126.952 70.968 127.456 70.616C127.96 70.256 128.352 69.752 128.632 69.104C128.912 68.456 129.052 67.688 129.052 66.8C129.052 65.912 128.912 65.144 128.632 64.496C128.352 63.848 127.96 63.348 127.456 62.996C126.952 62.636 126.356 62.456 125.668 62.456C125.004 62.456 124.416 62.636 123.904 62.996C123.4 63.348 123.004 63.848 122.716 64.496C122.436 65.144 122.296 65.912 122.296 66.8ZM131.675 66.8C131.675 66.376 131.715 65.992 131.795 65.648C131.875 65.296 131.991 64.996 132.143 64.748C132.295 64.492 132.475 64.296 132.683 64.16C132.891 64.024 133.123 63.956 133.379 63.956C133.643 63.956 133.879 64.024 134.087 64.16C134.295 64.296 134.475 64.492 134.627 64.748C134.779 64.996 134.895 65.296 134.975 65.648C135.055 65.992 135.095 66.376 135.095 66.8C135.095 67.224 135.055 67.612 134.975 67.964C134.895 68.308 134.779 68.608 134.627 68.864C134.475 69.112 134.295 69.304 134.087 69.44C133.879 69.576 133.643 69.644 133.379 69.644C133.123 69.644 132.891 69.576 132.683 69.44C132.475 69.304 132.295 69.112 132.143 68.864C131.991 68.608 131.875 68.308 131.795 67.964C131.715 67.612 131.675 67.224 131.675 66.8ZM130.007 66.8C130.007 67.688 130.147 68.456 130.427 69.104C130.715 69.752 131.111 70.256 131.615 70.616C132.127 70.968 132.715 71.144 133.379 71.144C134.067 71.144 134.663 70.968 135.167 70.616C135.671 70.256 136.063 69.752 136.343 69.104C136.623 68.456 136.763 67.688 136.763 66.8C136.763 65.912 136.623 65.144 136.343 64.496C136.063 63.848 135.671 63.348 135.167 62.996C134.663 62.636 134.067 62.456 133.379 62.456C132.715 62.456 132.127 62.636 131.615 62.996C131.111 63.348 130.715 63.848 130.427 64.496C130.147 65.144 130.007 65.912 130.007 66.8ZM139.386 66.8C139.386 66.376 139.426 65.992 139.506 65.648C139.586 65.296 139.702 64.996 139.854 64.748C140.006 64.492 140.186 64.296 140.394 64.16C140.602 64.024 140.834 63.956 141.09 63.956C141.354 63.956 141.59 64.024 141.798 64.16C142.006 64.296 142.186 64.492 142.338 64.748C142.49 64.996 142.606 65.296 142.686 65.648C142.766 65.992 142.806 66.376 142.806 66.8C142.806 67.224 142.766 67.612 142.686 67.964C142.606 68.308 142.49 68.608 142.338 68.864C142.186 69.112 142.006 69.304 141.798 69.44C141.59 69.576 141.354 69.644 141.09 69.644C140.834 69.644 140.602 69.576 140.394 69.44C140.186 69.304 140.006 69.112 139.854 68.864C139.702 68.608 139.586 68.308 139.506 67.964C139.426 67.612 139.386 67.224 139.386 66.8ZM137.718 66.8C137.718 67.688 137.858 68.456 138.138 69.104C138.426 69.752 138.822 70.256 139.326 70.616C139.838 70.968 140.426 71.144 141.09 71.144C141.778 71.144 142.374 70.968 142.878 70.616C143.382 70.256 143.774 69.752 144.054 69.104C144.334 68.456 144.474 67.688 144.474 66.8C144.474 65.912 144.334 65.144 144.054 64.496C143.774 63.848 143.382 63.348 142.878 62.996C142.374 62.636 141.778 62.456 141.09 62.456C140.426 62.456 139.838 62.636 139.326 62.996C138.822 63.348 138.426 63.848 138.138 64.496C137.858 65.144 137.718 65.912 137.718 66.8Z" fill="white"/>
<rect y="60" width="22" height="14" rx="2" fill="#A163BE"/>
<path d="M28.644 97.18L27.42 98.044C27.604 98.436 27.86 98.8 28.188 99.136C28.516 99.472 28.9 99.74 29.34 99.94C29.788 100.132 30.268 100.228 30.78 100.228C31.164 100.228 31.528 100.168 31.872 100.048C32.224 99.936 32.54 99.772 32.82 99.556C33.1 99.332 33.32 99.06 33.48 98.74C33.64 98.42 33.72 98.056 33.72 97.648C33.72 97.288 33.66 96.972 33.54 96.7C33.428 96.42 33.268 96.18 33.06 95.98C32.86 95.772 32.632 95.596 32.376 95.452C32.128 95.308 31.868 95.188 31.596 95.092C31.172 94.948 30.82 94.808 30.54 94.672C30.26 94.528 30.052 94.38 29.916 94.228C29.78 94.068 29.712 93.884 29.712 93.676C29.712 93.468 29.796 93.288 29.964 93.136C30.132 92.976 30.384 92.896 30.72 92.896C30.976 92.896 31.204 92.948 31.404 93.052C31.604 93.148 31.78 93.28 31.932 93.448C32.092 93.608 32.228 93.788 32.34 93.988L33.684 93.244C33.54 92.948 33.336 92.664 33.072 92.392C32.816 92.112 32.492 91.884 32.1 91.708C31.716 91.524 31.256 91.432 30.72 91.432C30.2 91.432 29.728 91.528 29.304 91.72C28.888 91.904 28.556 92.172 28.308 92.524C28.068 92.868 27.948 93.28 27.948 93.76C27.948 94.16 28.024 94.504 28.176 94.792C28.328 95.072 28.52 95.312 28.752 95.512C28.984 95.704 29.228 95.864 29.484 95.992C29.748 96.112 29.98 96.208 30.18 96.28C30.556 96.424 30.872 96.56 31.128 96.688C31.392 96.808 31.588 96.948 31.716 97.108C31.852 97.268 31.92 97.48 31.92 97.744C31.92 98.048 31.812 98.288 31.596 98.464C31.38 98.64 31.1 98.728 30.756 98.728C30.46 98.728 30.184 98.664 29.928 98.536C29.672 98.408 29.436 98.228 29.22 97.996C29.012 97.764 28.82 97.492 28.644 97.18ZM34.603 97.24C34.603 97.808 34.735 98.312 34.999 98.752C35.271 99.184 35.635 99.52 36.091 99.76C36.555 100 37.079 100.12 37.663 100.12C38.247 100.12 38.767 100 39.223 99.76C39.687 99.52 40.051 99.184 40.315 98.752C40.587 98.312 40.723 97.808 40.723 97.24C40.723 96.664 40.587 96.16 40.315 95.728C40.051 95.296 39.687 94.96 39.223 94.72C38.767 94.48 38.247 94.36 37.663 94.36C37.079 94.36 36.555 94.48 36.091 94.72C35.635 94.96 35.271 95.296 34.999 95.728C34.735 96.16 34.603 96.664 34.603 97.24ZM36.187 97.24C36.187 96.928 36.251 96.652 36.379 96.412C36.515 96.172 36.695 95.988 36.919 95.86C37.143 95.732 37.391 95.668 37.663 95.668C37.935 95.668 38.183 95.732 38.407 95.86C38.631 95.988 38.807 96.172 38.935 96.412C39.071 96.652 39.139 96.928 39.139 97.24C39.139 97.552 39.071 97.828 38.935 98.068C38.807 98.3 38.631 98.484 38.407 98.62C38.183 98.748 37.935 98.812 37.663 98.812C37.391 98.812 37.143 98.748 36.919 98.62C36.695 98.484 36.515 98.3 36.379 98.068C36.251 97.828 36.187 97.552 36.187 97.24ZM43.4971 97.84V94.48H41.8891V98.008C41.8891 98.664 42.0491 99.18 42.3691 99.556C42.6971 99.932 43.1891 100.12 43.8451 100.12C44.2371 100.12 44.5691 100.04 44.8411 99.88C45.1131 99.712 45.3371 99.472 45.5131 99.16V100H47.0611V94.48H45.5131V97.84C45.5131 98.072 45.4651 98.272 45.3691 98.44C45.2811 98.608 45.1531 98.74 44.9851 98.836C44.8251 98.924 44.6331 98.968 44.4091 98.968C44.0891 98.968 43.8571 98.872 43.7131 98.68C43.5691 98.48 43.4971 98.2 43.4971 97.84ZM47.8842 94.48V95.788H51.2922V94.48H47.8842ZM48.8322 92.56V100H50.3322V92.56H48.8322ZM53.6796 90.64H52.1196V100H53.6796V90.64ZM55.6836 96.64V100H57.2436V96.412C57.2436 95.956 57.1756 95.572 57.0396 95.26C56.9036 94.94 56.6956 94.7 56.4156 94.54C56.1356 94.38 55.7796 94.3 55.3476 94.3C54.9156 94.3 54.5516 94.404 54.2556 94.612C53.9596 94.82 53.7356 95.1 53.5836 95.452C53.4396 95.804 53.3676 96.2 53.3676 96.64H53.6796C53.6796 96.408 53.7236 96.208 53.8116 96.04C53.8996 95.872 54.0276 95.744 54.1956 95.656C54.3636 95.56 54.5556 95.512 54.7716 95.512C55.0996 95.512 55.3316 95.608 55.4676 95.8C55.6116 95.992 55.6836 96.272 55.6836 96.64ZM70.2215 96.82L67.8575 91.18L65.5175 96.82L63.6935 91.6H61.6775L65.2055 100.468L67.8575 94.948L70.4975 100.468L74.0375 91.6H72.0215L70.2215 96.82ZM76.5087 100.12C77.1727 100.12 77.7407 99.992 78.2127 99.736C78.6927 99.472 79.0767 99.08 79.3647 98.56L78.0087 98.14C77.8487 98.404 77.6447 98.604 77.3967 98.74C77.1567 98.868 76.8647 98.932 76.5207 98.932C76.2167 98.932 75.9567 98.864 75.7407 98.728C75.5247 98.592 75.3607 98.396 75.2487 98.14C75.1447 97.884 75.0927 97.572 75.0927 97.204C75.1007 96.82 75.1567 96.5 75.2607 96.244C75.3727 95.98 75.5287 95.784 75.7287 95.656C75.9367 95.52 76.1927 95.452 76.4967 95.452C76.7447 95.452 76.9607 95.508 77.1447 95.62C77.3287 95.732 77.4687 95.884 77.5647 96.076C77.6687 96.268 77.7207 96.5 77.7207 96.772C77.7207 96.828 77.7047 96.9 77.6727 96.988C77.6487 97.068 77.6207 97.132 77.5887 97.18L78.0087 96.628H74.4207V97.588H79.3647C79.3727 97.54 79.3767 97.476 79.3767 97.396C79.3847 97.316 79.3887 97.24 79.3887 97.168C79.3887 96.576 79.2767 96.072 79.0527 95.656C78.8287 95.232 78.5007 94.912 78.0687 94.696C77.6447 94.472 77.1287 94.36 76.5207 94.36C75.9127 94.36 75.3847 94.48 74.9367 94.72C74.4887 94.952 74.1407 95.284 73.8927 95.716C73.6527 96.14 73.5327 96.648 73.5327 97.24C73.5327 97.824 73.6527 98.332 73.8927 98.764C74.1407 99.188 74.4887 99.52 74.9367 99.76C75.3847 100 75.9087 100.12 76.5087 100.12ZM80.837 98.092L80.081 99.064C80.289 99.264 80.521 99.452 80.777 99.628C81.041 99.796 81.333 99.932 81.653 100.036C81.981 100.14 82.341 100.192 82.733 100.192C83.365 100.192 83.861 100.04 84.221 99.736C84.581 99.424 84.761 98.992 84.761 98.44C84.761 98.104 84.685 97.832 84.533 97.624C84.381 97.416 84.177 97.244 83.921 97.108C83.673 96.964 83.401 96.836 83.105 96.724C82.865 96.62 82.649 96.532 82.457 96.46C82.273 96.388 82.129 96.308 82.025 96.22C81.929 96.124 81.881 96.016 81.881 95.896C81.881 95.76 81.929 95.66 82.025 95.596C82.129 95.524 82.269 95.488 82.445 95.488C82.709 95.488 82.977 95.556 83.249 95.692C83.529 95.828 83.769 96.004 83.969 96.22L84.653 95.26C84.477 95.084 84.273 94.932 84.041 94.804C83.809 94.668 83.557 94.56 83.285 94.48C83.013 94.4 82.721 94.36 82.409 94.36C82.041 94.36 81.705 94.42 81.401 94.54C81.105 94.652 80.869 94.824 80.693 95.056C80.517 95.28 80.429 95.556 80.429 95.884C80.429 96.228 80.505 96.512 80.657 96.736C80.817 96.952 81.017 97.128 81.257 97.264C81.497 97.392 81.745 97.504 82.001 97.6C82.273 97.688 82.497 97.772 82.673 97.852C82.849 97.932 82.981 98.024 83.069 98.128C83.165 98.224 83.213 98.344 83.213 98.488C83.213 98.648 83.157 98.776 83.045 98.872C82.933 98.96 82.773 99.004 82.565 99.004C82.405 99.004 82.233 98.972 82.049 98.908C81.873 98.844 81.685 98.748 81.485 98.62C81.285 98.484 81.069 98.308 80.837 98.092ZM85.1264 94.48V95.788H88.5344V94.48H85.1264ZM86.0744 92.56V100H87.5744V92.56H86.0744Z" fill="white"/>
<path opacity="0.6" d="M114.216 95.908C114.848 95.908 115.412 95.824 115.908 95.656C116.404 95.488 116.796 95.244 117.084 94.924C117.372 94.596 117.516 94.204 117.516 93.748C117.516 93.324 117.408 92.94 117.192 92.596C116.976 92.252 116.66 91.976 116.244 91.768C115.836 91.56 115.34 91.456 114.756 91.456C114.204 91.456 113.72 91.564 113.304 91.78C112.888 91.996 112.56 92.292 112.32 92.668C112.088 93.036 111.972 93.46 111.972 93.94H113.568C113.568 93.628 113.68 93.372 113.904 93.172C114.136 92.964 114.42 92.86 114.756 92.86C114.996 92.86 115.192 92.9 115.344 92.98C115.496 93.06 115.612 93.176 115.692 93.328C115.772 93.48 115.812 93.656 115.812 93.856C115.812 94.016 115.772 94.172 115.692 94.324C115.62 94.468 115.516 94.6 115.38 94.72C115.244 94.832 115.076 94.92 114.876 94.984C114.684 95.048 114.464 95.08 114.216 95.08V95.908ZM114.684 100.168C115.308 100.168 115.848 100.068 116.304 99.868C116.768 99.66 117.124 99.372 117.372 99.004C117.628 98.636 117.756 98.212 117.756 97.732C117.756 97.308 117.668 96.948 117.492 96.652C117.316 96.348 117.068 96.1 116.748 95.908C116.428 95.708 116.052 95.564 115.62 95.476C115.196 95.388 114.728 95.344 114.216 95.344V96.256C114.512 96.256 114.772 96.288 114.996 96.352C115.228 96.408 115.42 96.492 115.572 96.604C115.732 96.716 115.852 96.856 115.932 97.024C116.012 97.184 116.052 97.36 116.052 97.552C116.052 97.816 115.996 98.036 115.884 98.212C115.772 98.388 115.616 98.524 115.416 98.62C115.224 98.708 114.996 98.752 114.732 98.752C114.476 98.752 114.24 98.704 114.024 98.608C113.808 98.504 113.636 98.356 113.508 98.164C113.38 97.972 113.316 97.74 113.316 97.468H111.612C111.612 97.828 111.684 98.172 111.828 98.5C111.972 98.82 112.176 99.108 112.44 99.364C112.704 99.612 113.024 99.808 113.4 99.952C113.776 100.096 114.204 100.168 114.684 100.168ZM119.532 98.68L118.476 101.788L119.628 102.064L121.08 99.064L119.532 98.68ZM123.964 95.8C123.964 95.376 124.004 94.992 124.084 94.648C124.164 94.296 124.28 93.996 124.432 93.748C124.584 93.492 124.764 93.296 124.972 93.16C125.18 93.024 125.412 92.956 125.668 92.956C125.932 92.956 126.168 93.024 126.376 93.16C126.584 93.296 126.764 93.492 126.916 93.748C127.068 93.996 127.184 94.296 127.264 94.648C127.344 94.992 127.384 95.376 127.384 95.8C127.384 96.224 127.344 96.612 127.264 96.964C127.184 97.308 127.068 97.608 126.916 97.864C126.764 98.112 126.584 98.304 126.376 98.44C126.168 98.576 125.932 98.644 125.668 98.644C125.412 98.644 125.18 98.576 124.972 98.44C124.764 98.304 124.584 98.112 124.432 97.864C124.28 97.608 124.164 97.308 124.084 96.964C124.004 96.612 123.964 96.224 123.964 95.8ZM122.296 95.8C122.296 96.688 122.436 97.456 122.716 98.104C123.004 98.752 123.4 99.256 123.904 99.616C124.416 99.968 125.004 100.144 125.668 100.144C126.356 100.144 126.952 99.968 127.456 99.616C127.96 99.256 128.352 98.752 128.632 98.104C128.912 97.456 129.052 96.688 129.052 95.8C129.052 94.912 128.912 94.144 128.632 93.496C128.352 92.848 127.96 92.348 127.456 91.996C126.952 91.636 126.356 91.456 125.668 91.456C125.004 91.456 124.416 91.636 123.904 91.996C123.4 92.348 123.004 92.848 122.716 93.496C122.436 94.144 122.296 94.912 122.296 95.8ZM131.675 95.8C131.675 95.376 131.715 94.992 131.795 94.648C131.875 94.296 131.991 93.996 132.143 93.748C132.295 93.492 132.475 93.296 132.683 93.16C132.891 93.024 133.123 92.956 133.379 92.956C133.643 92.956 133.879 93.024 134.087 93.16C134.295 93.296 134.475 93.492 134.627 93.748C134.779 93.996 134.895 94.296 134.975 94.648C135.055 94.992 135.095 95.376 135.095 95.8C135.095 96.224 135.055 96.612 134.975 96.964C134.895 97.308 134.779 97.608 134.627 97.864C134.475 98.112 134.295 98.304 134.087 98.44C133.879 98.576 133.643 98.644 133.379 98.644C133.123 98.644 132.891 98.576 132.683 98.44C132.475 98.304 132.295 98.112 132.143 97.864C131.991 97.608 131.875 97.308 131.795 96.964C131.715 96.612 131.675 96.224 131.675 95.8ZM130.007 95.8C130.007 96.688 130.147 97.456 130.427 98.104C130.715 98.752 131.111 99.256 131.615 99.616C132.127 99.968 132.715 100.144 133.379 100.144C134.067 100.144 134.663 99.968 135.167 99.616C135.671 99.256 136.063 98.752 136.343 98.104C136.623 97.456 136.763 96.688 136.763 95.8C136.763 94.912 136.623 94.144 136.343 93.496C136.063 92.848 135.671 92.348 135.167 91.996C134.663 91.636 134.067 91.456 133.379 91.456C132.715 91.456 132.127 91.636 131.615 91.996C131.111 92.348 130.715 92.848 130.427 93.496C130.147 94.144 130.007 94.912 130.007 95.8ZM139.386 95.8C139.386 95.376 139.426 94.992 139.506 94.648C139.586 94.296 139.702 93.996 139.854 93.748C140.006 93.492 140.186 93.296 140.394 93.16C140.602 93.024 140.834 92.956 141.09 92.956C141.354 92.956 141.59 93.024 141.798 93.16C142.006 93.296 142.186 93.492 142.338 93.748C142.49 93.996 142.606 94.296 142.686 94.648C142.766 94.992 142.806 95.376 142.806 95.8C142.806 96.224 142.766 96.612 142.686 96.964C142.606 97.308 142.49 97.608 142.338 97.864C142.186 98.112 142.006 98.304 141.798 98.44C141.59 98.576 141.354 98.644 141.09 98.644C140.834 98.644 140.602 98.576 140.394 98.44C140.186 98.304 140.006 98.112 139.854 97.864C139.702 97.608 139.586 97.308 139.506 96.964C139.426 96.612 139.386 96.224 139.386 95.8ZM137.718 95.8C137.718 96.688 137.858 97.456 138.138 98.104C138.426 98.752 138.822 99.256 139.326 99.616C139.838 99.968 140.426 100.144 141.09 100.144C141.778 100.144 142.374 99.968 142.878 99.616C143.382 99.256 143.774 98.752 144.054 98.104C144.334 97.456 144.474 96.688 144.474 95.8C144.474 94.912 144.334 94.144 144.054 93.496C143.774 92.848 143.382 92.348 142.878 91.996C142.374 91.636 141.778 91.456 141.09 91.456C140.426 91.456 139.838 91.636 139.326 91.996C138.822 92.348 138.426 92.848 138.138 93.496C137.858 94.144 137.718 94.912 137.718 95.8Z" fill="white"/>
<rect y="89" width="22" height="14" rx="2" fill="#E30325"/>
<path d="M28.644 126.18L27.42 127.044C27.604 127.436 27.86 127.8 28.188 128.136C28.516 128.472 28.9 128.74 29.34 128.94C29.788 129.132 30.268 129.228 30.78 129.228C31.164 129.228 31.528 129.168 31.872 129.048C32.224 128.936 32.54 128.772 32.82 128.556C33.1 128.332 33.32 128.06 33.48 127.74C33.64 127.42 33.72 127.056 33.72 126.648C33.72 126.288 33.66 125.972 33.54 125.7C33.428 125.42 33.268 125.18 33.06 124.98C32.86 124.772 32.632 124.596 32.376 124.452C32.128 124.308 31.868 124.188 31.596 124.092C31.172 123.948 30.82 123.808 30.54 123.672C30.26 123.528 30.052 123.38 29.916 123.228C29.78 123.068 29.712 122.884 29.712 122.676C29.712 122.468 29.796 122.288 29.964 122.136C30.132 121.976 30.384 121.896 30.72 121.896C30.976 121.896 31.204 121.948 31.404 122.052C31.604 122.148 31.78 122.28 31.932 122.448C32.092 122.608 32.228 122.788 32.34 122.988L33.684 122.244C33.54 121.948 33.336 121.664 33.072 121.392C32.816 121.112 32.492 120.884 32.1 120.708C31.716 120.524 31.256 120.432 30.72 120.432C30.2 120.432 29.728 120.528 29.304 120.72C28.888 120.904 28.556 121.172 28.308 121.524C28.068 121.868 27.948 122.28 27.948 122.76C27.948 123.16 28.024 123.504 28.176 123.792C28.328 124.072 28.52 124.312 28.752 124.512C28.984 124.704 29.228 124.864 29.484 124.992C29.748 125.112 29.98 125.208 30.18 125.28C30.556 125.424 30.872 125.56 31.128 125.688C31.392 125.808 31.588 125.948 31.716 126.108C31.852 126.268 31.92 126.48 31.92 126.744C31.92 127.048 31.812 127.288 31.596 127.464C31.38 127.64 31.1 127.728 30.756 127.728C30.46 127.728 30.184 127.664 29.928 127.536C29.672 127.408 29.436 127.228 29.22 126.996C29.012 126.764 28.82 126.492 28.644 126.18ZM34.603 126.24C34.603 126.808 34.735 127.312 34.999 127.752C35.271 128.184 35.635 128.52 36.091 128.76C36.555 129 37.079 129.12 37.663 129.12C38.247 129.12 38.767 129 39.223 128.76C39.687 128.52 40.051 128.184 40.315 127.752C40.587 127.312 40.723 126.808 40.723 126.24C40.723 125.664 40.587 125.16 40.315 124.728C40.051 124.296 39.687 123.96 39.223 123.72C38.767 123.48 38.247 123.36 37.663 123.36C37.079 123.36 36.555 123.48 36.091 123.72C35.635 123.96 35.271 124.296 34.999 124.728C34.735 125.16 34.603 125.664 34.603 126.24ZM36.187 126.24C36.187 125.928 36.251 125.652 36.379 125.412C36.515 125.172 36.695 124.988 36.919 124.86C37.143 124.732 37.391 124.668 37.663 124.668C37.935 124.668 38.183 124.732 38.407 124.86C38.631 124.988 38.807 125.172 38.935 125.412C39.071 125.652 39.139 125.928 39.139 126.24C39.139 126.552 39.071 126.828 38.935 127.068C38.807 127.3 38.631 127.484 38.407 127.62C38.183 127.748 37.935 127.812 37.663 127.812C37.391 127.812 37.143 127.748 36.919 127.62C36.695 127.484 36.515 127.3 36.379 127.068C36.251 126.828 36.187 126.552 36.187 126.24ZM43.4971 126.84V123.48H41.8891V127.008C41.8891 127.664 42.0491 128.18 42.3691 128.556C42.6971 128.932 43.1891 129.12 43.8451 129.12C44.2371 129.12 44.5691 129.04 44.8411 128.88C45.1131 128.712 45.3371 128.472 45.5131 128.16V129H47.0611V123.48H45.5131V126.84C45.5131 127.072 45.4651 127.272 45.3691 127.44C45.2811 127.608 45.1531 127.74 44.9851 127.836C44.8251 127.924 44.6331 127.968 44.4091 127.968C44.0891 127.968 43.8571 127.872 43.7131 127.68C43.5691 127.48 43.4971 127.2 43.4971 126.84ZM47.8842 123.48V124.788H51.2922V123.48H47.8842ZM48.8322 121.56V129H50.3322V121.56H48.8322ZM53.6796 119.64H52.1196V129H53.6796V119.64ZM55.6836 125.64V129H57.2436V125.412C57.2436 124.956 57.1756 124.572 57.0396 124.26C56.9036 123.94 56.6956 123.7 56.4156 123.54C56.1356 123.38 55.7796 123.3 55.3476 123.3C54.9156 123.3 54.5516 123.404 54.2556 123.612C53.9596 123.82 53.7356 124.1 53.5836 124.452C53.4396 124.804 53.3676 125.2 53.3676 125.64H53.6796C53.6796 125.408 53.7236 125.208 53.8116 125.04C53.8996 124.872 54.0276 124.744 54.1956 124.656C54.3636 124.56 54.5556 124.512 54.7716 124.512C55.0996 124.512 55.3316 124.608 55.4676 124.8C55.6116 124.992 55.6836 125.272 55.6836 125.64ZM63.2495 126.18L62.0255 127.044C62.2095 127.436 62.4655 127.8 62.7935 128.136C63.1215 128.472 63.5055 128.74 63.9455 128.94C64.3935 129.132 64.8735 129.228 65.3855 129.228C65.7695 129.228 66.1335 129.168 66.4775 129.048C66.8295 128.936 67.1455 128.772 67.4255 128.556C67.7055 128.332 67.9255 128.06 68.0855 127.74C68.2455 127.42 68.3255 127.056 68.3255 126.648C68.3255 126.288 68.2655 125.972 68.1455 125.7C68.0335 125.42 67.8735 125.18 67.6655 124.98C67.4655 124.772 67.2375 124.596 66.9815 124.452C66.7335 124.308 66.4735 124.188 66.2015 124.092C65.7775 123.948 65.4255 123.808 65.1455 123.672C64.8655 123.528 64.6575 123.38 64.5215 123.228C64.3855 123.068 64.3175 122.884 64.3175 122.676C64.3175 122.468 64.4015 122.288 64.5695 122.136C64.7375 121.976 64.9895 121.896 65.3255 121.896C65.5815 121.896 65.8095 121.948 66.0095 122.052C66.2095 122.148 66.3855 122.28 66.5375 122.448C66.6975 122.608 66.8335 122.788 66.9455 122.988L68.2895 122.244C68.1455 121.948 67.9415 121.664 67.6775 121.392C67.4215 121.112 67.0975 120.884 66.7055 120.708C66.3215 120.524 65.8615 120.432 65.3255 120.432C64.8055 120.432 64.3335 120.528 63.9095 120.72C63.4935 120.904 63.1615 121.172 62.9135 121.524C62.6735 121.868 62.5535 122.28 62.5535 122.76C62.5535 123.16 62.6295 123.504 62.7815 123.792C62.9335 124.072 63.1255 124.312 63.3575 124.512C63.5895 124.704 63.8335 124.864 64.0895 124.992C64.3535 125.112 64.5855 125.208 64.7855 125.28C65.1615 125.424 65.4775 125.56 65.7335 125.688C65.9975 125.808 66.1935 125.948 66.3215 126.108C66.4575 126.268 66.5255 126.48 66.5255 126.744C66.5255 127.048 66.4175 127.288 66.2015 127.464C65.9855 127.64 65.7055 127.728 65.3615 127.728C65.0655 127.728 64.7895 127.664 64.5335 127.536C64.2775 127.408 64.0415 127.228 63.8255 126.996C63.6175 126.764 63.4255 126.492 63.2495 126.18ZM69.2085 126.24C69.2085 126.808 69.3405 127.312 69.6045 127.752C69.8765 128.184 70.2405 128.52 70.6965 128.76C71.1605 129 71.6845 129.12 72.2685 129.12C72.8525 129.12 73.3725 129 73.8285 128.76C74.2925 128.52 74.6565 128.184 74.9205 127.752C75.1925 127.312 75.3285 126.808 75.3285 126.24C75.3285 125.664 75.1925 125.16 74.9205 124.728C74.6565 124.296 74.2925 123.96 73.8285 123.72C73.3725 123.48 72.8525 123.36 72.2685 123.36C71.6845 123.36 71.1605 123.48 70.6965 123.72C70.2405 123.96 69.8765 124.296 69.6045 124.728C69.3405 125.16 69.2085 125.664 69.2085 126.24ZM70.7925 126.24C70.7925 125.928 70.8565 125.652 70.9845 125.412C71.1205 125.172 71.3005 124.988 71.5245 124.86C71.7485 124.732 71.9965 124.668 72.2685 124.668C72.5405 124.668 72.7885 124.732 73.0125 124.86C73.2365 124.988 73.4125 125.172 73.5405 125.412C73.6765 125.652 73.7445 125.928 73.7445 126.24C73.7445 126.552 73.6765 126.828 73.5405 127.068C73.4125 127.3 73.2365 127.484 73.0125 127.62C72.7885 127.748 72.5405 127.812 72.2685 127.812C71.9965 127.812 71.7485 127.748 71.5245 127.62C71.3005 127.484 71.1205 127.3 70.9845 127.068C70.8565 126.828 70.7925 126.552 70.7925 126.24ZM78.1026 126.84V123.48H76.4946V127.008C76.4946 127.664 76.6546 128.18 76.9746 128.556C77.3026 128.932 77.7946 129.12 78.4506 129.12C78.8426 129.12 79.1746 129.04 79.4466 128.88C79.7186 128.712 79.9426 128.472 80.1186 128.16V129H81.6666V123.48H80.1186V126.84C80.1186 127.072 80.0706 127.272 79.9746 127.44C79.8866 127.608 79.7586 127.74 79.5906 127.836C79.4306 127.924 79.2386 127.968 79.0146 127.968C78.6946 127.968 78.4626 127.872 78.3186 127.68C78.1746 127.48 78.1026 127.2 78.1026 126.84ZM82.4897 123.48V124.788H85.8977V123.48H82.4897ZM83.4377 121.56V129H84.9377V121.56H83.4377ZM88.285 119.64H86.725V129H88.285V119.64ZM90.289 125.64V129H91.849V125.412C91.849 124.956 91.781 124.572 91.645 124.26C91.509 123.94 91.301 123.7 91.021 123.54C90.741 123.38 90.385 123.3 89.953 123.3C89.521 123.3 89.157 123.404 88.861 123.612C88.565 123.82 88.341 124.1 88.189 124.452C88.045 124.804 87.973 125.2 87.973 125.64H88.285C88.285 125.408 88.329 125.208 88.417 125.04C88.505 124.872 88.633 124.744 88.801 124.656C88.969 124.56 89.161 124.512 89.377 124.512C89.705 124.512 89.937 124.608 90.073 124.8C90.217 124.992 90.289 125.272 90.289 125.64Z" fill="white"/>
<path opacity="0.6" d="M114.216 124.908C114.848 124.908 115.412 124.824 115.908 124.656C116.404 124.488 116.796 124.244 117.084 123.924C117.372 123.596 117.516 123.204 117.516 122.748C117.516 122.324 117.408 121.94 117.192 121.596C116.976 121.252 116.66 120.976 116.244 120.768C115.836 120.56 115.34 120.456 114.756 120.456C114.204 120.456 113.72 120.564 113.304 120.78C112.888 120.996 112.56 121.292 112.32 121.668C112.088 122.036 111.972 122.46 111.972 122.94H113.568C113.568 122.628 113.68 122.372 113.904 122.172C114.136 121.964 114.42 121.86 114.756 121.86C114.996 121.86 115.192 121.9 115.344 121.98C115.496 122.06 115.612 122.176 115.692 122.328C115.772 122.48 115.812 122.656 115.812 122.856C115.812 123.016 115.772 123.172 115.692 123.324C115.62 123.468 115.516 123.6 115.38 123.72C115.244 123.832 115.076 123.92 114.876 123.984C114.684 124.048 114.464 124.08 114.216 124.08V124.908ZM114.684 129.168C115.308 129.168 115.848 129.068 116.304 128.868C116.768 128.66 117.124 128.372 117.372 128.004C117.628 127.636 117.756 127.212 117.756 126.732C117.756 126.308 117.668 125.948 117.492 125.652C117.316 125.348 117.068 125.1 116.748 124.908C116.428 124.708 116.052 124.564 115.62 124.476C115.196 124.388 114.728 124.344 114.216 124.344V125.256C114.512 125.256 114.772 125.288 114.996 125.352C115.228 125.408 115.42 125.492 115.572 125.604C115.732 125.716 115.852 125.856 115.932 126.024C116.012 126.184 116.052 126.36 116.052 126.552C116.052 126.816 115.996 127.036 115.884 127.212C115.772 127.388 115.616 127.524 115.416 127.62C115.224 127.708 114.996 127.752 114.732 127.752C114.476 127.752 114.24 127.704 114.024 127.608C113.808 127.504 113.636 127.356 113.508 127.164C113.38 126.972 113.316 126.74 113.316 126.468H111.612C111.612 126.828 111.684 127.172 111.828 127.5C111.972 127.82 112.176 128.108 112.44 128.364C112.704 128.612 113.024 128.808 113.4 128.952C113.776 129.096 114.204 129.168 114.684 129.168ZM119.532 127.68L118.476 130.788L119.628 131.064L121.08 128.064L119.532 127.68ZM123.964 124.8C123.964 124.376 124.004 123.992 124.084 123.648C124.164 123.296 124.28 122.996 124.432 122.748C124.584 122.492 124.764 122.296 124.972 122.16C125.18 122.024 125.412 121.956 125.668 121.956C125.932 121.956 126.168 122.024 126.376 122.16C126.584 122.296 126.764 122.492 126.916 122.748C127.068 122.996 127.184 123.296 127.264 123.648C127.344 123.992 127.384 124.376 127.384 124.8C127.384 125.224 127.344 125.612 127.264 125.964C127.184 126.308 127.068 126.608 126.916 126.864C126.764 127.112 126.584 127.304 126.376 127.44C126.168 127.576 125.932 127.644 125.668 127.644C125.412 127.644 125.18 127.576 124.972 127.44C124.764 127.304 124.584 127.112 124.432 126.864C124.28 126.608 124.164 126.308 124.084 125.964C124.004 125.612 123.964 125.224 123.964 124.8ZM122.296 124.8C122.296 125.688 122.436 126.456 122.716 127.104C123.004 127.752 123.4 128.256 123.904 128.616C124.416 128.968 125.004 129.144 125.668 129.144C126.356 129.144 126.952 128.968 127.456 128.616C127.96 128.256 128.352 127.752 128.632 127.104C128.912 126.456 129.052 125.688 129.052 124.8C129.052 123.912 128.912 123.144 128.632 122.496C128.352 121.848 127.96 121.348 127.456 120.996C126.952 120.636 126.356 120.456 125.668 120.456C125.004 120.456 124.416 120.636 123.904 120.996C123.4 121.348 123.004 121.848 122.716 122.496C122.436 123.144 122.296 123.912 122.296 124.8ZM131.675 124.8C131.675 124.376 131.715 123.992 131.795 123.648C131.875 123.296 131.991 122.996 132.143 122.748C132.295 122.492 132.475 122.296 132.683 122.16C132.891 122.024 133.123 121.956 133.379 121.956C133.643 121.956 133.879 122.024 134.087 122.16C134.295 122.296 134.475 122.492 134.627 122.748C134.779 122.996 134.895 123.296 134.975 123.648C135.055 123.992 135.095 124.376 135.095 124.8C135.095 125.224 135.055 125.612 134.975 125.964C134.895 126.308 134.779 126.608 134.627 126.864C134.475 127.112 134.295 127.304 134.087 127.44C133.879 127.576 133.643 127.644 133.379 127.644C133.123 127.644 132.891 127.576 132.683 127.44C132.475 127.304 132.295 127.112 132.143 126.864C131.991 126.608 131.875 126.308 131.795 125.964C131.715 125.612 131.675 125.224 131.675 124.8ZM130.007 124.8C130.007 125.688 130.147 126.456 130.427 127.104C130.715 127.752 131.111 128.256 131.615 128.616C132.127 128.968 132.715 129.144 133.379 129.144C134.067 129.144 134.663 128.968 135.167 128.616C135.671 128.256 136.063 127.752 136.343 127.104C136.623 126.456 136.763 125.688 136.763 124.8C136.763 123.912 136.623 123.144 136.343 122.496C136.063 121.848 135.671 121.348 135.167 120.996C134.663 120.636 134.067 120.456 133.379 120.456C132.715 120.456 132.127 120.636 131.615 120.996C131.111 121.348 130.715 121.848 130.427 122.496C130.147 123.144 130.007 123.912 130.007 124.8ZM139.386 124.8C139.386 124.376 139.426 123.992 139.506 123.648C139.586 123.296 139.702 122.996 139.854 122.748C140.006 122.492 140.186 122.296 140.394 122.16C140.602 122.024 140.834 121.956 141.09 121.956C141.354 121.956 141.59 122.024 141.798 122.16C142.006 122.296 142.186 122.492 142.338 122.748C142.49 122.996 142.606 123.296 142.686 123.648C142.766 123.992 142.806 124.376 142.806 124.8C142.806 125.224 142.766 125.612 142.686 125.964C142.606 126.308 142.49 126.608 142.338 126.864C142.186 127.112 142.006 127.304 141.798 127.44C141.59 127.576 141.354 127.644 141.09 127.644C140.834 127.644 140.602 127.576 140.394 127.44C140.186 127.304 140.006 127.112 139.854 126.864C139.702 126.608 139.586 126.308 139.506 125.964C139.426 125.612 139.386 125.224 139.386 124.8ZM137.718 124.8C137.718 125.688 137.858 126.456 138.138 127.104C138.426 127.752 138.822 128.256 139.326 128.616C139.838 128.968 140.426 129.144 141.09 129.144C141.778 129.144 142.374 128.968 142.878 128.616C143.382 128.256 143.774 127.752 144.054 127.104C144.334 126.456 144.474 125.688 144.474 124.8C144.474 123.912 144.334 123.144 144.054 122.496C143.774 121.848 143.382 121.348 142.878 120.996C142.374 120.636 141.778 120.456 141.09 120.456C140.426 120.456 139.838 120.636 139.326 120.996C138.822 121.348 138.426 121.848 138.138 122.496C137.858 123.144 137.718 123.912 137.718 124.8Z" fill="white"/>
<rect y="118" width="22" height="14" rx="2" fill="#2249D1"/>
<path d="M28.644 155.18L27.42 156.044C27.604 156.436 27.86 156.8 28.188 157.136C28.516 157.472 28.9 157.74 29.34 157.94C29.788 158.132 30.268 158.228 30.78 158.228C31.164 158.228 31.528 158.168 31.872 158.048C32.224 157.936 32.54 157.772 32.82 157.556C33.1 157.332 33.32 157.06 33.48 156.74C33.64 156.42 33.72 156.056 33.72 155.648C33.72 155.288 33.66 154.972 33.54 154.7C33.428 154.42 33.268 154.18 33.06 153.98C32.86 153.772 32.632 153.596 32.376 153.452C32.128 153.308 31.868 153.188 31.596 153.092C31.172 152.948 30.82 152.808 30.54 152.672C30.26 152.528 30.052 152.38 29.916 152.228C29.78 152.068 29.712 151.884 29.712 151.676C29.712 151.468 29.796 151.288 29.964 151.136C30.132 150.976 30.384 150.896 30.72 150.896C30.976 150.896 31.204 150.948 31.404 151.052C31.604 151.148 31.78 151.28 31.932 151.448C32.092 151.608 32.228 151.788 32.34 151.988L33.684 151.244C33.54 150.948 33.336 150.664 33.072 150.392C32.816 150.112 32.492 149.884 32.1 149.708C31.716 149.524 31.256 149.432 30.72 149.432C30.2 149.432 29.728 149.528 29.304 149.72C28.888 149.904 28.556 150.172 28.308 150.524C28.068 150.868 27.948 151.28 27.948 151.76C27.948 152.16 28.024 152.504 28.176 152.792C28.328 153.072 28.52 153.312 28.752 153.512C28.984 153.704 29.228 153.864 29.484 153.992C29.748 154.112 29.98 154.208 30.18 154.28C30.556 154.424 30.872 154.56 31.128 154.688C31.392 154.808 31.588 154.948 31.716 155.108C31.852 155.268 31.92 155.48 31.92 155.744C31.92 156.048 31.812 156.288 31.596 156.464C31.38 156.64 31.1 156.728 30.756 156.728C30.46 156.728 30.184 156.664 29.928 156.536C29.672 156.408 29.436 156.228 29.22 155.996C29.012 155.764 28.82 155.492 28.644 155.18ZM34.603 155.24C34.603 155.808 34.735 156.312 34.999 156.752C35.271 157.184 35.635 157.52 36.091 157.76C36.555 158 37.079 158.12 37.663 158.12C38.247 158.12 38.767 158 39.223 157.76C39.687 157.52 40.051 157.184 40.315 156.752C40.587 156.312 40.723 155.808 40.723 155.24C40.723 154.664 40.587 154.16 40.315 153.728C40.051 153.296 39.687 152.96 39.223 152.72C38.767 152.48 38.247 152.36 37.663 152.36C37.079 152.36 36.555 152.48 36.091 152.72C35.635 152.96 35.271 153.296 34.999 153.728C34.735 154.16 34.603 154.664 34.603 155.24ZM36.187 155.24C36.187 154.928 36.251 154.652 36.379 154.412C36.515 154.172 36.695 153.988 36.919 153.86C37.143 153.732 37.391 153.668 37.663 153.668C37.935 153.668 38.183 153.732 38.407 153.86C38.631 153.988 38.807 154.172 38.935 154.412C39.071 154.652 39.139 154.928 39.139 155.24C39.139 155.552 39.071 155.828 38.935 156.068C38.807 156.3 38.631 156.484 38.407 156.62C38.183 156.748 37.935 156.812 37.663 156.812C37.391 156.812 37.143 156.748 36.919 156.62C36.695 156.484 36.515 156.3 36.379 156.068C36.251 155.828 36.187 155.552 36.187 155.24ZM43.4971 155.84V152.48H41.8891V156.008C41.8891 156.664 42.0491 157.18 42.3691 157.556C42.6971 157.932 43.1891 158.12 43.8451 158.12C44.2371 158.12 44.5691 158.04 44.8411 157.88C45.1131 157.712 45.3371 157.472 45.5131 157.16V158H47.0611V152.48H45.5131V155.84C45.5131 156.072 45.4651 156.272 45.3691 156.44C45.2811 156.608 45.1531 156.74 44.9851 156.836C44.8251 156.924 44.6331 156.968 44.4091 156.968C44.0891 156.968 43.8571 156.872 43.7131 156.68C43.5691 156.48 43.4971 156.2 43.4971 155.84ZM47.8842 152.48V153.788H51.2922V152.48H47.8842ZM48.8322 150.56V158H50.3322V150.56H48.8322ZM53.6796 148.64H52.1196V158H53.6796V148.64ZM55.6836 154.64V158H57.2436V154.412C57.2436 153.956 57.1756 153.572 57.0396 153.26C56.9036 152.94 56.6956 152.7 56.4156 152.54C56.1356 152.38 55.7796 152.3 55.3476 152.3C54.9156 152.3 54.5516 152.404 54.2556 152.612C53.9596 152.82 53.7356 153.1 53.5836 153.452C53.4396 153.804 53.3676 154.2 53.3676 154.64H53.6796C53.6796 154.408 53.7236 154.208 53.8116 154.04C53.8996 153.872 54.0276 153.744 54.1956 153.656C54.3636 153.56 54.5556 153.512 54.7716 153.512C55.0996 153.512 55.3316 153.608 55.4676 153.8C55.6116 153.992 55.6836 154.272 55.6836 154.64ZM63.6215 158H67.8575V156.548H63.6215V158ZM63.6215 151.052H67.8575V149.6H63.6215V151.052ZM63.6215 154.256H67.6175V152.828H63.6215V154.256ZM62.5175 149.6V158H64.1735V149.6H62.5175ZM70.5087 156.284C70.5087 156.124 70.5447 155.992 70.6167 155.888C70.6887 155.776 70.8007 155.692 70.9527 155.636C71.1047 155.572 71.3007 155.54 71.5407 155.54C71.8367 155.54 72.1167 155.58 72.3807 155.66C72.6527 155.74 72.8967 155.86 73.1127 156.02V155.3C73.0327 155.204 72.9007 155.104 72.7167 155C72.5327 154.896 72.3047 154.808 72.0327 154.736C71.7687 154.664 71.4607 154.628 71.1087 154.628C70.4207 154.628 69.8887 154.784 69.5127 155.096C69.1367 155.408 68.9487 155.832 68.9487 156.368C68.9487 156.744 69.0367 157.064 69.2127 157.328C69.3967 157.584 69.6367 157.78 69.9327 157.916C70.2287 158.052 70.5487 158.12 70.8927 158.12C71.2287 158.12 71.5487 158.06 71.8527 157.94C72.1647 157.82 72.4167 157.64 72.6087 157.4C72.8087 157.16 72.9087 156.864 72.9087 156.512L72.7167 155.792C72.7167 156.056 72.6567 156.284 72.5367 156.476C72.4167 156.66 72.2607 156.804 72.0687 156.908C71.8767 157.004 71.6607 157.052 71.4207 157.052C71.2527 157.052 71.0967 157.024 70.9527 156.968C70.8167 156.904 70.7087 156.816 70.6287 156.704C70.5487 156.584 70.5087 156.444 70.5087 156.284ZM69.9087 154.04C69.9887 153.984 70.1127 153.916 70.2807 153.836C70.4487 153.756 70.6487 153.688 70.8807 153.632C71.1127 153.576 71.3567 153.548 71.6127 153.548C71.7807 153.548 71.9327 153.564 72.0687 153.596C72.2047 153.628 72.3207 153.68 72.4167 153.752C72.5207 153.824 72.5967 153.916 72.6447 154.028C72.6927 154.132 72.7167 154.26 72.7167 154.412V158H74.2167V154.088C74.2167 153.712 74.1127 153.396 73.9047 153.14C73.6967 152.876 73.4087 152.676 73.0407 152.54C72.6727 152.404 72.2527 152.336 71.7807 152.336C71.2687 152.336 70.8047 152.408 70.3887 152.552C69.9727 152.688 69.6207 152.832 69.3327 152.984L69.9087 154.04ZM75.9385 156.092L75.1825 157.064C75.3905 157.264 75.6225 157.452 75.8785 157.628C76.1425 157.796 76.4345 157.932 76.7545 158.036C77.0825 158.14 77.4425 158.192 77.8345 158.192C78.4665 158.192 78.9625 158.04 79.3225 157.736C79.6825 157.424 79.8625 156.992 79.8625 156.44C79.8625 156.104 79.7865 155.832 79.6345 155.624C79.4825 155.416 79.2785 155.244 79.0225 155.108C78.7745 154.964 78.5025 154.836 78.2065 154.724C77.9665 154.62 77.7505 154.532 77.5585 154.46C77.3745 154.388 77.2305 154.308 77.1265 154.22C77.0305 154.124 76.9825 154.016 76.9825 153.896C76.9825 153.76 77.0305 153.66 77.1265 153.596C77.2305 153.524 77.3705 153.488 77.5465 153.488C77.8105 153.488 78.0785 153.556 78.3505 153.692C78.6305 153.828 78.8705 154.004 79.0705 154.22L79.7545 153.26C79.5785 153.084 79.3745 152.932 79.1425 152.804C78.9105 152.668 78.6585 152.56 78.3865 152.48C78.1145 152.4 77.8225 152.36 77.5105 152.36C77.1425 152.36 76.8065 152.42 76.5025 152.54C76.2065 152.652 75.9705 152.824 75.7945 153.056C75.6185 153.28 75.5305 153.556 75.5305 153.884C75.5305 154.228 75.6065 154.512 75.7585 154.736C75.9185 154.952 76.1185 155.128 76.3585 155.264C76.5985 155.392 76.8465 155.504 77.1025 155.6C77.3745 155.688 77.5985 155.772 77.7745 155.852C77.9505 155.932 78.0825 156.024 78.1705 156.128C78.2665 156.224 78.3145 156.344 78.3145 156.488C78.3145 156.648 78.2585 156.776 78.1465 156.872C78.0345 156.96 77.8745 157.004 77.6665 157.004C77.5065 157.004 77.3345 156.972 77.1505 156.908C76.9745 156.844 76.7865 156.748 76.5865 156.62C76.3865 156.484 76.1705 156.308 75.9385 156.092ZM80.228 152.48V153.788H83.636V152.48H80.228ZM81.176 150.56V158H82.676V150.56H81.176Z" fill="white"/>
<path opacity="0.6" d="M114.216 153.908C114.848 153.908 115.412 153.824 115.908 153.656C116.404 153.488 116.796 153.244 117.084 152.924C117.372 152.596 117.516 152.204 117.516 151.748C117.516 151.324 117.408 150.94 117.192 150.596C116.976 150.252 116.66 149.976 116.244 149.768C115.836 149.56 115.34 149.456 114.756 149.456C114.204 149.456 113.72 149.564 113.304 149.78C112.888 149.996 112.56 150.292 112.32 150.668C112.088 151.036 111.972 151.46 111.972 151.94H113.568C113.568 151.628 113.68 151.372 113.904 151.172C114.136 150.964 114.42 150.86 114.756 150.86C114.996 150.86 115.192 150.9 115.344 150.98C115.496 151.06 115.612 151.176 115.692 151.328C115.772 151.48 115.812 151.656 115.812 151.856C115.812 152.016 115.772 152.172 115.692 152.324C115.62 152.468 115.516 152.6 115.38 152.72C115.244 152.832 115.076 152.92 114.876 152.984C114.684 153.048 114.464 153.08 114.216 153.08V153.908ZM114.684 158.168C115.308 158.168 115.848 158.068 116.304 157.868C116.768 157.66 117.124 157.372 117.372 157.004C117.628 156.636 117.756 156.212 117.756 155.732C117.756 155.308 117.668 154.948 117.492 154.652C117.316 154.348 117.068 154.1 116.748 153.908C116.428 153.708 116.052 153.564 115.62 153.476C115.196 153.388 114.728 153.344 114.216 153.344V154.256C114.512 154.256 114.772 154.288 114.996 154.352C115.228 154.408 115.42 154.492 115.572 154.604C115.732 154.716 115.852 154.856 115.932 155.024C116.012 155.184 116.052 155.36 116.052 155.552C116.052 155.816 115.996 156.036 115.884 156.212C115.772 156.388 115.616 156.524 115.416 156.62C115.224 156.708 114.996 156.752 114.732 156.752C114.476 156.752 114.24 156.704 114.024 156.608C113.808 156.504 113.636 156.356 113.508 156.164C113.38 155.972 113.316 155.74 113.316 155.468H111.612C111.612 155.828 111.684 156.172 111.828 156.5C111.972 156.82 112.176 157.108 112.44 157.364C112.704 157.612 113.024 157.808 113.4 157.952C113.776 158.096 114.204 158.168 114.684 158.168ZM119.532 156.68L118.476 159.788L119.628 160.064L121.08 157.064L119.532 156.68ZM123.964 153.8C123.964 153.376 124.004 152.992 124.084 152.648C124.164 152.296 124.28 151.996 124.432 151.748C124.584 151.492 124.764 151.296 124.972 151.16C125.18 151.024 125.412 150.956 125.668 150.956C125.932 150.956 126.168 151.024 126.376 151.16C126.584 151.296 126.764 151.492 126.916 151.748C127.068 151.996 127.184 152.296 127.264 152.648C127.344 152.992 127.384 153.376 127.384 153.8C127.384 154.224 127.344 154.612 127.264 154.964C127.184 155.308 127.068 155.608 126.916 155.864C126.764 156.112 126.584 156.304 126.376 156.44C126.168 156.576 125.932 156.644 125.668 156.644C125.412 156.644 125.18 156.576 124.972 156.44C124.764 156.304 124.584 156.112 124.432 155.864C124.28 155.608 124.164 155.308 124.084 154.964C124.004 154.612 123.964 154.224 123.964 153.8ZM122.296 153.8C122.296 154.688 122.436 155.456 122.716 156.104C123.004 156.752 123.4 157.256 123.904 157.616C124.416 157.968 125.004 158.144 125.668 158.144C126.356 158.144 126.952 157.968 127.456 157.616C127.96 157.256 128.352 156.752 128.632 156.104C128.912 155.456 129.052 154.688 129.052 153.8C129.052 152.912 128.912 152.144 128.632 151.496C128.352 150.848 127.96 150.348 127.456 149.996C126.952 149.636 126.356 149.456 125.668 149.456C125.004 149.456 124.416 149.636 123.904 149.996C123.4 150.348 123.004 150.848 122.716 151.496C122.436 152.144 122.296 152.912 122.296 153.8ZM131.675 153.8C131.675 153.376 131.715 152.992 131.795 152.648C131.875 152.296 131.991 151.996 132.143 151.748C132.295 151.492 132.475 151.296 132.683 151.16C132.891 151.024 133.123 150.956 133.379 150.956C133.643 150.956 133.879 151.024 134.087 151.16C134.295 151.296 134.475 151.492 134.627 151.748C134.779 151.996 134.895 152.296 134.975 152.648C135.055 152.992 135.095 153.376 135.095 153.8C135.095 154.224 135.055 154.612 134.975 154.964C134.895 155.308 134.779 155.608 134.627 155.864C134.475 156.112 134.295 156.304 134.087 156.44C133.879 156.576 133.643 156.644 133.379 156.644C133.123 156.644 132.891 156.576 132.683 156.44C132.475 156.304 132.295 156.112 132.143 155.864C131.991 155.608 131.875 155.308 131.795 154.964C131.715 154.612 131.675 154.224 131.675 153.8ZM130.007 153.8C130.007 154.688 130.147 155.456 130.427 156.104C130.715 156.752 131.111 157.256 131.615 157.616C132.127 157.968 132.715 158.144 133.379 158.144C134.067 158.144 134.663 157.968 135.167 157.616C135.671 157.256 136.063 156.752 136.343 156.104C136.623 155.456 136.763 154.688 136.763 153.8C136.763 152.912 136.623 152.144 136.343 151.496C136.063 150.848 135.671 150.348 135.167 149.996C134.663 149.636 134.067 149.456 133.379 149.456C132.715 149.456 132.127 149.636 131.615 149.996C131.111 150.348 130.715 150.848 130.427 151.496C130.147 152.144 130.007 152.912 130.007 153.8ZM139.386 153.8C139.386 153.376 139.426 152.992 139.506 152.648C139.586 152.296 139.702 151.996 139.854 151.748C140.006 151.492 140.186 151.296 140.394 151.16C140.602 151.024 140.834 150.956 141.09 150.956C141.354 150.956 141.59 151.024 141.798 151.16C142.006 151.296 142.186 151.492 142.338 151.748C142.49 151.996 142.606 152.296 142.686 152.648C142.766 152.992 142.806 153.376 142.806 153.8C142.806 154.224 142.766 154.612 142.686 154.964C142.606 155.308 142.49 155.608 142.338 155.864C142.186 156.112 142.006 156.304 141.798 156.44C141.59 156.576 141.354 156.644 141.09 156.644C140.834 156.644 140.602 156.576 140.394 156.44C140.186 156.304 140.006 156.112 139.854 155.864C139.702 155.608 139.586 155.308 139.506 154.964C139.426 154.612 139.386 154.224 139.386 153.8ZM137.718 153.8C137.718 154.688 137.858 155.456 138.138 156.104C138.426 156.752 138.822 157.256 139.326 157.616C139.838 157.968 140.426 158.144 141.09 158.144C141.778 158.144 142.374 157.968 142.878 157.616C143.382 157.256 143.774 156.752 144.054 156.104C144.334 155.456 144.474 154.688 144.474 153.8C144.474 152.912 144.334 152.144 144.054 151.496C143.774 150.848 143.382 150.348 142.878 149.996C142.374 149.636 141.778 149.456 141.09 149.456C140.426 149.456 139.838 149.636 139.326 149.996C138.822 150.348 138.426 150.848 138.138 151.496C137.858 152.144 137.718 152.912 137.718 153.8Z" fill="white"/>
<rect y="147" width="22" height="14" rx="2" fill="#018796"/>
</svg>
