<svg width="162" height="207" viewBox="0 0 162 207" fill="none" xmlns="http://www.w3.org/2000/svg">
<path d="M0.14 6.32H2.66V15H3.85V6.32H6.37V5.2H0.14V6.32ZM7.63055 10.1C7.63055 9.36267 7.78921 8.70467 8.10655 8.126C8.43321 7.54733 8.87655 7.09 9.43655 6.754C9.99655 6.418 10.6312 6.25 11.3405 6.25C12.0592 6.25 12.6939 6.418 13.2445 6.754C13.8045 7.09 14.2432 7.54733 14.5605 8.126C14.8872 8.70467 15.0505 9.36267 15.0505 10.1C15.0505 10.8373 14.8872 11.4953 14.5605 12.074C14.2432 12.6527 13.8045 13.11 13.2445 13.446C12.6939 13.782 12.0592 13.95 11.3405 13.95C10.6312 13.95 9.99655 13.782 9.43655 13.446C8.87655 13.11 8.43321 12.6527 8.10655 12.074C7.78921 11.4953 7.63055 10.8373 7.63055 10.1ZM6.37055 10.1C6.37055 10.8093 6.49188 11.472 6.73455 12.088C6.98655 12.704 7.33655 13.2407 7.78455 13.698C8.23255 14.146 8.75988 14.5007 9.36655 14.762C9.97321 15.014 10.6312 15.14 11.3405 15.14C12.0592 15.14 12.7172 15.014 13.3145 14.762C13.9212 14.5007 14.4485 14.146 14.8965 13.698C15.3445 13.2407 15.6899 12.704 15.9325 12.088C16.1845 11.472 16.3105 10.8093 16.3105 10.1C16.3105 9.38133 16.1845 8.71867 15.9325 8.112C15.6899 7.496 15.3445 6.964 14.8965 6.516C14.4485 6.05867 13.9212 5.704 13.3145 5.452C12.7172 5.19067 12.0592 5.06 11.3405 5.06C10.6312 5.06 9.97321 5.19067 9.36655 5.452C8.75988 5.704 8.23255 6.05867 7.78455 6.516C7.33655 6.964 6.98655 7.496 6.73455 8.112C6.49188 8.71867 6.37055 9.38133 6.37055 10.1ZM16.5873 6.32H19.1073V15H20.2973V6.32H22.8173V5.2H16.5873V6.32ZM23.6185 12.06H28.7985L28.3785 10.94H24.0385L23.6185 12.06ZM26.1805 7.412L27.8605 11.36L27.9725 11.64L29.4005 15H30.7305L26.1805 4.71L21.6305 15H22.9605L24.4165 11.556L24.5285 11.304L26.1805 7.412ZM31.9227 5.2V15H36.9627V13.88H33.1127V5.2H31.9227ZM43.0807 15H48.0227V13.88H43.0807V15ZM43.0807 6.32H48.0227V5.2H43.0807V6.32ZM43.0807 10.24H47.7427V9.12H43.0807V10.24ZM42.4227 5.2V15H43.6127V5.2H42.4227ZM50.12 5.2V15H55.16V13.88H51.31V5.2H50.12ZM57.0807 15H62.0227V13.88H57.0807V15ZM57.0807 6.32H62.0227V5.2H57.0807V6.32ZM57.0807 10.24H61.7427V9.12H57.0807V10.24ZM56.4227 5.2V15H57.6127V5.2H56.4227ZM64.82 10.1C64.82 9.33467 64.988 8.66733 65.324 8.098C65.6693 7.51933 66.1173 7.06667 66.668 6.74C67.2187 6.41333 67.816 6.25 68.46 6.25C68.9267 6.25 69.3513 6.31067 69.734 6.432C70.126 6.55333 70.4807 6.726 70.798 6.95C71.1153 7.16467 71.386 7.41667 71.61 7.706V6.138C71.1993 5.774 70.7513 5.50333 70.266 5.326C69.7807 5.14867 69.1787 5.06 68.46 5.06C67.7787 5.06 67.1393 5.186 66.542 5.438C65.954 5.68067 65.436 6.03067 64.988 6.488C64.54 6.936 64.19 7.468 63.938 8.084C63.686 8.7 63.56 9.372 63.56 10.1C63.56 10.828 63.686 11.5 63.938 12.116C64.19 12.732 64.54 13.2687 64.988 13.726C65.436 14.174 65.954 14.524 66.542 14.776C67.1393 15.0187 67.7787 15.14 68.46 15.14C69.1787 15.14 69.7807 15.0513 70.266 14.874C70.7513 14.6967 71.1993 14.426 71.61 14.062V12.494C71.386 12.7833 71.1153 13.04 70.798 13.264C70.4807 13.4787 70.126 13.6467 69.734 13.768C69.3513 13.8893 68.9267 13.95 68.46 13.95C67.816 13.95 67.2187 13.7867 66.668 13.46C66.1173 13.1333 65.6693 12.6807 65.324 12.102C64.988 11.5233 64.82 10.856 64.82 10.1ZM72.3002 6.32H74.8202V15H76.0102V6.32H78.5302V5.2H72.3002V6.32ZM80.446 15H85.388V13.88H80.446V15ZM80.446 6.32H85.388V5.2H80.446V6.32ZM80.446 10.24H85.108V9.12H80.446V10.24ZM79.788 5.2V15H80.978V5.2H79.788ZM87.4852 5.2V15H88.6752V5.2H87.4852ZM90.4252 15C91.3772 15 92.2219 14.7947 92.9592 14.384C93.6966 13.9733 94.2752 13.404 94.6952 12.676C95.1152 11.9387 95.3252 11.08 95.3252 10.1C95.3252 9.12 95.1152 8.266 94.6952 7.538C94.2752 6.80067 93.6966 6.22667 92.9592 5.816C92.2219 5.40533 91.3772 5.2 90.4252 5.2H88.1432V6.39H90.4252C90.9759 6.39 91.4799 6.47867 91.9372 6.656C92.3946 6.824 92.7866 7.07133 93.1132 7.398C93.4399 7.71533 93.6919 8.10267 93.8692 8.56C94.0466 9.01733 94.1352 9.53067 94.1352 10.1C94.1352 10.6693 94.0466 11.1827 93.8692 11.64C93.6919 12.0973 93.4399 12.4893 93.1132 12.816C92.7866 13.1333 92.3946 13.3807 91.9372 13.558C91.4799 13.726 90.9759 13.81 90.4252 13.81H88.1432V15H90.4252ZM102.556 8.378L105.748 14.09L108.94 8.378L109.668 15H110.858L109.668 4.71L105.748 11.808L101.828 4.71L100.638 15H101.828L102.556 8.378ZM113.19 15H118.132V13.88H113.19V15ZM113.19 6.32H118.132V5.2H113.19V6.32ZM113.19 10.24H117.852V9.12H113.19V10.24ZM112.532 5.2V15H113.722V5.2H112.532ZM121.587 8.378L124.779 14.09L127.971 8.378L128.699 15H129.889L128.699 4.71L124.779 11.808L120.859 4.71L119.669 15H120.859L121.587 8.378ZM132.501 9.82H134.083C134.671 9.82 135.18 9.736 135.609 9.568C136.048 9.4 136.389 9.15267 136.631 8.826C136.874 8.49933 136.995 8.10733 136.995 7.65C136.995 7.09 136.874 6.63267 136.631 6.278C136.389 5.914 136.048 5.64333 135.609 5.466C135.18 5.28867 134.671 5.2 134.083 5.2H131.563V15H134.223C134.858 15 135.423 14.8973 135.917 14.692C136.421 14.4773 136.818 14.16 137.107 13.74C137.406 13.3107 137.555 12.774 137.555 12.13C137.555 11.682 137.471 11.2947 137.303 10.968C137.135 10.6413 136.897 10.3753 136.589 10.17C136.291 9.95533 135.941 9.79667 135.539 9.694C135.138 9.59133 134.699 9.54 134.223 9.54H132.501V10.198H134.223C134.541 10.198 134.83 10.24 135.091 10.324C135.353 10.3987 135.577 10.5153 135.763 10.674C135.959 10.8327 136.109 11.0287 136.211 11.262C136.314 11.4953 136.365 11.7613 136.365 12.06C136.365 12.4613 136.272 12.802 136.085 13.082C135.908 13.362 135.656 13.5767 135.329 13.726C135.012 13.8753 134.643 13.95 134.223 13.95H132.753V6.25H134.083C134.578 6.25 134.989 6.38067 135.315 6.642C135.642 6.894 135.805 7.25333 135.805 7.72C135.805 8.028 135.731 8.28933 135.581 8.504C135.432 8.71867 135.227 8.882 134.965 8.994C134.704 9.106 134.41 9.162 134.083 9.162H132.501V9.82ZM140.028 15H144.97V13.88H140.028V15ZM140.028 6.32H144.97V5.2H140.028V6.32ZM140.028 10.24H144.69V9.12H140.028V10.24ZM139.37 5.2V15H140.56V5.2H139.37ZM148.817 10.17L152.177 15H153.647L150.147 10.17H148.817ZM147.067 5.2V15H148.257V5.2H147.067ZM147.725 6.25H149.727C150.147 6.25 150.516 6.32467 150.833 6.474C151.16 6.62333 151.412 6.838 151.589 7.118C151.776 7.398 151.869 7.73867 151.869 8.14C151.869 8.54133 151.776 8.882 151.589 9.162C151.412 9.442 151.16 9.65667 150.833 9.806C150.516 9.95533 150.147 10.03 149.727 10.03H147.725V11.08H149.727C150.362 11.08 150.927 10.9633 151.421 10.73C151.925 10.4873 152.322 10.1467 152.611 9.708C152.91 9.26 153.059 8.73733 153.059 8.14C153.059 7.53333 152.91 7.01067 152.611 6.572C152.322 6.13333 151.925 5.79733 151.421 5.564C150.927 5.32133 150.362 5.2 149.727 5.2H147.725V6.25ZM155.265 12.032L154.313 12.676C154.528 13.1053 154.803 13.5113 155.139 13.894C155.485 14.2673 155.881 14.5707 156.329 14.804C156.787 15.028 157.281 15.14 157.813 15.14C158.205 15.14 158.579 15.0747 158.933 14.944C159.297 14.8133 159.619 14.6267 159.899 14.384C160.189 14.1413 160.413 13.8473 160.571 13.502C160.739 13.1567 160.823 12.7693 160.823 12.34C160.823 11.892 160.744 11.5093 160.585 11.192C160.427 10.8653 160.221 10.59 159.969 10.366C159.727 10.1327 159.461 9.94133 159.171 9.792C158.882 9.64267 158.607 9.52133 158.345 9.428C157.776 9.232 157.323 9.036 156.987 8.84C156.661 8.63467 156.427 8.42 156.287 8.196C156.147 7.96267 156.077 7.71067 156.077 7.44C156.077 7.12267 156.199 6.838 156.441 6.586C156.684 6.32467 157.071 6.194 157.603 6.194C157.986 6.194 158.308 6.26867 158.569 6.418C158.84 6.56733 159.069 6.75867 159.255 6.992C159.442 7.22533 159.596 7.46333 159.717 7.706L160.739 7.118C160.581 6.77267 160.361 6.446 160.081 6.138C159.801 5.82067 159.461 5.564 159.059 5.368C158.667 5.16267 158.205 5.06 157.673 5.06C157.123 5.06 156.633 5.172 156.203 5.396C155.774 5.61067 155.438 5.90933 155.195 6.292C154.953 6.67467 154.831 7.10867 154.831 7.594C154.831 8.042 154.915 8.42 155.083 8.728C155.261 9.036 155.485 9.29733 155.755 9.512C156.026 9.71733 156.311 9.89 156.609 10.03C156.908 10.1607 157.179 10.268 157.421 10.352C157.795 10.4827 158.145 10.632 158.471 10.8C158.807 10.9587 159.078 11.1687 159.283 11.43C159.489 11.6913 159.591 12.0413 159.591 12.48C159.591 12.928 159.433 13.2967 159.115 13.586C158.798 13.8753 158.378 14.02 157.855 14.02C157.463 14.02 157.113 13.936 156.805 13.768C156.497 13.6 156.217 13.3667 155.965 13.068C155.723 12.7693 155.489 12.424 155.265 12.032Z" fill="white"/>
<path d="M1.36 31.04L4.82 30.18V41H8.08V26.74L1.36 28.1V31.04ZM14.2358 34C14.2358 33.3467 14.2958 32.7533 14.4158 32.22C14.5358 31.6733 14.7091 31.2133 14.9358 30.84C15.1624 30.4533 15.4291 30.16 15.7358 29.96C16.0558 29.7467 16.4091 29.64 16.7958 29.64C17.1824 29.64 17.5291 29.7467 17.8358 29.96C18.1558 30.16 18.4291 30.4533 18.6558 30.84C18.8824 31.2133 19.0558 31.6733 19.1758 32.22C19.2958 32.7533 19.3558 33.3467 19.3558 34C19.3558 34.6533 19.2958 35.2533 19.1758 35.8C19.0558 36.3333 18.8824 36.7933 18.6558 37.18C18.4291 37.5533 18.1558 37.8467 17.8358 38.06C17.5291 38.26 17.1824 38.36 16.7958 38.36C16.4091 38.36 16.0558 38.26 15.7358 38.06C15.4291 37.8467 15.1624 37.5533 14.9358 37.18C14.7091 36.7933 14.5358 36.3333 14.4158 35.8C14.2958 35.2533 14.2358 34.6533 14.2358 34ZM10.9758 34C10.9758 35.52 11.2158 36.82 11.6958 37.9C12.1891 38.98 12.8758 39.8133 13.7558 40.4C14.6358 40.9733 15.6491 41.26 16.7958 41.26C17.9958 41.26 19.0291 40.9733 19.8958 40.4C20.7624 39.8133 21.4291 38.98 21.8958 37.9C22.3758 36.82 22.6158 35.52 22.6158 34C22.6158 32.48 22.3758 31.18 21.8958 30.1C21.4291 29.02 20.7624 28.1933 19.8958 27.62C19.0291 27.0333 17.9958 26.74 16.7958 26.74C15.6491 26.74 14.6358 27.0333 13.7558 27.62C12.8758 28.1933 12.1891 29.02 11.6958 30.1C11.2158 31.18 10.9758 32.48 10.9758 34ZM25.818 38.8L24.058 43.98L26.338 44.44L28.858 39.44L25.818 38.8ZM33.9623 34C33.9623 33.3467 34.0223 32.7533 34.1423 32.22C34.2623 31.6733 34.4357 31.2133 34.6623 30.84C34.889 30.4533 35.1557 30.16 35.4623 29.96C35.7823 29.7467 36.1357 29.64 36.5223 29.64C36.909 29.64 37.2557 29.7467 37.5623 29.96C37.8823 30.16 38.1557 30.4533 38.3823 30.84C38.609 31.2133 38.7823 31.6733 38.9023 32.22C39.0223 32.7533 39.0823 33.3467 39.0823 34C39.0823 34.6533 39.0223 35.2533 38.9023 35.8C38.7823 36.3333 38.609 36.7933 38.3823 37.18C38.1557 37.5533 37.8823 37.8467 37.5623 38.06C37.2557 38.26 36.909 38.36 36.5223 38.36C36.1357 38.36 35.7823 38.26 35.4623 38.06C35.1557 37.8467 34.889 37.5533 34.6623 37.18C34.4357 36.7933 34.2623 36.3333 34.1423 35.8C34.0223 35.2533 33.9623 34.6533 33.9623 34ZM30.7023 34C30.7023 35.52 30.9423 36.82 31.4223 37.9C31.9157 38.98 32.6023 39.8133 33.4823 40.4C34.3623 40.9733 35.3757 41.26 36.5223 41.26C37.7223 41.26 38.7557 40.9733 39.6223 40.4C40.489 39.8133 41.1557 38.98 41.6223 37.9C42.1023 36.82 42.3423 35.52 42.3423 34C42.3423 32.48 42.1023 31.18 41.6223 30.1C41.1557 29.02 40.489 28.1933 39.6223 27.62C38.7557 27.0333 37.7223 26.74 36.5223 26.74C35.3757 26.74 34.3623 27.0333 33.4823 27.62C32.6023 28.1933 31.9157 29.02 31.4223 30.1C30.9423 31.18 30.7023 32.48 30.7023 34ZM47.2045 34C47.2045 33.3467 47.2645 32.7533 47.3845 32.22C47.5045 31.6733 47.6779 31.2133 47.9045 30.84C48.1312 30.4533 48.3979 30.16 48.7045 29.96C49.0245 29.7467 49.3779 29.64 49.7645 29.64C50.1512 29.64 50.4979 29.7467 50.8045 29.96C51.1245 30.16 51.3979 30.4533 51.6245 30.84C51.8512 31.2133 52.0245 31.6733 52.1445 32.22C52.2645 32.7533 52.3245 33.3467 52.3245 34C52.3245 34.6533 52.2645 35.2533 52.1445 35.8C52.0245 36.3333 51.8512 36.7933 51.6245 37.18C51.3979 37.5533 51.1245 37.8467 50.8045 38.06C50.4979 38.26 50.1512 38.36 49.7645 38.36C49.3779 38.36 49.0245 38.26 48.7045 38.06C48.3979 37.8467 48.1312 37.5533 47.9045 37.18C47.6779 36.7933 47.5045 36.3333 47.3845 35.8C47.2645 35.2533 47.2045 34.6533 47.2045 34ZM43.9445 34C43.9445 35.52 44.1845 36.82 44.6645 37.9C45.1579 38.98 45.8445 39.8133 46.7245 40.4C47.6045 40.9733 48.6179 41.26 49.7645 41.26C50.9645 41.26 51.9979 40.9733 52.8645 40.4C53.7312 39.8133 54.3979 38.98 54.8645 37.9C55.3445 36.82 55.5845 35.52 55.5845 34C55.5845 32.48 55.3445 31.18 54.8645 30.1C54.3979 29.02 53.7312 28.1933 52.8645 27.62C51.9979 27.0333 50.9645 26.74 49.7645 26.74C48.6179 26.74 47.6045 27.0333 46.7245 27.62C45.8445 28.1933 45.1579 29.02 44.6645 30.1C44.1845 31.18 43.9445 32.48 43.9445 34ZM60.4467 34C60.4467 33.3467 60.5067 32.7533 60.6267 32.22C60.7467 31.6733 60.9201 31.2133 61.1467 30.84C61.3734 30.4533 61.6401 30.16 61.9467 29.96C62.2667 29.7467 62.6201 29.64 63.0067 29.64C63.3934 29.64 63.7401 29.7467 64.0467 29.96C64.3667 30.16 64.6401 30.4533 64.8667 30.84C65.0934 31.2133 65.2667 31.6733 65.3867 32.22C65.5067 32.7533 65.5667 33.3467 65.5667 34C65.5667 34.6533 65.5067 35.2533 65.3867 35.8C65.2667 36.3333 65.0934 36.7933 64.8667 37.18C64.6401 37.5533 64.3667 37.8467 64.0467 38.06C63.7401 38.26 63.3934 38.36 63.0067 38.36C62.6201 38.36 62.2667 38.26 61.9467 38.06C61.6401 37.8467 61.3734 37.5533 61.1467 37.18C60.9201 36.7933 60.7467 36.3333 60.6267 35.8C60.5067 35.2533 60.4467 34.6533 60.4467 34ZM57.1867 34C57.1867 35.52 57.4267 36.82 57.9067 37.9C58.4001 38.98 59.0867 39.8133 59.9667 40.4C60.8467 40.9733 61.8601 41.26 63.0067 41.26C64.2067 41.26 65.2401 40.9733 66.1067 40.4C66.9734 39.8133 67.6401 38.98 68.1067 37.9C68.5867 36.82 68.8267 35.52 68.8267 34C68.8267 32.48 68.5867 31.18 68.1067 30.1C67.6401 29.02 66.9734 28.1933 66.1067 27.62C65.2401 27.0333 64.2067 26.74 63.0067 26.74C61.8601 26.74 60.8467 27.0333 59.9667 27.62C59.0867 28.1933 58.4001 29.02 57.9067 30.1C57.4267 31.18 57.1867 32.48 57.1867 34Z" fill="white"/>
<path fill-rule="evenodd" clip-rule="evenodd" d="M59.0059 168.009C58.631 168.01 58.2597 167.935 57.9133 167.788C57.5669 167.642 57.2523 167.426 56.9876 167.154C55.1904 165.315 56.4801 162.168 59.0059 162.168C61.5299 162.168 62.8231 165.313 61.0248 167.154C60.76 167.426 60.4453 167.642 60.0988 167.788C59.7523 167.935 59.3808 168.01 59.0059 168.009ZM61.8236 167.98C64.3493 165.396 62.5299 161 59.0042 161C55.4864 161 53.6453 165.396 56.1721 167.98C56.8064 168.63 57.8482 169.01 58.419 169.131V170.374H56.7064V171.543H58.419V172.711H59.5607V171.543H61.2733V170.374H59.5607V169.131C60.7025 169.01 61.1893 168.628 61.8236 167.98Z" fill="#E5B805"/>
<path d="M1.778 164.32H6.16V163.2H1.778V164.32ZM1.778 168.24H6.02V167.12H1.778V168.24ZM1.12 163.2V173H2.31V163.2H1.12ZM8.778 173H13.72V171.88H8.778V173ZM8.778 164.32H13.72V163.2H8.778V164.32ZM8.778 168.24H13.44V167.12H8.778V168.24ZM8.12 163.2V173H9.31V163.2H8.12ZM17.1753 166.378L20.3673 172.09L23.5593 166.378L24.2873 173H25.4773L24.2873 162.71L20.3673 169.808L16.4473 162.71L15.2573 173H16.4473L17.1753 166.378ZM28.0892 170.06H33.2693L32.8493 168.94H28.5093L28.0892 170.06ZM30.6513 165.412L32.3313 169.36L32.4433 169.64L33.8713 173H35.2013L30.6513 162.71L26.1013 173H27.4313L28.8873 169.556L28.9993 169.304L30.6513 165.412ZM36.3934 163.2V173H41.4334V171.88H37.5834V163.2H36.3934ZM43.3542 173H48.2962V171.88H43.3542V173ZM43.3542 164.32H48.2962V163.2H43.3542V164.32ZM43.3542 168.24H48.0162V167.12H43.3542V168.24ZM42.6962 163.2V173H43.8862V163.2H42.6962Z" fill="white"/>
<path d="M1.36 189.04L4.82 188.18V199H8.08V184.74L1.36 186.1V189.04ZM12.5758 196.8L10.8158 201.98L13.0958 202.44L15.6158 197.44L12.5758 196.8ZM20.7202 192C20.7202 191.347 20.7802 190.753 20.9002 190.22C21.0202 189.673 21.1935 189.213 21.4202 188.84C21.6468 188.453 21.9135 188.16 22.2202 187.96C22.5402 187.747 22.8935 187.64 23.2802 187.64C23.6668 187.64 24.0135 187.747 24.3202 187.96C24.6402 188.16 24.9135 188.453 25.1402 188.84C25.3668 189.213 25.5402 189.673 25.6602 190.22C25.7802 190.753 25.8402 191.347 25.8402 192C25.8402 192.653 25.7802 193.253 25.6602 193.8C25.5402 194.333 25.3668 194.793 25.1402 195.18C24.9135 195.553 24.6402 195.847 24.3202 196.06C24.0135 196.26 23.6668 196.36 23.2802 196.36C22.8935 196.36 22.5402 196.26 22.2202 196.06C21.9135 195.847 21.6468 195.553 21.4202 195.18C21.1935 194.793 21.0202 194.333 20.9002 193.8C20.7802 193.253 20.7202 192.653 20.7202 192ZM17.4602 192C17.4602 193.52 17.7002 194.82 18.1802 195.9C18.6735 196.98 19.3602 197.813 20.2402 198.4C21.1202 198.973 22.1335 199.26 23.2802 199.26C24.4802 199.26 25.5135 198.973 26.3802 198.4C27.2468 197.813 27.9135 196.98 28.3802 195.9C28.8602 194.82 29.1002 193.52 29.1002 192C29.1002 190.48 28.8602 189.18 28.3802 188.1C27.9135 187.02 27.2468 186.193 26.3802 185.62C25.5135 185.033 24.4802 184.74 23.2802 184.74C22.1335 184.74 21.1202 185.033 20.2402 185.62C19.3602 186.193 18.6735 187.02 18.1802 188.1C17.7002 189.18 17.4602 190.48 17.4602 192ZM33.9623 192C33.9623 191.347 34.0223 190.753 34.1423 190.22C34.2623 189.673 34.4357 189.213 34.6623 188.84C34.889 188.453 35.1557 188.16 35.4623 187.96C35.7823 187.747 36.1357 187.64 36.5223 187.64C36.909 187.64 37.2557 187.747 37.5623 187.96C37.8823 188.16 38.1557 188.453 38.3823 188.84C38.609 189.213 38.7823 189.673 38.9023 190.22C39.0223 190.753 39.0823 191.347 39.0823 192C39.0823 192.653 39.0223 193.253 38.9023 193.8C38.7823 194.333 38.609 194.793 38.3823 195.18C38.1557 195.553 37.8823 195.847 37.5623 196.06C37.2557 196.26 36.909 196.36 36.5223 196.36C36.1357 196.36 35.7823 196.26 35.4623 196.06C35.1557 195.847 34.889 195.553 34.6623 195.18C34.4357 194.793 34.2623 194.333 34.1423 193.8C34.0223 193.253 33.9623 192.653 33.9623 192ZM30.7023 192C30.7023 193.52 30.9423 194.82 31.4223 195.9C31.9157 196.98 32.6023 197.813 33.4823 198.4C34.3623 198.973 35.3757 199.26 36.5223 199.26C37.7223 199.26 38.7557 198.973 39.6223 198.4C40.489 197.813 41.1557 196.98 41.6223 195.9C42.1023 194.82 42.3423 193.52 42.3423 192C42.3423 190.48 42.1023 189.18 41.6223 188.1C41.1557 187.02 40.489 186.193 39.6223 185.62C38.7557 185.033 37.7223 184.74 36.5223 184.74C35.3757 184.74 34.3623 185.033 33.4823 185.62C32.6023 186.193 31.9157 187.02 31.4223 188.1C30.9423 189.18 30.7023 190.48 30.7023 192ZM47.2045 192C47.2045 191.347 47.2645 190.753 47.3845 190.22C47.5045 189.673 47.6779 189.213 47.9045 188.84C48.1312 188.453 48.3979 188.16 48.7045 187.96C49.0245 187.747 49.3779 187.64 49.7645 187.64C50.1512 187.64 50.4979 187.747 50.8045 187.96C51.1245 188.16 51.3979 188.453 51.6245 188.84C51.8512 189.213 52.0245 189.673 52.1445 190.22C52.2645 190.753 52.3245 191.347 52.3245 192C52.3245 192.653 52.2645 193.253 52.1445 193.8C52.0245 194.333 51.8512 194.793 51.6245 195.18C51.3979 195.553 51.1245 195.847 50.8045 196.06C50.4979 196.26 50.1512 196.36 49.7645 196.36C49.3779 196.36 49.0245 196.26 48.7045 196.06C48.3979 195.847 48.1312 195.553 47.9045 195.18C47.6779 194.793 47.5045 194.333 47.3845 193.8C47.2645 193.253 47.2045 192.653 47.2045 192ZM43.9445 192C43.9445 193.52 44.1845 194.82 44.6645 195.9C45.1579 196.98 45.8445 197.813 46.7245 198.4C47.6045 198.973 48.6179 199.26 49.7645 199.26C50.9645 199.26 51.9979 198.973 52.8645 198.4C53.7312 197.813 54.3979 196.98 54.8645 195.9C55.3445 194.82 55.5845 193.52 55.5845 192C55.5845 190.48 55.3445 189.18 54.8645 188.1C54.3979 187.02 53.7312 186.193 52.8645 185.62C51.9979 185.033 50.9645 184.74 49.7645 184.74C48.6179 184.74 47.6045 185.033 46.7245 185.62C45.8445 186.193 45.1579 187.02 44.6645 188.1C44.1845 189.18 43.9445 190.48 43.9445 192Z" fill="white"/>
<path d="M50 84.7102C49.9999 84.6278 49.9864 84.5461 49.96 84.4687C49.9317 84.4033 49.8935 84.3433 49.8468 84.2912C49.8323 84.271 49.8142 84.2541 49.7935 84.2415C49.7553 84.1998 49.7101 84.1661 49.6603 84.142H49.5937C49.518 84.0748 49.4293 84.0263 49.3339 84H46.6697C46.493 84 46.3236 84.0748 46.1987 84.208C46.0738 84.3412 46.0036 84.5218 46.0036 84.7102C46.0036 84.8985 46.0738 85.0791 46.1987 85.2123C46.3236 85.3455 46.493 85.4203 46.6697 85.4203H47.6821L46.2634 86.8761C45.4383 86.2702 44.4299 86.0168 43.4379 86.1661C42.446 86.3154 41.5427 86.8564 40.9072 87.6821C40.2716 88.5077 39.9501 89.5578 40.0063 90.6242C40.0625 91.6907 40.4923 92.6957 41.2106 93.4403C41.9289 94.1849 42.8833 94.6147 43.8847 94.6445C44.8861 94.6744 45.8615 94.3021 46.6177 93.6015C47.3739 92.9009 47.8558 91.923 47.9678 90.8616C48.0798 89.8002 47.8138 88.7326 47.2225 87.8704L48.6679 86.379V87.5508C48.6679 87.7391 48.738 87.9198 48.863 88.0529C48.9879 88.1861 49.1573 88.2609 49.3339 88.2609C49.5106 88.2609 49.68 88.1861 49.8049 88.0529C49.9298 87.9198 50 87.7391 50 87.5508V84.7102ZM44.0054 93.2321C43.4784 93.2321 42.9633 93.0655 42.5252 92.7533C42.0871 92.4412 41.7456 91.9975 41.5439 91.4785C41.3423 90.9594 41.2895 90.3883 41.3923 89.8372C41.4951 89.2862 41.7489 88.7801 42.1215 88.3828C42.4941 87.9855 42.9688 87.715 43.4856 87.6054C44.0024 87.4958 44.5381 87.552 45.025 87.767C45.5118 87.982 45.9279 88.3461 46.2206 88.8133C46.5134 89.2804 46.6697 89.8296 46.6697 90.3914C46.6697 91.1448 46.389 91.8673 45.8893 92.4001C45.3897 92.9328 44.712 93.2321 44.0054 93.2321Z" fill="#E5B805"/>
<path d="M2.478 87.378L5.67 93.09L8.862 87.378L9.59 94H10.78L9.59 83.71L5.67 90.808L1.75 83.71L0.56 94H1.75L2.478 87.378ZM13.392 91.06H18.572L18.152 89.94H13.812L13.392 91.06ZM15.954 86.412L17.634 90.36L17.746 90.64L19.174 94H20.504L15.954 83.71L11.404 94H12.734L14.19 90.556L14.302 90.304L15.954 86.412ZM21.6962 84.2V94H26.7362V92.88H22.8862V84.2H21.6962ZM28.6569 94H33.5989V92.88H28.6569V94ZM28.6569 85.32H33.5989V84.2H28.6569V85.32ZM28.6569 89.24H33.3189V88.12H28.6569V89.24ZM27.9989 84.2V94H29.1889V84.2H27.9989Z" fill="white"/>
<path d="M9.04 110.92C9.04 111.387 8.93333 111.8 8.72 112.16C8.52 112.52 8.24 112.8 7.88 113C7.53333 113.2 7.14 113.3 6.7 113.3C6.24667 113.3 5.84 113.2 5.48 113C5.13333 112.8 4.85333 112.52 4.64 112.16C4.44 111.8 4.34 111.387 4.34 110.92C4.34 110.44 4.44 110.027 4.64 109.68C4.85333 109.32 5.13333 109.047 5.48 108.86C5.84 108.66 6.24667 108.56 6.7 108.56C7.14 108.56 7.53333 108.66 7.88 108.86C8.24 109.047 8.52 109.32 8.72 109.68C8.93333 110.027 9.04 110.44 9.04 110.92ZM6.72 119.94L10.76 114.8C11.2133 114.24 11.5933 113.64 11.9 113C12.22 112.36 12.38 111.667 12.38 110.92C12.38 109.76 12.12 108.793 11.6 108.02C11.0933 107.247 10.4067 106.667 9.54 106.28C8.68667 105.88 7.74 105.68 6.7 105.68C5.64667 105.68 4.68667 105.88 3.82 106.28C2.96667 106.667 2.28 107.247 1.76 108.02C1.25333 108.793 1 109.76 1 110.92C1 111.627 1.12667 112.26 1.38 112.82C1.63333 113.38 1.96667 113.86 2.38 114.26C2.79333 114.647 3.25333 114.947 3.76 115.16C4.28 115.36 4.8 115.46 5.32 115.46C5.82667 115.46 6.24667 115.407 6.58 115.3C6.92667 115.18 7.28667 114.94 7.66 114.58L6.98 114.88L2.44 119.94H6.72ZM14.3727 117.8L12.6127 122.98L14.8927 123.44L17.4127 118.44L14.3727 117.8ZM22.517 113C22.517 112.347 22.577 111.753 22.697 111.22C22.817 110.673 22.9904 110.213 23.217 109.84C23.4437 109.453 23.7104 109.16 24.017 108.96C24.337 108.747 24.6904 108.64 25.077 108.64C25.4637 108.64 25.8104 108.747 26.117 108.96C26.437 109.16 26.7104 109.453 26.937 109.84C27.1637 110.213 27.337 110.673 27.457 111.22C27.577 111.753 27.637 112.347 27.637 113C27.637 113.653 27.577 114.253 27.457 114.8C27.337 115.333 27.1637 115.793 26.937 116.18C26.7104 116.553 26.437 116.847 26.117 117.06C25.8104 117.26 25.4637 117.36 25.077 117.36C24.6904 117.36 24.337 117.26 24.017 117.06C23.7104 116.847 23.4437 116.553 23.217 116.18C22.9904 115.793 22.817 115.333 22.697 114.8C22.577 114.253 22.517 113.653 22.517 113ZM19.257 113C19.257 114.52 19.497 115.82 19.977 116.9C20.4704 117.98 21.157 118.813 22.037 119.4C22.917 119.973 23.9304 120.26 25.077 120.26C26.277 120.26 27.3104 119.973 28.177 119.4C29.0437 118.813 29.7104 117.98 30.177 116.9C30.657 115.82 30.897 114.52 30.897 113C30.897 111.48 30.657 110.18 30.177 109.1C29.7104 108.02 29.0437 107.193 28.177 106.62C27.3104 106.033 26.277 105.74 25.077 105.74C23.9304 105.74 22.917 106.033 22.037 106.62C21.157 107.193 20.4704 108.02 19.977 109.1C19.497 110.18 19.257 111.48 19.257 113ZM35.7592 113C35.7592 112.347 35.8192 111.753 35.9392 111.22C36.0592 110.673 36.2326 110.213 36.4592 109.84C36.6859 109.453 36.9526 109.16 37.2592 108.96C37.5792 108.747 37.9326 108.64 38.3192 108.64C38.7059 108.64 39.0526 108.747 39.3592 108.96C39.6792 109.16 39.9526 109.453 40.1792 109.84C40.4059 110.213 40.5792 110.673 40.6992 111.22C40.8192 111.753 40.8792 112.347 40.8792 113C40.8792 113.653 40.8192 114.253 40.6992 114.8C40.5792 115.333 40.4059 115.793 40.1792 116.18C39.9526 116.553 39.6792 116.847 39.3592 117.06C39.0526 117.26 38.7059 117.36 38.3192 117.36C37.9326 117.36 37.5792 117.26 37.2592 117.06C36.9526 116.847 36.6859 116.553 36.4592 116.18C36.2326 115.793 36.0592 115.333 35.9392 114.8C35.8192 114.253 35.7592 113.653 35.7592 113ZM32.4992 113C32.4992 114.52 32.7392 115.82 33.2192 116.9C33.7126 117.98 34.3992 118.813 35.2792 119.4C36.1592 119.973 37.1726 120.26 38.3192 120.26C39.5192 120.26 40.5526 119.973 41.4192 119.4C42.2859 118.813 42.9526 117.98 43.4192 116.9C43.8992 115.82 44.1392 114.52 44.1392 113C44.1392 111.48 43.8992 110.18 43.4192 109.1C42.9526 108.02 42.2859 107.193 41.4192 106.62C40.5526 106.033 39.5192 105.74 38.3192 105.74C37.1726 105.74 36.1592 106.033 35.2792 106.62C34.3992 107.193 33.7126 108.02 33.2192 109.1C32.7392 110.18 32.4992 111.48 32.4992 113ZM49.0014 113C49.0014 112.347 49.0614 111.753 49.1814 111.22C49.3014 110.673 49.4747 110.213 49.7014 109.84C49.9281 109.453 50.1947 109.16 50.5014 108.96C50.8214 108.747 51.1747 108.64 51.5614 108.64C51.9481 108.64 52.2947 108.747 52.6014 108.96C52.9214 109.16 53.1947 109.453 53.4214 109.84C53.6481 110.213 53.8214 110.673 53.9414 111.22C54.0614 111.753 54.1214 112.347 54.1214 113C54.1214 113.653 54.0614 114.253 53.9414 114.8C53.8214 115.333 53.6481 115.793 53.4214 116.18C53.1947 116.553 52.9214 116.847 52.6014 117.06C52.2947 117.26 51.9481 117.36 51.5614 117.36C51.1747 117.36 50.8214 117.26 50.5014 117.06C50.1947 116.847 49.9281 116.553 49.7014 116.18C49.4747 115.793 49.3014 115.333 49.1814 114.8C49.0614 114.253 49.0014 113.653 49.0014 113ZM45.7414 113C45.7414 114.52 45.9814 115.82 46.4614 116.9C46.9547 117.98 47.6414 118.813 48.5214 119.4C49.4014 119.973 50.4147 120.26 51.5614 120.26C52.7614 120.26 53.7947 119.973 54.6614 119.4C55.5281 118.813 56.1947 117.98 56.6614 116.9C57.1414 115.82 57.3814 114.52 57.3814 113C57.3814 111.48 57.1414 110.18 56.6614 109.1C56.1947 108.02 55.5281 107.193 54.6614 106.62C53.7947 106.033 52.7614 105.74 51.5614 105.74C50.4147 105.74 49.4014 106.033 48.5214 106.62C47.6414 107.193 46.9547 108.02 46.4614 109.1C45.9814 110.18 45.7414 111.48 45.7414 113Z" fill="white"/>
</svg>
