<svg width="380" height="337" viewBox="0 0 380 337" fill="none" xmlns="http://www.w3.org/2000/svg">
<rect x="0.5" y="0.5" width="379" height="336" rx="12.5" fill="#1B1F30" stroke="#272935"/>
<path d="M143.102 217.072C182.59 217.072 214.602 185.061 214.602 145.572C214.602 106.084 182.59 74.0723 143.102 74.0723C103.613 74.0723 71.6016 106.084 71.6016 145.572C71.6016 185.061 103.613 217.072 143.102 217.072Z" stroke="#A28888" stroke-width="0.25" stroke-miterlimit="10"/>
<path d="M220.602 70.0723L231.751 59.0723H250.176" stroke="#A28888" stroke-width="0.25" stroke-miterlimit="10"/>
<path d="M109.482 237.797L83.9653 263.314" stroke="#A28888" stroke-width="0.25" stroke-miterlimit="10"/>
<path d="M143.602 35.0003C205.074 35.0003 254.906 84.8326 254.906 146.304C254.906 207.775 205.074 257.607 143.602 257.607C82.1311 257.607 32.2988 207.775 32.2988 146.304C32.2988 84.8326 82.1311 35.0003 143.602 35.0003ZM143.602 227.555C188.476 227.555 224.854 191.178 224.854 146.304C224.854 101.43 188.476 65.0522 143.602 65.0522C98.7284 65.0522 62.3508 101.43 62.3508 146.304C62.3508 191.178 98.7284 227.555 143.602 227.555Z" fill="#E30325"/>
<path d="M254.906 146.304C254.906 169.809 247.465 192.711 233.649 211.726C219.833 230.742 200.352 244.896 177.997 252.16C155.642 259.423 131.562 259.423 109.208 252.16C86.8531 244.896 67.3718 230.742 53.5559 211.726C39.74 192.71 32.2988 169.809 32.2988 146.304C32.2988 122.799 39.74 99.8972 53.5559 80.8812C67.3718 61.8653 86.8531 47.7113 109.208 40.4479C131.562 33.1844 155.643 33.1844 177.997 40.4479L168.711 69.029C152.392 63.7267 134.813 63.7267 118.494 69.029C102.175 74.3313 87.9541 84.6637 77.8685 98.5453C67.7829 112.427 62.3508 129.145 62.3508 146.304C62.3508 163.462 67.7829 180.181 77.8685 194.062C87.9541 207.944 102.175 218.276 118.494 223.579C134.813 228.881 152.392 228.881 168.711 223.579C185.029 218.276 199.251 207.944 209.336 194.062C219.422 180.181 224.854 163.463 224.854 146.304L254.906 146.304Z" fill="#449352"/>
<path d="M103.14 131.32H105.66V140H106.85V131.32H109.37V130.2H103.14V131.32ZM110.631 135.1C110.631 134.363 110.789 133.705 111.107 133.126C111.433 132.547 111.877 132.09 112.437 131.754C112.997 131.418 113.631 131.25 114.341 131.25C115.059 131.25 115.694 131.418 116.245 131.754C116.805 132.09 117.243 132.547 117.561 133.126C117.887 133.705 118.051 134.363 118.051 135.1C118.051 135.837 117.887 136.495 117.561 137.074C117.243 137.653 116.805 138.11 116.245 138.446C115.694 138.782 115.059 138.95 114.341 138.95C113.631 138.95 112.997 138.782 112.437 138.446C111.877 138.11 111.433 137.653 111.107 137.074C110.789 136.495 110.631 135.837 110.631 135.1ZM109.371 135.1C109.371 135.809 109.492 136.472 109.735 137.088C109.987 137.704 110.337 138.241 110.785 138.698C111.233 139.146 111.76 139.501 112.367 139.762C112.973 140.014 113.631 140.14 114.341 140.14C115.059 140.14 115.717 140.014 116.315 139.762C116.921 139.501 117.449 139.146 117.897 138.698C118.345 138.241 118.69 137.704 118.933 137.088C119.185 136.472 119.311 135.809 119.311 135.1C119.311 134.381 119.185 133.719 118.933 133.112C118.69 132.496 118.345 131.964 117.897 131.516C117.449 131.059 116.921 130.704 116.315 130.452C115.717 130.191 115.059 130.06 114.341 130.06C113.631 130.06 112.973 130.191 112.367 130.452C111.76 130.704 111.233 131.059 110.785 131.516C110.337 131.964 109.987 132.496 109.735 133.112C109.492 133.719 109.371 134.381 109.371 135.1ZM119.587 131.32H122.107V140H123.297V131.32H125.817V130.2H119.587V131.32ZM126.619 137.06H131.799L131.379 135.94H127.039L126.619 137.06ZM129.181 132.412L130.861 136.36L130.973 136.64L132.401 140H133.731L129.181 129.71L124.631 140H125.961L127.417 136.556L127.529 136.304L129.181 132.412ZM134.923 130.2V140H139.963V138.88H136.113V130.2H134.923ZM148.923 137.788L145.703 130.2H144.373L148.923 140.49L153.473 130.2H152.143L148.923 137.788ZM155.16 135.1C155.16 134.363 155.319 133.705 155.636 133.126C155.963 132.547 156.406 132.09 156.966 131.754C157.526 131.418 158.161 131.25 158.87 131.25C159.589 131.25 160.223 131.418 160.774 131.754C161.334 132.09 161.773 132.547 162.09 133.126C162.417 133.705 162.58 134.363 162.58 135.1C162.58 135.837 162.417 136.495 162.09 137.074C161.773 137.653 161.334 138.11 160.774 138.446C160.223 138.782 159.589 138.95 158.87 138.95C158.161 138.95 157.526 138.782 156.966 138.446C156.406 138.11 155.963 137.653 155.636 137.074C155.319 136.495 155.16 135.837 155.16 135.1ZM153.9 135.1C153.9 135.809 154.021 136.472 154.264 137.088C154.516 137.704 154.866 138.241 155.314 138.698C155.762 139.146 156.289 139.501 156.896 139.762C157.503 140.014 158.161 140.14 158.87 140.14C159.589 140.14 160.247 140.014 160.844 139.762C161.451 139.501 161.978 139.146 162.426 138.698C162.874 138.241 163.219 137.704 163.462 137.088C163.714 136.472 163.84 135.809 163.84 135.1C163.84 134.381 163.714 133.719 163.462 133.112C163.219 132.496 162.874 131.964 162.426 131.516C161.978 131.059 161.451 130.704 160.844 130.452C160.247 130.191 159.589 130.06 158.87 130.06C158.161 130.06 157.503 130.191 156.896 130.452C156.289 130.704 155.762 131.059 155.314 131.516C154.866 131.964 154.516 132.496 154.264 133.112C154.021 133.719 153.9 134.381 153.9 135.1ZM164.117 131.32H166.637V140H167.827V131.32H170.347V130.2H164.117V131.32ZM172.262 140H177.204V138.88H172.262V140ZM172.262 131.32H177.204V130.2H172.262V131.32ZM172.262 135.24H176.924V134.12H172.262V135.24ZM171.604 130.2V140H172.794V130.2H171.604ZM179.666 137.032L178.714 137.676C178.928 138.105 179.204 138.511 179.54 138.894C179.885 139.267 180.282 139.571 180.73 139.804C181.187 140.028 181.682 140.14 182.214 140.14C182.606 140.14 182.979 140.075 183.334 139.944C183.698 139.813 184.02 139.627 184.3 139.384C184.589 139.141 184.813 138.847 184.972 138.502C185.14 138.157 185.224 137.769 185.224 137.34C185.224 136.892 185.144 136.509 184.986 136.192C184.827 135.865 184.622 135.59 184.37 135.366C184.127 135.133 183.861 134.941 183.572 134.792C183.282 134.643 183.007 134.521 182.746 134.428C182.176 134.232 181.724 134.036 181.388 133.84C181.061 133.635 180.828 133.42 180.688 133.196C180.548 132.963 180.478 132.711 180.478 132.44C180.478 132.123 180.599 131.838 180.842 131.586C181.084 131.325 181.472 131.194 182.004 131.194C182.386 131.194 182.708 131.269 182.97 131.418C183.24 131.567 183.469 131.759 183.656 131.992C183.842 132.225 183.996 132.463 184.118 132.706L185.14 132.118C184.981 131.773 184.762 131.446 184.482 131.138C184.202 130.821 183.861 130.564 183.46 130.368C183.068 130.163 182.606 130.06 182.074 130.06C181.523 130.06 181.033 130.172 180.604 130.396C180.174 130.611 179.838 130.909 179.596 131.292C179.353 131.675 179.232 132.109 179.232 132.594C179.232 133.042 179.316 133.42 179.484 133.728C179.661 134.036 179.885 134.297 180.156 134.512C180.426 134.717 180.711 134.89 181.01 135.03C181.308 135.161 181.579 135.268 181.822 135.352C182.195 135.483 182.545 135.632 182.872 135.8C183.208 135.959 183.478 136.169 183.684 136.43C183.889 136.691 183.992 137.041 183.992 137.48C183.992 137.928 183.833 138.297 183.516 138.586C183.198 138.875 182.778 139.02 182.256 139.02C181.864 139.02 181.514 138.936 181.206 138.768C180.898 138.6 180.618 138.367 180.366 138.068C180.123 137.769 179.89 137.424 179.666 137.032Z" fill="white"/>
<path d="M82.36 156.04L85.82 155.18V166H89.08V151.74L82.36 153.1V156.04ZM95.5158 161.08C95.5158 160.613 95.6158 160.2 95.8158 159.84C96.0291 159.48 96.3091 159.2 96.6558 159C97.0158 158.8 97.4224 158.7 97.8758 158.7C98.3158 158.7 98.7091 158.8 99.0558 159C99.4158 159.2 99.6958 159.48 99.8958 159.84C100.109 160.2 100.216 160.613 100.216 161.08C100.216 161.56 100.109 161.98 99.8958 162.34C99.6958 162.687 99.4158 162.96 99.0558 163.16C98.7091 163.347 98.3158 163.44 97.8758 163.44C97.4224 163.44 97.0158 163.347 96.6558 163.16C96.3091 162.96 96.0291 162.687 95.8158 162.34C95.6158 161.98 95.5158 161.56 95.5158 161.08ZM97.8358 152.06L93.7958 157.2C93.3424 157.76 92.9558 158.36 92.6358 159C92.3291 159.64 92.1758 160.333 92.1758 161.08C92.1758 162.227 92.4291 163.193 92.9358 163.98C93.4558 164.753 94.1424 165.34 94.9958 165.74C95.8624 166.127 96.8224 166.32 97.8758 166.32C98.9158 166.32 99.8624 166.127 100.716 165.74C101.582 165.34 102.269 164.753 102.776 163.98C103.296 163.193 103.556 162.227 103.556 161.08C103.556 160.373 103.429 159.74 103.176 159.18C102.936 158.62 102.602 158.147 102.176 157.76C101.762 157.36 101.296 157.06 100.776 156.86C100.269 156.647 99.7558 156.54 99.2358 156.54C98.7291 156.54 98.3024 156.593 97.9558 156.7C97.6224 156.807 97.2691 157.047 96.8958 157.42L97.5958 157.12L102.116 152.06H97.8358ZM106.095 155.38C106.095 156.02 106.228 156.58 106.495 157.06C106.775 157.527 107.141 157.92 107.595 158.24C108.048 158.547 108.555 158.773 109.115 158.92C109.675 159.067 110.241 159.14 110.815 159.14C111.388 159.14 111.955 159.067 112.515 158.92C113.075 158.773 113.581 158.547 114.035 158.24C114.501 157.92 114.868 157.527 115.135 157.06C115.415 156.58 115.555 156.02 115.555 155.38C115.555 154.593 115.335 153.927 114.895 153.38C114.468 152.82 113.895 152.4 113.175 152.12C112.468 151.827 111.681 151.68 110.815 151.68C109.961 151.68 109.175 151.827 108.455 152.12C107.748 152.4 107.175 152.82 106.735 153.38C106.308 153.927 106.095 154.593 106.095 155.38ZM109.275 155.7C109.275 155.393 109.335 155.12 109.455 154.88C109.588 154.627 109.775 154.433 110.015 154.3C110.255 154.167 110.521 154.1 110.815 154.1C111.135 154.1 111.408 154.167 111.635 154.3C111.875 154.433 112.055 154.627 112.175 154.88C112.308 155.12 112.375 155.393 112.375 155.7C112.375 156.02 112.308 156.3 112.175 156.54C112.041 156.78 111.855 156.967 111.615 157.1C111.388 157.233 111.121 157.3 110.815 157.3C110.521 157.3 110.255 157.233 110.015 157.1C109.788 156.967 109.608 156.78 109.475 156.54C109.341 156.3 109.275 156.02 109.275 155.7ZM105.595 162.2C105.595 162.84 105.735 163.413 106.015 163.92C106.295 164.427 106.681 164.86 107.175 165.22C107.668 165.58 108.228 165.853 108.855 166.04C109.481 166.227 110.135 166.32 110.815 166.32C111.508 166.32 112.168 166.227 112.795 166.04C113.421 165.853 113.981 165.58 114.475 165.22C114.968 164.86 115.355 164.427 115.635 163.92C115.915 163.413 116.055 162.84 116.055 162.2C116.055 161.467 115.895 160.84 115.575 160.32C115.255 159.787 114.828 159.36 114.295 159.04C113.775 158.707 113.208 158.467 112.595 158.32C111.981 158.16 111.388 158.08 110.815 158.08C110.241 158.08 109.648 158.16 109.035 158.32C108.421 158.467 107.855 158.707 107.335 159.04C106.815 159.36 106.395 159.787 106.075 160.32C105.755 160.84 105.595 161.467 105.595 162.2ZM108.955 161.68C108.955 161.347 109.035 161.04 109.195 160.76C109.368 160.48 109.595 160.26 109.875 160.1C110.168 159.94 110.481 159.86 110.815 159.86C111.161 159.86 111.475 159.94 111.755 160.1C112.048 160.26 112.275 160.48 112.435 160.76C112.608 161.04 112.695 161.347 112.695 161.68C112.695 162.093 112.608 162.44 112.435 162.72C112.275 163 112.048 163.213 111.755 163.36C111.475 163.507 111.161 163.58 110.815 163.58C110.481 163.58 110.168 163.507 109.875 163.36C109.595 163.213 109.368 163 109.195 162.72C109.035 162.44 108.955 162.093 108.955 161.68ZM119.201 163.8L117.441 168.98L119.721 169.44L122.241 164.44L119.201 163.8ZM132.325 156.92C132.325 157.387 132.218 157.8 132.005 158.16C131.805 158.52 131.525 158.8 131.165 159C130.818 159.2 130.425 159.3 129.985 159.3C129.532 159.3 129.125 159.2 128.765 159C128.418 158.8 128.138 158.52 127.925 158.16C127.725 157.8 127.625 157.387 127.625 156.92C127.625 156.44 127.725 156.027 127.925 155.68C128.138 155.32 128.418 155.047 128.765 154.86C129.125 154.66 129.532 154.56 129.985 154.56C130.425 154.56 130.818 154.66 131.165 154.86C131.525 155.047 131.805 155.32 132.005 155.68C132.218 156.027 132.325 156.44 132.325 156.92ZM130.005 165.94L134.045 160.8C134.498 160.24 134.878 159.64 135.185 159C135.505 158.36 135.665 157.667 135.665 156.92C135.665 155.76 135.405 154.793 134.885 154.02C134.378 153.247 133.692 152.667 132.825 152.28C131.972 151.88 131.025 151.68 129.985 151.68C128.932 151.68 127.972 151.88 127.105 152.28C126.252 152.667 125.565 153.247 125.045 154.02C124.538 154.793 124.285 155.76 124.285 156.92C124.285 157.627 124.412 158.26 124.665 158.82C124.918 159.38 125.252 159.86 125.665 160.26C126.078 160.647 126.538 160.947 127.045 161.16C127.565 161.36 128.085 161.46 128.605 161.46C129.112 161.46 129.532 161.407 129.865 161.3C130.212 161.18 130.572 160.94 130.945 160.58L130.265 160.88L125.725 165.94H130.005ZM138.024 156.04L141.484 155.18V166H144.744V151.74L138.024 153.1V156.04ZM147.24 166H159.1V162.9H153.5L156.76 159.98C157.36 159.46 157.847 158.887 158.22 158.26C158.593 157.62 158.78 156.92 158.78 156.16C158.78 155.627 158.667 155.1 158.44 154.58C158.213 154.06 157.873 153.587 157.42 153.16C156.98 152.72 156.427 152.373 155.76 152.12C155.093 151.853 154.327 151.72 153.46 151.72C152.26 151.72 151.24 151.967 150.4 152.46C149.573 152.953 148.953 153.613 148.54 154.44C148.127 155.267 147.92 156.18 147.92 157.18H151.24C151.24 156.673 151.32 156.227 151.48 155.84C151.653 155.453 151.9 155.153 152.22 154.94C152.553 154.727 152.933 154.62 153.36 154.62C153.68 154.62 153.96 154.673 154.2 154.78C154.44 154.873 154.64 155.007 154.8 155.18C154.96 155.34 155.08 155.527 155.16 155.74C155.24 155.953 155.28 156.167 155.28 156.38C155.28 156.753 155.207 157.107 155.06 157.44C154.927 157.76 154.72 158.087 154.44 158.42C154.173 158.753 153.853 159.127 153.48 159.54L147.24 166ZM162.365 163.8L160.605 168.98L162.885 169.44L165.405 164.44L162.365 163.8ZM166.849 166H178.709V162.9H173.109L176.369 159.98C176.969 159.46 177.456 158.887 177.829 158.26C178.203 157.62 178.389 156.92 178.389 156.16C178.389 155.627 178.276 155.1 178.049 154.58C177.823 154.06 177.483 153.587 177.029 153.16C176.589 152.72 176.036 152.373 175.369 152.12C174.703 151.853 173.936 151.72 173.069 151.72C171.869 151.72 170.849 151.967 170.009 152.46C169.183 152.953 168.563 153.613 168.149 154.44C167.736 155.267 167.529 156.18 167.529 157.18H170.849C170.849 156.673 170.929 156.227 171.089 155.84C171.263 155.453 171.509 155.153 171.829 154.94C172.163 154.727 172.543 154.62 172.969 154.62C173.289 154.62 173.569 154.673 173.809 154.78C174.049 154.873 174.249 155.007 174.409 155.18C174.569 155.34 174.689 155.527 174.769 155.74C174.849 155.953 174.889 156.167 174.889 156.38C174.889 156.753 174.816 157.107 174.669 157.44C174.536 157.76 174.329 158.087 174.049 158.42C173.783 158.753 173.463 159.127 173.089 159.54L166.849 166ZM179.974 166H191.834V162.9H186.234L189.494 159.98C190.094 159.46 190.581 158.887 190.954 158.26C191.328 157.62 191.514 156.92 191.514 156.16C191.514 155.627 191.401 155.1 191.174 154.58C190.948 154.06 190.608 153.587 190.154 153.16C189.714 152.72 189.161 152.373 188.494 152.12C187.828 151.853 187.061 151.72 186.194 151.72C184.994 151.72 183.974 151.967 183.134 152.46C182.308 152.953 181.688 153.613 181.274 154.44C180.861 155.267 180.654 156.18 180.654 157.18H183.974C183.974 156.673 184.054 156.227 184.214 155.84C184.388 155.453 184.634 155.153 184.954 154.94C185.288 154.727 185.668 154.62 186.094 154.62C186.414 154.62 186.694 154.673 186.934 154.78C187.174 154.873 187.374 155.007 187.534 155.18C187.694 155.34 187.814 155.527 187.894 155.74C187.974 155.953 188.014 156.167 188.014 156.38C188.014 156.753 187.941 157.107 187.794 157.44C187.661 157.76 187.454 158.087 187.174 158.42C186.908 158.753 186.588 159.127 186.214 159.54L179.974 166ZM193.099 166H204.959V162.9H199.359L202.619 159.98C203.219 159.46 203.706 158.887 204.079 158.26C204.453 157.62 204.639 156.92 204.639 156.16C204.639 155.627 204.526 155.1 204.299 154.58C204.073 154.06 203.733 153.587 203.279 153.16C202.839 152.72 202.286 152.373 201.619 152.12C200.953 151.853 200.186 151.72 199.319 151.72C198.119 151.72 197.099 151.967 196.259 152.46C195.433 152.953 194.813 153.613 194.399 154.44C193.986 155.267 193.779 156.18 193.779 157.18H197.099C197.099 156.673 197.179 156.227 197.339 155.84C197.513 155.453 197.759 155.153 198.079 154.94C198.413 154.727 198.793 154.62 199.219 154.62C199.539 154.62 199.819 154.673 200.059 154.78C200.299 154.873 200.499 155.007 200.659 155.18C200.819 155.34 200.939 155.527 201.019 155.74C201.099 155.953 201.139 156.167 201.139 156.38C201.139 156.753 201.066 157.107 200.919 157.44C200.786 157.76 200.579 158.087 200.299 158.42C200.033 158.753 199.713 159.127 199.339 159.54L193.099 166Z" fill="white"/>
<path d="M41.764 274.48H46.204L45.844 273.52H42.124L41.764 274.48ZM43.96 270.496L45.4 273.88L45.496 274.12L46.72 277H47.86L43.96 268.18L40.06 277H41.2L42.448 274.048L42.544 273.832L43.96 270.496ZM49.1186 272.8C49.1186 272.144 49.2626 271.572 49.5506 271.084C49.8466 270.588 50.2306 270.2 50.7026 269.92C51.1746 269.64 51.6866 269.5 52.2386 269.5C52.6386 269.5 53.0026 269.552 53.3306 269.656C53.6666 269.76 53.9706 269.908 54.2426 270.1C54.5146 270.284 54.7466 270.5 54.9386 270.748V269.404C54.5866 269.092 54.2026 268.86 53.7866 268.708C53.3706 268.556 52.8546 268.48 52.2386 268.48C51.6546 268.48 51.1066 268.588 50.5946 268.804C50.0906 269.012 49.6466 269.312 49.2626 269.704C48.8786 270.088 48.5786 270.544 48.3626 271.072C48.1466 271.6 48.0386 272.176 48.0386 272.8C48.0386 273.424 48.1466 274 48.3626 274.528C48.5786 275.056 48.8786 275.516 49.2626 275.908C49.6466 276.292 50.0906 276.592 50.5946 276.808C51.1066 277.016 51.6546 277.12 52.2386 277.12C52.8546 277.12 53.3706 277.044 53.7866 276.892C54.2026 276.74 54.5866 276.508 54.9386 276.196V274.852C54.7466 275.1 54.5146 275.32 54.2426 275.512C53.9706 275.696 53.6666 275.84 53.3306 275.944C53.0026 276.048 52.6386 276.1 52.2386 276.1C51.6866 276.1 51.1746 275.96 50.7026 275.68C50.2306 275.4 49.8466 275.012 49.5506 274.516C49.2626 274.02 49.1186 273.448 49.1186 272.8ZM57.3334 272.8C57.3334 272.144 57.4774 271.572 57.7654 271.084C58.0614 270.588 58.4454 270.2 58.9174 269.92C59.3894 269.64 59.9014 269.5 60.4534 269.5C60.8534 269.5 61.2174 269.552 61.5454 269.656C61.8814 269.76 62.1854 269.908 62.4574 270.1C62.7294 270.284 62.9614 270.5 63.1534 270.748V269.404C62.8014 269.092 62.4174 268.86 62.0014 268.708C61.5854 268.556 61.0694 268.48 60.4534 268.48C59.8694 268.48 59.3214 268.588 58.8094 268.804C58.3054 269.012 57.8614 269.312 57.4774 269.704C57.0934 270.088 56.7934 270.544 56.5774 271.072C56.3614 271.6 56.2534 272.176 56.2534 272.8C56.2534 273.424 56.3614 274 56.5774 274.528C56.7934 275.056 57.0934 275.516 57.4774 275.908C57.8614 276.292 58.3054 276.592 58.8094 276.808C59.3214 277.016 59.8694 277.12 60.4534 277.12C61.0694 277.12 61.5854 277.044 62.0014 276.892C62.4174 276.74 62.8014 276.508 63.1534 276.196V274.852C62.9614 275.1 62.7294 275.32 62.4574 275.512C62.1854 275.696 61.8814 275.84 61.5454 275.944C61.2174 276.048 60.8534 276.1 60.4534 276.1C59.9014 276.1 59.3894 275.96 58.9174 275.68C58.4454 275.4 58.0614 275.012 57.7654 274.516C57.4774 274.02 57.3334 273.448 57.3334 272.8ZM65.5123 277H69.7483V276.04H65.5123V277ZM65.5123 269.56H69.7483V268.6H65.5123V269.56ZM65.5123 272.92H69.5083V271.96H65.5123V272.92ZM64.9483 268.6V277H65.9683V268.6H64.9483ZM71.5459 268.6V277H72.5659V268.6H71.5459ZM72.1099 269.56H73.8259C74.3699 269.56 74.8099 269.692 75.1459 269.956C75.4899 270.212 75.6619 270.6 75.6619 271.12C75.6619 271.632 75.4899 272.02 75.1459 272.284C74.8099 272.548 74.3699 272.68 73.8259 272.68H72.1099V273.64H73.8259C74.3699 273.64 74.8539 273.54 75.2779 273.34C75.7099 273.132 76.0499 272.84 76.2979 272.464C76.5539 272.08 76.6819 271.632 76.6819 271.12C76.6819 270.6 76.5539 270.152 76.2979 269.776C76.0499 269.4 75.7099 269.112 75.2779 268.912C74.8539 268.704 74.3699 268.6 73.8259 268.6H72.1099V269.56ZM76.9169 269.56H79.0769V277H80.0969V269.56H82.2569V268.6H76.9169V269.56ZM83.899 277H88.135V276.04H83.899V277ZM83.899 269.56H88.135V268.6H83.899V269.56ZM83.899 272.92H87.895V271.96H83.899V272.92ZM83.335 268.6V277H84.355V268.6H83.335ZM89.9327 268.6V277H90.9527V268.6H89.9327ZM92.4527 277C93.2687 277 93.9927 276.824 94.6247 276.472C95.2567 276.12 95.7527 275.632 96.1127 275.008C96.4727 274.376 96.6527 273.64 96.6527 272.8C96.6527 271.96 96.4727 271.228 96.1127 270.604C95.7527 269.972 95.2567 269.48 94.6247 269.128C93.9927 268.776 93.2687 268.6 92.4527 268.6H90.4967V269.62H92.4527C92.9247 269.62 93.3567 269.696 93.7487 269.848C94.1407 269.992 94.4767 270.204 94.7567 270.484C95.0367 270.756 95.2527 271.088 95.4047 271.48C95.5567 271.872 95.6327 272.312 95.6327 272.8C95.6327 273.288 95.5567 273.728 95.4047 274.12C95.2527 274.512 95.0367 274.848 94.7567 275.128C94.4767 275.4 94.1407 275.612 93.7487 275.764C93.3567 275.908 92.9247 275.98 92.4527 275.98H90.4967V277H92.4527ZM104.687 275.104L101.927 268.6H100.787L104.687 277.42L108.587 268.6H107.447L104.687 275.104ZM110.033 272.8C110.033 272.168 110.169 271.604 110.441 271.108C110.721 270.612 111.101 270.22 111.581 269.932C112.061 269.644 112.605 269.5 113.213 269.5C113.829 269.5 114.373 269.644 114.845 269.932C115.325 270.22 115.701 270.612 115.973 271.108C116.253 271.604 116.393 272.168 116.393 272.8C116.393 273.432 116.253 273.996 115.973 274.492C115.701 274.988 115.325 275.38 114.845 275.668C114.373 275.956 113.829 276.1 113.213 276.1C112.605 276.1 112.061 275.956 111.581 275.668C111.101 275.38 110.721 274.988 110.441 274.492C110.169 273.996 110.033 273.432 110.033 272.8ZM108.953 272.8C108.953 273.408 109.057 273.976 109.265 274.504C109.481 275.032 109.781 275.492 110.165 275.884C110.549 276.268 111.001 276.572 111.521 276.796C112.041 277.012 112.605 277.12 113.213 277.12C113.829 277.12 114.393 277.012 114.905 276.796C115.425 276.572 115.877 276.268 116.261 275.884C116.645 275.492 116.941 275.032 117.149 274.504C117.365 273.976 117.473 273.408 117.473 272.8C117.473 272.184 117.365 271.616 117.149 271.096C116.941 270.568 116.645 270.112 116.261 269.728C115.877 269.336 115.425 269.032 114.905 268.816C114.393 268.592 113.829 268.48 113.213 268.48C112.605 268.48 112.041 268.592 111.521 268.816C111.001 269.032 110.549 269.336 110.165 269.728C109.781 270.112 109.481 270.568 109.265 271.096C109.057 271.616 108.953 272.184 108.953 272.8ZM117.71 269.56H119.87V277H120.89V269.56H123.05V268.6H117.71V269.56ZM124.692 277H128.928V276.04H124.692V277ZM124.692 269.56H128.928V268.6H124.692V269.56ZM124.692 272.92H128.688V271.96H124.692V272.92ZM124.128 268.6V277H125.148V268.6H124.128ZM131.038 274.456L130.222 275.008C130.406 275.376 130.642 275.724 130.93 276.052C131.226 276.372 131.566 276.632 131.95 276.832C132.342 277.024 132.766 277.12 133.222 277.12C133.558 277.12 133.878 277.064 134.182 276.952C134.494 276.84 134.77 276.68 135.01 276.472C135.258 276.264 135.45 276.012 135.586 275.716C135.73 275.42 135.802 275.088 135.802 274.72C135.802 274.336 135.734 274.008 135.598 273.736C135.462 273.456 135.286 273.22 135.07 273.028C134.862 272.828 134.634 272.664 134.386 272.536C134.138 272.408 133.902 272.304 133.678 272.224C133.19 272.056 132.802 271.888 132.514 271.72C132.234 271.544 132.034 271.36 131.914 271.168C131.794 270.968 131.734 270.752 131.734 270.52C131.734 270.248 131.838 270.004 132.046 269.788C132.254 269.564 132.586 269.452 133.042 269.452C133.37 269.452 133.646 269.516 133.87 269.644C134.102 269.772 134.298 269.936 134.458 270.136C134.618 270.336 134.75 270.54 134.854 270.748L135.73 270.244C135.594 269.948 135.406 269.668 135.166 269.404C134.926 269.132 134.634 268.912 134.29 268.744C133.954 268.568 133.558 268.48 133.102 268.48C132.63 268.48 132.21 268.576 131.842 268.768C131.474 268.952 131.186 269.208 130.978 269.536C130.77 269.864 130.666 270.236 130.666 270.652C130.666 271.036 130.738 271.36 130.882 271.624C131.034 271.888 131.226 272.112 131.458 272.296C131.69 272.472 131.934 272.62 132.19 272.74C132.446 272.852 132.678 272.944 132.886 273.016C133.206 273.128 133.506 273.256 133.786 273.4C134.074 273.536 134.306 273.716 134.482 273.94C134.658 274.164 134.746 274.464 134.746 274.84C134.746 275.224 134.61 275.54 134.338 275.788C134.066 276.036 133.706 276.16 133.258 276.16C132.922 276.16 132.622 276.088 132.358 275.944C132.094 275.8 131.854 275.6 131.638 275.344C131.43 275.088 131.23 274.792 131.038 274.456Z" fill="white" fill-opacity="0.5"/>
<path d="M41.088 292.032L43.856 291.344V300H46.464V288.592L41.088 289.68V292.032ZM51.6126 296.064C51.6126 295.691 51.6926 295.36 51.8526 295.072C52.0233 294.784 52.2473 294.56 52.5246 294.4C52.8126 294.24 53.138 294.16 53.5006 294.16C53.8526 294.16 54.1673 294.24 54.4446 294.4C54.7326 294.56 54.9566 294.784 55.1166 295.072C55.2873 295.36 55.3726 295.691 55.3726 296.064C55.3726 296.448 55.2873 296.784 55.1166 297.072C54.9566 297.349 54.7326 297.568 54.4446 297.728C54.1673 297.877 53.8526 297.952 53.5006 297.952C53.138 297.952 52.8126 297.877 52.5246 297.728C52.2473 297.568 52.0233 297.349 51.8526 297.072C51.6926 296.784 51.6126 296.448 51.6126 296.064ZM53.4686 288.848L50.2366 292.96C49.874 293.408 49.5646 293.888 49.3086 294.4C49.0633 294.912 48.9406 295.467 48.9406 296.064C48.9406 296.981 49.1433 297.755 49.5486 298.384C49.9646 299.003 50.514 299.472 51.1966 299.792C51.89 300.101 52.658 300.256 53.5006 300.256C54.3326 300.256 55.09 300.101 55.7726 299.792C56.466 299.472 57.0153 299.003 57.4206 298.384C57.8366 297.755 58.0446 296.981 58.0446 296.064C58.0446 295.499 57.9433 294.992 57.7406 294.544C57.5486 294.096 57.282 293.717 56.9406 293.408C56.61 293.088 56.2366 292.848 55.8206 292.688C55.4153 292.517 55.0046 292.432 54.5886 292.432C54.1833 292.432 53.842 292.475 53.5646 292.56C53.298 292.645 53.0153 292.837 52.7166 293.136L53.2766 292.896L56.8926 288.848H53.4686ZM62.0918 294.4C62.0918 293.877 62.1398 293.403 62.2358 292.976C62.3318 292.539 62.4704 292.171 62.6518 291.872C62.8331 291.563 63.0464 291.328 63.2918 291.168C63.5478 290.997 63.8304 290.912 64.1398 290.912C64.4491 290.912 64.7264 290.997 64.9718 291.168C65.2278 291.328 65.4464 291.563 65.6278 291.872C65.8091 292.171 65.9478 292.539 66.0438 292.976C66.1398 293.403 66.1878 293.877 66.1878 294.4C66.1878 294.923 66.1398 295.403 66.0438 295.84C65.9478 296.267 65.8091 296.635 65.6278 296.944C65.4464 297.243 65.2278 297.477 64.9718 297.648C64.7264 297.808 64.4491 297.888 64.1398 297.888C63.8304 297.888 63.5478 297.808 63.2918 297.648C63.0464 297.477 62.8331 297.243 62.6518 296.944C62.4704 296.635 62.3318 296.267 62.2358 295.84C62.1398 295.403 62.0918 294.923 62.0918 294.4ZM59.4838 294.4C59.4838 295.616 59.6758 296.656 60.0598 297.52C60.4544 298.384 61.0038 299.051 61.7078 299.52C62.4118 299.979 63.2224 300.208 64.1398 300.208C65.0998 300.208 65.9264 299.979 66.6198 299.52C67.3131 299.051 67.8464 298.384 68.2198 297.52C68.6038 296.656 68.7958 295.616 68.7958 294.4C68.7958 293.184 68.6038 292.144 68.2198 291.28C67.8464 290.416 67.3131 289.755 66.6198 289.296C65.9264 288.827 65.0998 288.592 64.1398 288.592C63.2224 288.592 62.4118 288.827 61.7078 289.296C61.0038 289.755 60.4544 290.416 60.0598 291.28C59.6758 292.144 59.4838 293.184 59.4838 294.4ZM71.3575 298.24L69.9495 302.384L71.7735 302.752L73.7895 298.752L71.3575 298.24ZM84.305 296.416C84.305 295.637 84.145 294.976 83.825 294.432C83.505 293.888 83.0837 293.472 82.561 293.184C82.049 292.896 81.4943 292.752 80.897 292.752C80.545 292.752 80.2037 292.784 79.873 292.848C79.553 292.901 79.2437 292.997 78.945 293.136L79.585 291.136H84.065V288.8H77.601L76.033 295.264C76.417 295.072 76.7903 294.928 77.153 294.832C77.5263 294.725 77.8837 294.656 78.225 294.624C78.577 294.581 78.897 294.56 79.185 294.56C79.5583 294.56 79.905 294.613 80.225 294.72C80.5557 294.827 80.8223 294.997 81.025 295.232C81.2383 295.456 81.345 295.755 81.345 296.128C81.345 296.48 81.2597 296.779 81.089 297.024C80.9183 297.269 80.673 297.451 80.353 297.568C80.033 297.685 79.6437 297.744 79.185 297.744C78.9183 297.744 78.6197 297.696 78.289 297.6C77.9583 297.493 77.6277 297.355 77.297 297.184C76.977 297.003 76.6623 296.784 76.353 296.528L75.297 298.752C75.649 299.019 76.0383 299.264 76.465 299.488C76.8917 299.701 77.3823 299.872 77.937 300C78.4917 300.139 79.1103 300.208 79.793 300.208C80.337 300.208 80.8703 300.139 81.393 300C81.9263 299.851 82.4117 299.621 82.849 299.312C83.297 299.003 83.649 298.608 83.905 298.128C84.1717 297.648 84.305 297.077 84.305 296.416ZM86.0255 292.032L88.7935 291.344V300H91.4015V288.592L86.0255 289.68V292.032ZM93.3981 300H102.886V297.52H98.4061L101.014 295.184C101.494 294.768 101.883 294.309 102.182 293.808C102.481 293.296 102.63 292.736 102.63 292.128C102.63 291.701 102.539 291.28 102.358 290.864C102.177 290.448 101.905 290.069 101.542 289.728C101.19 289.376 100.747 289.099 100.214 288.896C99.6808 288.683 99.0675 288.576 98.3741 288.576C97.4141 288.576 96.5981 288.773 95.9261 289.168C95.2648 289.563 94.7688 290.091 94.4381 290.752C94.1075 291.413 93.9421 292.144 93.9421 292.944H96.5981C96.5981 292.539 96.6621 292.181 96.7901 291.872C96.9288 291.563 97.1261 291.323 97.3821 291.152C97.6488 290.981 97.9528 290.896 98.2941 290.896C98.5501 290.896 98.7741 290.939 98.9661 291.024C99.1581 291.099 99.3181 291.205 99.4461 291.344C99.5741 291.472 99.6701 291.621 99.7341 291.792C99.7981 291.963 99.8301 292.133 99.8301 292.304C99.8301 292.603 99.7715 292.885 99.6541 293.152C99.5475 293.408 99.3821 293.669 99.1581 293.936C98.9448 294.203 98.6888 294.501 98.3901 294.832L93.3981 300ZM105.498 298.24L104.09 302.384L105.914 302.752L107.93 298.752L105.498 298.24ZM109.086 300H118.574V297.52H114.094L116.702 295.184C117.182 294.768 117.571 294.309 117.87 293.808C118.168 293.296 118.318 292.736 118.318 292.128C118.318 291.701 118.227 291.28 118.046 290.864C117.864 290.448 117.592 290.069 117.23 289.728C116.878 289.376 116.435 289.099 115.902 288.896C115.368 288.683 114.755 288.576 114.062 288.576C113.102 288.576 112.286 288.773 111.614 289.168C110.952 289.563 110.456 290.091 110.126 290.752C109.795 291.413 109.63 292.144 109.63 292.944H112.286C112.286 292.539 112.35 292.181 112.478 291.872C112.616 291.563 112.814 291.323 113.07 291.152C113.336 290.981 113.64 290.896 113.982 290.896C114.238 290.896 114.462 290.939 114.654 291.024C114.846 291.099 115.006 291.205 115.134 291.344C115.262 291.472 115.358 291.621 115.422 291.792C115.486 291.963 115.518 292.133 115.518 292.304C115.518 292.603 115.459 292.885 115.342 293.152C115.235 293.408 115.07 293.669 114.846 293.936C114.632 294.203 114.376 294.501 114.078 294.832L109.086 300ZM119.586 300H129.074V297.52H124.594L127.202 295.184C127.682 294.768 128.071 294.309 128.37 293.808C128.668 293.296 128.818 292.736 128.818 292.128C128.818 291.701 128.727 291.28 128.546 290.864C128.364 290.448 128.092 290.069 127.73 289.728C127.378 289.376 126.935 289.099 126.402 288.896C125.868 288.683 125.255 288.576 124.562 288.576C123.602 288.576 122.786 288.773 122.114 289.168C121.452 289.563 120.956 290.091 120.626 290.752C120.295 291.413 120.13 292.144 120.13 292.944H122.786C122.786 292.539 122.85 292.181 122.978 291.872C123.116 291.563 123.314 291.323 123.57 291.152C123.836 290.981 124.14 290.896 124.482 290.896C124.738 290.896 124.962 290.939 125.154 291.024C125.346 291.099 125.506 291.205 125.634 291.344C125.762 291.472 125.858 291.621 125.922 291.792C125.986 291.963 126.018 292.133 126.018 292.304C126.018 292.603 125.959 292.885 125.842 293.152C125.735 293.408 125.57 293.669 125.346 293.936C125.132 294.203 124.876 294.501 124.578 294.832L119.586 300ZM130.086 300H139.574V297.52H135.094L137.702 295.184C138.182 294.768 138.571 294.309 138.87 293.808C139.168 293.296 139.318 292.736 139.318 292.128C139.318 291.701 139.227 291.28 139.046 290.864C138.864 290.448 138.592 290.069 138.23 289.728C137.878 289.376 137.435 289.099 136.902 288.896C136.368 288.683 135.755 288.576 135.062 288.576C134.102 288.576 133.286 288.773 132.614 289.168C131.952 289.563 131.456 290.091 131.126 290.752C130.795 291.413 130.63 292.144 130.63 292.944H133.286C133.286 292.539 133.35 292.181 133.478 291.872C133.616 291.563 133.814 291.323 134.07 291.152C134.336 290.981 134.64 290.896 134.982 290.896C135.238 290.896 135.462 290.939 135.654 291.024C135.846 291.099 136.006 291.205 136.134 291.344C136.262 291.472 136.358 291.621 136.422 291.792C136.486 291.963 136.518 292.133 136.518 292.304C136.518 292.603 136.459 292.885 136.342 293.152C136.235 293.408 136.07 293.669 135.846 293.936C135.632 294.203 135.376 294.501 135.078 294.832L130.086 300Z" fill="white"/>
<path d="M254.46 60.86L257.34 65H258.6L255.6 60.86H254.46ZM252.96 56.6V65H253.98V56.6H252.96ZM253.524 57.5H255.24C255.6 57.5 255.916 57.564 256.188 57.692C256.468 57.82 256.684 58.004 256.836 58.244C256.996 58.484 257.076 58.776 257.076 59.12C257.076 59.464 256.996 59.756 256.836 59.996C256.684 60.236 256.468 60.42 256.188 60.548C255.916 60.676 255.6 60.74 255.24 60.74H253.524V61.64H255.24C255.784 61.64 256.268 61.54 256.692 61.34C257.124 61.132 257.464 60.84 257.712 60.464C257.968 60.08 258.096 59.632 258.096 59.12C258.096 58.6 257.968 58.152 257.712 57.776C257.464 57.4 257.124 57.112 256.692 56.912C256.268 56.704 255.784 56.6 255.24 56.6H253.524V57.5ZM260.239 65H264.475V64.04H260.239V65ZM260.239 57.56H264.475V56.6H260.239V57.56ZM260.239 60.92H264.235V59.96H260.239V60.92ZM259.675 56.6V65H260.695V56.6H259.675ZM264.508 66.248L263.98 67.04C264.044 67.12 264.148 67.204 264.292 67.292C264.428 67.388 264.596 67.468 264.796 67.532C264.988 67.604 265.188 67.64 265.397 67.64C265.677 67.64 265.929 67.6 266.153 67.52C266.385 67.448 266.581 67.332 266.741 67.172C266.901 67.012 267.021 66.812 267.101 66.572C267.189 66.332 267.233 66.048 267.233 65.72V56.6H266.273V65.6C266.273 65.992 266.181 66.268 265.997 66.428C265.821 66.596 265.641 66.68 265.457 66.68C265.24 66.68 265.052 66.64 264.892 66.56C264.724 66.488 264.596 66.384 264.508 66.248ZM269.719 65H273.955V64.04H269.719V65ZM269.719 57.56H273.955V56.6H269.719V57.56ZM269.719 60.92H273.715V59.96H269.719V60.92ZM269.155 56.6V65H270.175V56.6H269.155ZM276.353 60.8C276.353 60.144 276.497 59.572 276.785 59.084C277.081 58.588 277.465 58.2 277.937 57.92C278.409 57.64 278.921 57.5 279.473 57.5C279.873 57.5 280.237 57.552 280.565 57.656C280.901 57.76 281.205 57.908 281.477 58.1C281.749 58.284 281.981 58.5 282.173 58.748V57.404C281.821 57.092 281.437 56.86 281.021 56.708C280.605 56.556 280.089 56.48 279.473 56.48C278.889 56.48 278.341 56.588 277.829 56.804C277.325 57.012 276.881 57.312 276.497 57.704C276.113 58.088 275.813 58.544 275.597 59.072C275.381 59.6 275.273 60.176 275.273 60.8C275.273 61.424 275.381 62 275.597 62.528C275.813 63.056 276.113 63.516 276.497 63.908C276.881 64.292 277.325 64.592 277.829 64.808C278.341 65.016 278.889 65.12 279.473 65.12C280.089 65.12 280.605 65.044 281.021 64.892C281.437 64.74 281.821 64.508 282.173 64.196V62.852C281.981 63.1 281.749 63.32 281.477 63.512C281.205 63.696 280.901 63.84 280.565 63.944C280.237 64.048 279.873 64.1 279.473 64.1C278.921 64.1 278.409 63.96 277.937 63.68C277.465 63.4 277.081 63.012 276.785 62.516C276.497 62.02 276.353 61.448 276.353 60.8ZM282.765 57.56H284.925V65H285.945V57.56H288.105V56.6H282.765V57.56ZM289.747 65H293.983V64.04H289.747V65ZM289.747 57.56H293.983V56.6H289.747V57.56ZM289.747 60.92H293.743V59.96H289.747V60.92ZM289.183 56.6V65H290.203V56.6H289.183ZM295.78 56.6V65H296.8V56.6H295.78ZM298.3 65C299.116 65 299.84 64.824 300.472 64.472C301.104 64.12 301.6 63.632 301.96 63.008C302.32 62.376 302.5 61.64 302.5 60.8C302.5 59.96 302.32 59.228 301.96 58.604C301.6 57.972 301.104 57.48 300.472 57.128C299.84 56.776 299.116 56.6 298.3 56.6H296.344V57.62H298.3C298.772 57.62 299.204 57.696 299.596 57.848C299.988 57.992 300.324 58.204 300.604 58.484C300.884 58.756 301.1 59.088 301.252 59.48C301.404 59.872 301.48 60.312 301.48 60.8C301.48 61.288 301.404 61.728 301.252 62.12C301.1 62.512 300.884 62.848 300.604 63.128C300.324 63.4 299.988 63.612 299.596 63.764C299.204 63.908 298.772 63.98 298.3 63.98H296.344V65H298.3ZM310.534 63.104L307.774 56.6H306.634L310.534 65.42L314.434 56.6H313.294L310.534 63.104ZM315.88 60.8C315.88 60.168 316.016 59.604 316.288 59.108C316.568 58.612 316.948 58.22 317.428 57.932C317.908 57.644 318.452 57.5 319.06 57.5C319.676 57.5 320.22 57.644 320.692 57.932C321.172 58.22 321.548 58.612 321.82 59.108C322.1 59.604 322.24 60.168 322.24 60.8C322.24 61.432 322.1 61.996 321.82 62.492C321.548 62.988 321.172 63.38 320.692 63.668C320.22 63.956 319.676 64.1 319.06 64.1C318.452 64.1 317.908 63.956 317.428 63.668C316.948 63.38 316.568 62.988 316.288 62.492C316.016 61.996 315.88 61.432 315.88 60.8ZM314.8 60.8C314.8 61.408 314.904 61.976 315.112 62.504C315.328 63.032 315.628 63.492 316.012 63.884C316.396 64.268 316.848 64.572 317.368 64.796C317.888 65.012 318.452 65.12 319.06 65.12C319.676 65.12 320.24 65.012 320.752 64.796C321.272 64.572 321.724 64.268 322.108 63.884C322.492 63.492 322.788 63.032 322.996 62.504C323.212 61.976 323.32 61.408 323.32 60.8C323.32 60.184 323.212 59.616 322.996 59.096C322.788 58.568 322.492 58.112 322.108 57.728C321.724 57.336 321.272 57.032 320.752 56.816C320.24 56.592 319.676 56.48 319.06 56.48C318.452 56.48 317.888 56.592 317.368 56.816C316.848 57.032 316.396 57.336 316.012 57.728C315.628 58.112 315.328 58.568 315.112 59.096C314.904 59.616 314.8 60.184 314.8 60.8ZM323.558 57.56H325.718V65H326.738V57.56H328.898V56.6H323.558V57.56ZM330.54 65H334.776V64.04H330.54V65ZM330.54 57.56H334.776V56.6H330.54V57.56ZM330.54 60.92H334.536V59.96H330.54V60.92ZM329.976 56.6V65H330.996V56.6H329.976ZM336.885 62.456L336.069 63.008C336.253 63.376 336.489 63.724 336.777 64.052C337.073 64.372 337.413 64.632 337.797 64.832C338.189 65.024 338.613 65.12 339.069 65.12C339.405 65.12 339.725 65.064 340.029 64.952C340.341 64.84 340.617 64.68 340.857 64.472C341.105 64.264 341.297 64.012 341.433 63.716C341.577 63.42 341.649 63.088 341.649 62.72C341.649 62.336 341.581 62.008 341.445 61.736C341.309 61.456 341.133 61.22 340.917 61.028C340.709 60.828 340.481 60.664 340.233 60.536C339.985 60.408 339.749 60.304 339.525 60.224C339.037 60.056 338.649 59.888 338.361 59.72C338.081 59.544 337.881 59.36 337.761 59.168C337.641 58.968 337.581 58.752 337.581 58.52C337.581 58.248 337.685 58.004 337.893 57.788C338.101 57.564 338.433 57.452 338.889 57.452C339.217 57.452 339.493 57.516 339.717 57.644C339.949 57.772 340.145 57.936 340.305 58.136C340.465 58.336 340.597 58.54 340.701 58.748L341.577 58.244C341.441 57.948 341.253 57.668 341.013 57.404C340.773 57.132 340.481 56.912 340.137 56.744C339.801 56.568 339.405 56.48 338.949 56.48C338.477 56.48 338.057 56.576 337.689 56.768C337.321 56.952 337.033 57.208 336.825 57.536C336.617 57.864 336.513 58.236 336.513 58.652C336.513 59.036 336.585 59.36 336.729 59.624C336.881 59.888 337.073 60.112 337.305 60.296C337.537 60.472 337.781 60.62 338.037 60.74C338.293 60.852 338.525 60.944 338.733 61.016C339.053 61.128 339.353 61.256 339.633 61.4C339.921 61.536 340.153 61.716 340.329 61.94C340.505 62.164 340.593 62.464 340.593 62.84C340.593 63.224 340.457 63.54 340.185 63.788C339.913 64.036 339.553 64.16 339.105 64.16C338.769 64.16 338.469 64.088 338.205 63.944C337.941 63.8 337.701 63.6 337.485 63.344C337.277 63.088 337.077 62.792 336.885 62.456Z" fill="white" fill-opacity="0.5"/>
<path d="M253.155 79.035C253.155 79.515 253.255 79.935 253.455 80.295C253.665 80.645 253.94 80.94 254.28 81.18C254.62 81.41 255 81.58 255.42 81.69C255.84 81.8 256.265 81.855 256.695 81.855C257.125 81.855 257.55 81.8 257.97 81.69C258.39 81.58 258.77 81.41 259.11 81.18C259.46 80.94 259.735 80.645 259.935 80.295C260.145 79.935 260.25 79.515 260.25 79.035C260.25 78.445 260.085 77.945 259.755 77.535C259.435 77.115 259.005 76.8 258.465 76.59C257.935 76.37 257.345 76.26 256.695 76.26C256.055 76.26 255.465 76.37 254.925 76.59C254.395 76.8 253.965 77.115 253.635 77.535C253.315 77.945 253.155 78.445 253.155 79.035ZM255.54 79.275C255.54 79.045 255.585 78.84 255.675 78.66C255.775 78.47 255.915 78.325 256.095 78.225C256.275 78.125 256.475 78.075 256.695 78.075C256.935 78.075 257.14 78.125 257.31 78.225C257.49 78.325 257.625 78.47 257.715 78.66C257.815 78.84 257.865 79.045 257.865 79.275C257.865 79.515 257.815 79.725 257.715 79.905C257.615 80.085 257.475 80.225 257.295 80.325C257.125 80.425 256.925 80.475 256.695 80.475C256.475 80.475 256.275 80.425 256.095 80.325C255.925 80.225 255.79 80.085 255.69 79.905C255.59 79.725 255.54 79.515 255.54 79.275ZM252.78 84.15C252.78 84.63 252.885 85.06 253.095 85.44C253.305 85.82 253.595 86.145 253.965 86.415C254.335 86.685 254.755 86.89 255.225 87.03C255.695 87.17 256.185 87.24 256.695 87.24C257.215 87.24 257.71 87.17 258.18 87.03C258.65 86.89 259.07 86.685 259.44 86.415C259.81 86.145 260.1 85.82 260.31 85.44C260.52 85.06 260.625 84.63 260.625 84.15C260.625 83.6 260.505 83.13 260.265 82.74C260.025 82.34 259.705 82.02 259.305 81.78C258.915 81.53 258.49 81.35 258.03 81.24C257.57 81.12 257.125 81.06 256.695 81.06C256.265 81.06 255.82 81.12 255.36 81.24C254.9 81.35 254.475 81.53 254.085 81.78C253.695 82.02 253.38 82.34 253.14 82.74C252.9 83.13 252.78 83.6 252.78 84.15ZM255.3 83.76C255.3 83.51 255.36 83.28 255.48 83.07C255.61 82.86 255.78 82.695 255.99 82.575C256.21 82.455 256.445 82.395 256.695 82.395C256.955 82.395 257.19 82.455 257.4 82.575C257.62 82.695 257.79 82.86 257.91 83.07C258.04 83.28 258.105 83.51 258.105 83.76C258.105 84.07 258.04 84.33 257.91 84.54C257.79 84.75 257.62 84.91 257.4 85.02C257.19 85.13 256.955 85.185 256.695 85.185C256.445 85.185 256.21 85.13 255.99 85.02C255.78 84.91 255.61 84.75 255.48 84.54C255.36 84.33 255.3 84.07 255.3 83.76ZM262.985 85.35L261.665 89.235L263.375 89.58L265.265 85.83L262.985 85.35ZM266.258 85.14H275.888V82.98H273.743L273.488 83.31H269.618L271.883 80.175V84.195L271.598 84.36V87H274.238V76.5H272.348L266.258 85.14ZM279.566 81.75C279.566 81.26 279.611 80.815 279.701 80.415C279.791 80.005 279.921 79.66 280.091 79.38C280.261 79.09 280.461 78.87 280.691 78.72C280.931 78.56 281.196 78.48 281.486 78.48C281.776 78.48 282.036 78.56 282.266 78.72C282.506 78.87 282.711 79.09 282.881 79.38C283.051 79.66 283.181 80.005 283.271 80.415C283.361 80.815 283.406 81.26 283.406 81.75C283.406 82.24 283.361 82.69 283.271 83.1C283.181 83.5 283.051 83.845 282.881 84.135C282.711 84.415 282.506 84.635 282.266 84.795C282.036 84.945 281.776 85.02 281.486 85.02C281.196 85.02 280.931 84.945 280.691 84.795C280.461 84.635 280.261 84.415 280.091 84.135C279.921 83.845 279.791 83.5 279.701 83.1C279.611 82.69 279.566 82.24 279.566 81.75ZM277.121 81.75C277.121 82.89 277.301 83.865 277.661 84.675C278.031 85.485 278.546 86.11 279.206 86.55C279.866 86.98 280.626 87.195 281.486 87.195C282.386 87.195 283.161 86.98 283.811 86.55C284.461 86.11 284.961 85.485 285.311 84.675C285.671 83.865 285.851 82.89 285.851 81.75C285.851 80.61 285.671 79.635 285.311 78.825C284.961 78.015 284.461 77.395 283.811 76.965C283.161 76.525 282.386 76.305 281.486 76.305C280.626 76.305 279.866 76.525 279.206 76.965C278.546 77.395 278.031 78.015 277.661 78.825C277.301 79.635 277.121 80.61 277.121 81.75ZM289.498 81.75C289.498 81.26 289.543 80.815 289.633 80.415C289.723 80.005 289.853 79.66 290.023 79.38C290.193 79.09 290.393 78.87 290.623 78.72C290.863 78.56 291.128 78.48 291.418 78.48C291.708 78.48 291.968 78.56 292.198 78.72C292.438 78.87 292.643 79.09 292.813 79.38C292.983 79.66 293.113 80.005 293.203 80.415C293.293 80.815 293.338 81.26 293.338 81.75C293.338 82.24 293.293 82.69 293.203 83.1C293.113 83.5 292.983 83.845 292.813 84.135C292.643 84.415 292.438 84.635 292.198 84.795C291.968 84.945 291.708 85.02 291.418 85.02C291.128 85.02 290.863 84.945 290.623 84.795C290.393 84.635 290.193 84.415 290.023 84.135C289.853 83.845 289.723 83.5 289.633 83.1C289.543 82.69 289.498 82.24 289.498 81.75ZM287.053 81.75C287.053 82.89 287.233 83.865 287.593 84.675C287.963 85.485 288.478 86.11 289.138 86.55C289.798 86.98 290.558 87.195 291.418 87.195C292.318 87.195 293.093 86.98 293.743 86.55C294.393 86.11 294.893 85.485 295.243 84.675C295.603 83.865 295.783 82.89 295.783 81.75C295.783 80.61 295.603 79.635 295.243 78.825C294.893 78.015 294.393 77.395 293.743 76.965C293.093 76.525 292.318 76.305 291.418 76.305C290.558 76.305 289.798 76.525 289.138 76.965C288.478 77.395 287.963 78.015 287.593 78.825C287.233 79.635 287.053 80.61 287.053 81.75ZM298.185 85.35L296.865 89.235L298.575 89.58L300.465 85.83L298.185 85.35ZM304.293 81.75C304.293 81.26 304.338 80.815 304.428 80.415C304.518 80.005 304.648 79.66 304.818 79.38C304.988 79.09 305.188 78.87 305.418 78.72C305.658 78.56 305.923 78.48 306.213 78.48C306.503 78.48 306.763 78.56 306.993 78.72C307.233 78.87 307.438 79.09 307.608 79.38C307.778 79.66 307.908 80.005 307.998 80.415C308.088 80.815 308.133 81.26 308.133 81.75C308.133 82.24 308.088 82.69 307.998 83.1C307.908 83.5 307.778 83.845 307.608 84.135C307.438 84.415 307.233 84.635 306.993 84.795C306.763 84.945 306.503 85.02 306.213 85.02C305.923 85.02 305.658 84.945 305.418 84.795C305.188 84.635 304.988 84.415 304.818 84.135C304.648 83.845 304.518 83.5 304.428 83.1C304.338 82.69 304.293 82.24 304.293 81.75ZM301.848 81.75C301.848 82.89 302.028 83.865 302.388 84.675C302.758 85.485 303.273 86.11 303.933 86.55C304.593 86.98 305.353 87.195 306.213 87.195C307.113 87.195 307.888 86.98 308.538 86.55C309.188 86.11 309.688 85.485 310.038 84.675C310.398 83.865 310.578 82.89 310.578 81.75C310.578 80.61 310.398 79.635 310.038 78.825C309.688 78.015 309.188 77.395 308.538 76.965C307.888 76.525 307.113 76.305 306.213 76.305C305.353 76.305 304.593 76.525 303.933 76.965C303.273 77.395 302.758 78.015 302.388 78.825C302.028 79.635 301.848 80.61 301.848 81.75ZM314.225 81.75C314.225 81.26 314.27 80.815 314.36 80.415C314.45 80.005 314.58 79.66 314.75 79.38C314.92 79.09 315.12 78.87 315.35 78.72C315.59 78.56 315.855 78.48 316.145 78.48C316.435 78.48 316.695 78.56 316.925 78.72C317.165 78.87 317.37 79.09 317.54 79.38C317.71 79.66 317.84 80.005 317.93 80.415C318.02 80.815 318.065 81.26 318.065 81.75C318.065 82.24 318.02 82.69 317.93 83.1C317.84 83.5 317.71 83.845 317.54 84.135C317.37 84.415 317.165 84.635 316.925 84.795C316.695 84.945 316.435 85.02 316.145 85.02C315.855 85.02 315.59 84.945 315.35 84.795C315.12 84.635 314.92 84.415 314.75 84.135C314.58 83.845 314.45 83.5 314.36 83.1C314.27 82.69 314.225 82.24 314.225 81.75ZM311.78 81.75C311.78 82.89 311.96 83.865 312.32 84.675C312.69 85.485 313.205 86.11 313.865 86.55C314.525 86.98 315.285 87.195 316.145 87.195C317.045 87.195 317.82 86.98 318.47 86.55C319.12 86.11 319.62 85.485 319.97 84.675C320.33 83.865 320.51 82.89 320.51 81.75C320.51 80.61 320.33 79.635 319.97 78.825C319.62 78.015 319.12 77.395 318.47 76.965C317.82 76.525 317.045 76.305 316.145 76.305C315.285 76.305 314.525 76.525 313.865 76.965C313.205 77.395 312.69 78.015 312.32 78.825C311.96 79.635 311.78 80.61 311.78 81.75ZM324.156 81.75C324.156 81.26 324.201 80.815 324.291 80.415C324.381 80.005 324.511 79.66 324.681 79.38C324.851 79.09 325.051 78.87 325.281 78.72C325.521 78.56 325.786 78.48 326.076 78.48C326.366 78.48 326.626 78.56 326.856 78.72C327.096 78.87 327.301 79.09 327.471 79.38C327.641 79.66 327.771 80.005 327.861 80.415C327.951 80.815 327.996 81.26 327.996 81.75C327.996 82.24 327.951 82.69 327.861 83.1C327.771 83.5 327.641 83.845 327.471 84.135C327.301 84.415 327.096 84.635 326.856 84.795C326.626 84.945 326.366 85.02 326.076 85.02C325.786 85.02 325.521 84.945 325.281 84.795C325.051 84.635 324.851 84.415 324.681 84.135C324.511 83.845 324.381 83.5 324.291 83.1C324.201 82.69 324.156 82.24 324.156 81.75ZM321.711 81.75C321.711 82.89 321.891 83.865 322.251 84.675C322.621 85.485 323.136 86.11 323.796 86.55C324.456 86.98 325.216 87.195 326.076 87.195C326.976 87.195 327.751 86.98 328.401 86.55C329.051 86.11 329.551 85.485 329.901 84.675C330.261 83.865 330.441 82.89 330.441 81.75C330.441 80.61 330.261 79.635 329.901 78.825C329.551 78.015 329.051 77.395 328.401 76.965C327.751 76.525 326.976 76.305 326.076 76.305C325.216 76.305 324.456 76.525 323.796 76.965C323.136 77.395 322.621 78.015 322.251 78.825C321.891 79.635 321.711 80.61 321.711 81.75Z" fill="white"/>
</svg>
